<svg xmlns="http://www.w3.org/2000/svg" viewBox="0 0 57.91 71.23"><defs><style>.cls-1{fill:#b7e08c;stroke:#859b61;stroke-miterlimit:10;stroke-width:0.25px;}.cls-2{fill:#c7e598;}.cls-3{fill:#afd385;}.cls-4{fill:#d8e5aa;}.cls-5{fill:#a6bf7f;}</style></defs><title>Chloropl</title><g id="Layer_2" data-name="Layer 2"><g id="Chlor"><path class="cls-1" d="M12,32.8c2.87,4.64,8.3,13.28,14.24,21.47,0,0,1.69,2.32,6.57,8,2.56,3,4.54,5.12,7.7,7s5.08,2,6.35,1.77a8.93,8.93,0,0,0,3.37-1.49,12.45,12.45,0,0,0,3.25-3.43,17.48,17.48,0,0,0,2.32-5A45.5,45.5,0,0,0,57.69,45c-.87-7.43-3.76-12.64-6.2-16.95A60,60,0,0,0,40.07,13.62C38,11.73,25.53-.48,12.54.15c-2,.1-8.36.41-11.24,3.46C-.89,6-.29,9.1,5.4,20.46,6.9,23.45,8,25.54,9.29,28,10.38,30,11.31,31.65,12,32.8Z"/><path class="cls-2" d="M35.55,14.62c1.46-.86,8.73,8.78,11,11.77a45.09,45.09,0,0,1,6.68,11.29c1.23,3.13,3.55,9.06,1.15,11.14-1.17,1-3.22.87-4.61.37-4.32-1.53-4.83-7.22-7.67-16.38C38.33,20.66,34.47,15.26,35.55,14.62Z"/><path class="cls-3" d="M37.26,62.7c-1.16-1.53-1.87-2.64-2.39-3.43-1.74-2.64-2.21-2.94-7.3-9.89a50.89,50.89,0,0,1-3.08-4.52c-.54-.89-1.26-2.16-2-3.8C19.1,34.14,16.74,29,14.82,22c0,0-1.14-3-1.62-9.78a5.83,5.83,0,0,1,.43-2.79c.54-1.4,1.25-1.7,2.21-3.48C16.63,4.44,17,3.7,16.77,3c-.61-1.59-4.45-1.43-6.17-1.38-2.38.06-5.32.13-7,2.17A5.79,5.79,0,0,0,2.31,7C1.67,12,4.37,16.65,7,21.16c6.26,10.89,3.92,7.07,6.25,10.94,4.57,7.63,6.92,11.54,10,15.91,1.17,1.65.06,0,6.59,8.48,3.94,5.1,9.27,9,9.46,8.85S38.65,64.56,37.26,62.7Z"/><path class="cls-3" d="M22.81,4.35c-1.4-.69-3.31-1.08-3.26-.22,0,.56.88,1.52,1.41,2,.85.76,1.2.61,3.72,1.31,1.05.3,1.48.46,1.5.2,0-.41-1-1.5-1.55-2A7.22,7.22,0,0,0,22.81,4.35Z"/><path class="cls-4" d="M46.84,31.41c.45-.28,2.72,3.67,3.42,4.89a21.55,21.55,0,0,1,2.09,4.58c.38,1.24,1.12,3.6.39,4.33a1.25,1.25,0,0,1-1.42,0c-1.33-.73-1.51-2.94-2.41-6.56C47.72,33.83,46.51,31.62,46.84,31.41Z"/><path class="cls-5" d="M9.61,4.07C8.1,3.34,6,4.21,5,5.52a5.12,5.12,0,0,0-.85,3.39,14.48,14.48,0,0,0,1.54,6.38c.32.73.88,1.74,2,3.76,1.5,2.68,2.25,4,2.46,3.93s-1.19-3.52-1.69-8.73C8,10,8.7,8.82,9.25,8.19,10,7.34,11,6.92,11,6A2.3,2.3,0,0,0,9.61,4.07Z"/></g></g></svg>