<svg xmlns="http://www.w3.org/2000/svg" viewBox="0 0 363.95 193.09"><defs><style>.cls-1{fill:#e5cf80;}</style></defs><title>Endplasmic</title><g id="Layer_2" data-name="Layer 2"><g id="Endop"><g id="Layer_5" data-name="Layer 5"><path class="cls-1" d="M143.64,191.22a117.91,117.91,0,0,0,23.7,1.84c20.51-.51,36.31-6.36,49.59-11.28,1.7-.63,10.26-3.82,21.14-9,6.39-3,5.67-3,17.17-8.91,14.22-7.28,17.36-8.38,22.9-12.89,3.59-2.92,7.85-7,10-13.31.7-2.06,2.18-6.43.54-7.8-2-1.66-7.38,2.13-18.89,10,0,0-15.24,10.41-34.36,20.69-6.52,3.51-12.37,6.36-15.58,4a6.17,6.17,0,0,1-2.05-5.71c.2-1.15,1-3.43,8.34-7.26,6.33-3.29,8.29-2.93,16-6.69a54.8,54.8,0,0,0,7.62-4.94c2.61-1.86,3.39-2.61,3.23-3.2-.29-1-3.46-1.25-6-.83-3.78.63-5.8,2.59-8.78,4.58-1.74,1.15-4.82,2.45-11,5-17.61,7.39-37.47,9.71-37.47,9.71-14,1.65-21,2.47-22.66,2.21-2.29-.35-7.2-1.33-9.34,1.19a4.26,4.26,0,0,0-.78,4.16c.74,1.74,3,2.44,5.24,2.8,14,2.28,31.39-4.3,31.39-4.3a20.12,20.12,0,0,1,11.55-1.18c1.46.33,3.59.84,4.25,2.41,1.32,3.11-4.17,7.94-4.82,8.51-4.62,4-10,5.05-16.81,5.91-13.41,1.7-20.32,1.11-33,3.47-6.61,1.23-11.57,2.66-12.41,5.92C141.82,188.09,142.73,189.9,143.64,191.22Z"/><path class="cls-1" d="M301.63,122.26c2-1.63,4.78-4,7.9-7.07,6.66-6.55,10.66-12.16,16.59-20.55,10.5-14.89,9.07-12.42,13.35-19.72,3.57-6.06,3-5.1,6.18-10.69.91-1.61,1.74-3.13,1.13-4.22-.8-1.41-3.66-1.46-5.65-.9-3.94,1.11-6,5-6.82,6.46-.91,1.64-6.48,8.43-17.62,22-8.5,10.35-9.12,8.4-13.94,15.53-5.7,8.43-10.66,19.79-8.18,21.73C295.29,125.4,297,125.45,301.63,122.26Z"/><path class="cls-1" d="M353,45.22a31.33,31.33,0,0,0,7.47-9.13c1.69-3.16,5.18-9.67,2.62-15.12-1.14-2.42-3.58-4.88-5.32-4.43-1.46.37-1.5,2.55-2.92,6.72-2.21,6.48-4,6.76-5.9,13.09-1,3.36-2.29,7.55-.49,9C349.6,46.31,351.65,45.73,353,45.22Z"/><path class="cls-1" d="M194,146.15c3.12-.63,6.64-1.58,10.74-2.7l.17,0c.75-.2,2.89-.81,5.57-1.82,5.48-2.06,5.79-3,5.87-3.36.37-1.78-2-4.44-4.47-4.76s-3.55,2.14-7.64,3.65c-3.12,1.16-3.49,0-9.05.77-3.33.43-10.08,1.18-11.16,4.61a4,4,0,0,0,1,3.9C186.29,147.67,188.86,147.18,194,146.15Z"/><path class="cls-1" d="M228.74,135.78a72.37,72.37,0,0,0,10.08-4.43c6.1-3.25,10-6.46,16.88-12.16.49-.41,5.87-4.9,12.38-11.6s7.89-9.11,7.27-11.49a5.73,5.73,0,0,0-4.7-4c-2.82-.28-5.13,2.34-6.52,3.83,0,0-4,4.31-15.33,12.64-8.22,6-10.22,3.66-18.66,10.26-4,3.17-9.73,7.62-8.69,11.72C222.27,133.81,224,137.34,228.74,135.78Z"/><path class="cls-1" d="M311.29,40.77a14.3,14.3,0,0,1,3.54-7.38c1.7-1.77,3.94-3.27,6-6.59a7.48,7.48,0,0,0,.72-1.5c.3-.84,1.71-4.74-.47-7.26A5.82,5.82,0,0,0,315,16.49c-2.75,1-3.56,4.4-4.74,7.94-1.77,5.37-4.78,10.24-7.07,15.4A114.91,114.91,0,0,1,290,63.13c-1.37,1.82-4.74,6.17-8.83,12.56-4.44,7-5.2,9.22-4.32,10.45,1.12,1.56,4.71,1.26,7.17.09s2.69-2.58,6.28-7.47c4.31-5.86,6.57-7.53,7.88-8.37.76-.49,4.92-3.17,6.17-2,1.63,1.48-2.59,8.61-3.6,10.33-5.95,10.06-13.07,15.85-25.21,26-15.74,13.19-20.46,17.43-19.62,22.17.59,3.33,2.87,8.82,8.93,5.33a238.46,238.46,0,0,0,18.74-15.44,215.87,215.87,0,0,0,21-22.76C314.19,82.39,319.9,73.85,329,60.21a129,129,0,0,0,9.18-15.89c2.7-5.58,3.78-9.29,5.94-16.72,1.86-6.38,2.31-9.48.6-11.84-1.18-1.65-3.47-3-5.17-2.44-2.15.72-2.34,4.15-3.55,8.48-.58,2.09-2.42,5.71-6.1,12.94-6.12,12-9.24,18-12.3,17.64-1.53-.19-2.6-1.9-4-4.11A15.67,15.67,0,0,1,311.29,40.77Z"/><path class="cls-1" d="M253,97.9a168.9,168.9,0,0,0,18.59-19,183.54,183.54,0,0,0,17.25-24.79,232.4,232.4,0,0,0,11.44-21.72c4.56-9.51.07-1.36,6.36-17.48.8-2.08,1.88-4.78,1.14-8S304.5,0,301.57,0c-2.63.05-4.46,3.19-5.71,5.35-2.62,4.5-2.88,8.28-3.52,12-1,5.6-2.88,10-6.69,18.81a57.28,57.28,0,0,1-8.53,14.36c-3.72,4.52-5.64,5.32-7.3,5.16a6.19,6.19,0,0,1-5.17-5.11c-.18-1.69.67-3,1.64-4.49C269,42,270.35,39.91,273,36.5a51.64,51.64,0,0,0,7.3-12.4c1.42-3.55,1.7-5.61,1-7.61-.59-1.73-2.13-4.13-4.2-4.25-2.62-.16-4.59,3.42-5.49,5a21.21,21.21,0,0,0-2.32,8.09c-.24,1.56-.8,4-7,14-7.9,12.68-11.86,19-18.06,25.48C240,69.2,232.29,76.44,227.3,80.79c-2.58,2.24-4.71,5-7.24,7.26-2.79,2.54-4.47,3.8-4.3,5.58s2,3.21,3.72,3.6a5.93,5.93,0,0,0,4.16-.88c6.57-3.75,11.83-11.14,11.83-11.14,6.57-9.23,10-13.9,15.27-18.5,2.81-2.47,5.87-4.69,8.72-3.83a5.31,5.31,0,0,1,3.24,2.94c.78,1.8.61,4.41-3.32,10.37A61.89,61.89,0,0,1,249.3,87.87c-6.69,6.13-10,9.2-15.16,12a48.88,48.88,0,0,0-11.85,8.5c-1,1-2.42,2.61-2.15,4.47A4.57,4.57,0,0,0,223,116.1c2.53,1,5.37-.54,7.08-1.55C238.31,109.69,250.71,99.73,253,97.9Z"/><path class="cls-1" d="M160.21,132a12.49,12.49,0,0,0,5.57,5.4,13,13,0,0,0,6.58.93,80.82,80.82,0,0,0,16.75-3c6.09-1.6,9.45-2.57,12.8-3.6,8.26-2.54,10.92-3.79,12.68-6.51.44-.68,2.18-3.39,1.34-6.28-1-3.56-5.45-5.48-8.85-5.22-2.76.2-4.23,1.79-6.58,3.47a36.27,36.27,0,0,1-21.66,6.54c-4.21-.23-7.38-1.5-13.12-.57-2.15.35-3.91.88-5,2.4C158.93,128,160,131.28,160.21,132Z"/><path class="cls-1" d="M172.1,120.15a62.36,62.36,0,0,0,15.07-3.7c4.91-1.87,2.73-1.75,14.32-7.7,5.3-2.71,8.51-4.15,9.4-7.43.37-1.34.47-3.44-.6-4.21s-3.42.31-4.87,1.08c-9.3,5-14,7.49-15.46,8-2.55.86-2,.24-11.7,2.5-2.48.58-4.93,1.18-7.17,3.21-1,.89-3.45,3.13-2.77,5.42C168.94,119.39,169.31,120.05,172.1,120.15Z"/><path class="cls-1" d="M185.37,103.16s7.35-3.15,9.9-4.5A75.67,75.67,0,0,0,206,92a52.25,52.25,0,0,0,7.6-7.32c1.82-2.13,2.61-3.4,2.65-5,0-2.38-1.55-5-3.25-5.15-1.39-.11-2.4,1.51-3.84,3.39A56,56,0,0,1,198,88.48c-3.73,2.59-3.72,1.29-9.5,4.7-3.07,1.81-9.85,5.82-9.18,8.22C179.53,102.2,180.34,105,185.37,103.16Z"/><path class="cls-1" d="M220.63,71.87c2.24-1.7,14.55-10.78,18.43-14.87,3.65-3.84,2-1.88,14.58-19.15A118.72,118.72,0,0,0,262,24.93c2.23-3.93,4-7.54,3.29-11.75-.14-.79-.71-4.1-2.56-4.61-2.67-.73-6.21,4.9-6.78,5.83-2.12,3.48-1.82,5.25-3.56,9.23-1.14,2.63-2.09,3.73-5.41,8.31-9.49,13.07-11,16.85-14.58,16.82-1.58,0-3.49-.78-4.12-2.16-.72-1.55.33-3.52,1.79-5.65,3.35-4.89,6.19-6.74,10.5-10.94,7-6.85,7.71-9.93,7.9-11.13s.74-4.78-1.64-7.32a7.93,7.93,0,0,0-9.13-1.37c-2.31,1.25-2.84,3.47-4.34,7.4-1.93,5.06-4.59,12.06-9.1,17.43-2.88,3.43-3.43,2.53-9.27,8.66a29.67,29.67,0,0,0-6.19,8.79c-1.26,2.86-2.46,5.58-1.12,7.63,1.22,1.88,4.15,2.54,6.51,1.79.62-.2,1.29-.67,4.33-5.08,2.5-3.63,3.15-5,4.57-5.12a2.84,2.84,0,0,1,2.79,1.4c.23.54.46,1.85-4.84,8.09-2.9,3.42-4,4.21-4,5.75C217,69,217.23,73.35,220.63,71.87Z"/><path class="cls-1" d="M178.6,83.93c.57,3.95,7.32,2.8,13.05,1.81s9-4,14.19-8.55,5.43-6.73,5.46-7.51c.14-3.39-2.48-7.09-5.45-7.57-2.24-.37-3.37,1.3-7.83,4.46-8,5.68-10.34,5-14.72,9.32C180,79.11,178.77,78.55,178.6,83.93Z"/><path class="cls-1" d="M82.65,120.61c2.15,1.11,13.77,7.3,18.39,8.73,4.32,1.35,2.19.84,20.22,3.76a93.18,93.18,0,0,0,13.09,1.33c3.86.15,7.31.06,10.28-2.33.55-.44,2.88-2.32,2.57-4-.44-2.49-6.1-3-7-3.06-3.47-.25-4.72.75-8.44,1-2.45.18-3.66-.12-8.43-.89-13.63-2.19-17.12-1.83-18.44-4.75a4.63,4.63,0,0,1,.11-4.29c.92-1.25,2.84-1.23,5-.94,5,.65,7.52,2.18,12.37,3.92,7.92,2.84,10.54,2.08,11.54,1.71s3.95-1.43,5-4.45a7.49,7.49,0,0,0-2.39-8c-1.83-1.36-3.74-.84-7.32-.39-4.63.58-11,1.38-16.85,0-3.72-.89-3.23-1.73-10.16-3.89a23.71,23.71,0,0,0-9.09-1.31c-2.67.19-5.22.36-6.29,2.33-1,1.8-.38,4.48,1.08,6.09.39.42,1,.77,5.54,1.37,3.73.5,5,.47,5.66,1.56a2.79,2.79,0,0,1,0,2.87c-.33.42-1.25,1.16-8-.51-3.73-.91-4.74-1.45-5.93-.8C83.49,116.46,80.23,118.46,82.65,120.61Z"/><path class="cls-1" d="M45,103.85c-2.34,2.75,2,6.82,5.78,10.26s7.53,4,13.33,4.92,7.4-.18,7.94-.62c2.34-1.91,3.41-6,2.14-8.34-1-1.79-2.68-1.6-7.19-2.86-8.08-2.26-8.9-4.29-14.12-4.83C49,102,48.71,100.77,45,103.85Z"/><path class="cls-1" d="M130.18,96.09a45.77,45.77,0,0,0,6.21,1.27c5.47.72,9.43.18,15.31-.66,10.44-1.5,8.84-1,13.59-2.36,3.94-1.09,3.31-.92,6.91-2,1-.31,2-.63,2.16-1.67.22-1.36-1-3.32-2.07-4.34a5.16,5.16,0,0,0-5.5-.89c-1,.34-6.14.49-16.34.8-7.77.24-7.25-1.31-12.16-.45-5.81,1-12.46,4.22-12.17,7C126.21,93.63,126.93,94.81,130.18,96.09Z"/><path class="cls-1" d="M151,106.92a15.42,15.42,0,0,0,2.9,1.2c2.54.76,4.34.52,7,.12,4.74-.71,4-.43,6.15-1.23,1.77-.67,1.48-.57,3.09-1.23a1.21,1.21,0,0,0,.93-1.18,6.87,6.87,0,0,0-1.13-3.36c-1.06-1.6-2.15-1.06-2.56-.88s-2.8.12-7.47,0c-3.56-.14-3.39-1.28-5.61-.83-2.63.53-5.56,2.68-5.31,4.8C149,104.9,149.4,105.82,151,106.92Z"/><path class="cls-1" d="M102.88,162.42a14.25,14.25,0,0,1,8.07,1.39c2.17,1.14,4.23,2.89,8,4a7.46,7.46,0,0,0,1.63.28c.89.06,5,.34,6.86-2.45a5.83,5.83,0,0,0-.19-6.32c-1.75-2.36-5.21-2.21-8.94-2.37-5.64-.24-11.15-1.79-16.75-2.58a115.18,115.18,0,0,1-26-6.3c-2.14-.82-7.24-2.87-14.51-5-7.9-2.36-10.29-2.47-11.23-1.29-1.19,1.5.08,4.88,1.88,6.93s3.21,1.88,8.9,4c6.82,2.53,9,4.25,10.21,5.28.69.6,4.4,3.87,3.65,5.38-1,2-9-.13-10.91-.64-11.31-3-18.83-8.22-31.95-17.11-17-11.52-22.36-14.9-26.69-12.79-3,1.48-7.69,5.18-2.68,10a239.45,239.45,0,0,0,20,13.79c10.5,6.39,18.76,10,27.64,13.95,13.82,6.09,23.59,9.24,39.21,14.27a129.32,129.32,0,0,0,17.79,4.48c6.11,1.07,10,1.09,17.71,1.13,6.65,0,9.75-.39,11.56-2.67,1.26-1.59,1.95-4.16.93-5.65-1.28-1.87-4.64-1.11-9.13-1.08-2.18,0-6.16-.77-14.12-2.33-13.24-2.58-19.87-3.94-20.34-7-.23-1.53,1.12-3,2.86-5A15.81,15.81,0,0,1,102.88,162.42Z"/><path class="cls-1" d="M70.93,138s16.1,4.29,22.2,5.64c6.93,1.53,15.51,3.4,27.43,5.11.55.08,10.7,1.51,24.44,2.14,6.6.3,10.12.24,13.3-.65,4.63-1.3,7.56-4.11,5.48-5.58-1.7-1.21-6.19-1.13-11.76-1.26a299.66,299.66,0,0,1-35.61-3.26c-10.07-1.62-7.54-2.35-22-5.19-7.68-1.52-24.65-4.86-28.36-3C64.82,132.59,60.64,134.8,70.93,138Z"/><path class="cls-1" d="M30.36,113.92a9.91,9.91,0,0,0,1.07,5.2,9.35,9.35,0,0,0,3,3.24,51.05,51.05,0,0,0,9.39,5.42c3.58,1.7,5.58,2.59,7.6,3.44,5,2.1,6.72,2.55,8.48,1.83a4.33,4.33,0,0,0,2.7-2.78c.62-2.32-1-5.19-2.77-6.48-1.46-1-2.71-.81-4.43-.89a22.22,22.22,0,0,1-13-5.58c-2-1.88-3.23-3.88-6.42-5.79-1.19-.71-2.25-1.16-3.29-.82C31,111.26,30.46,113.47,30.36,113.92Z"/><path class="cls-1" d="M71.48,86.33c1.69,1,10.86,6.32,14.54,7.75,3.45,1.34,1.74.78,16.23,4.53a94.11,94.11,0,0,0,10.55,2.17c3.13.47,5.92.75,8.42-.6.47-.25,2.44-1.31,2.26-2.52-.26-1.75-4.83-2.63-5.58-2.77-2.8-.51-3.85.06-6.88-.11-2-.12-3-.44-6.79-1.43-11-2.81-13.8-2.91-14.75-5a2.71,2.71,0,0,1,.26-2.92c.8-.76,2.35-.57,4.12-.16,4,.94,6,2.22,9.86,3.88,6.3,2.71,8.45,2.44,9.28,2.29s3.26-.6,4.24-2.56a4.9,4.9,0,0,0-1.6-5.74c-1.43-1.1-3-.93-5.92-1-3.77,0-9-.12-13.65-1.65-3-1-2.55-1.49-8.07-3.63a23,23,0,0,0-7.32-1.78c-2.17-.13-4.24-.26-5.19,1s-.49,3,.63,4.27c.29.32.78.62,4.43,1.47,3,.7,4,.8,4.52,1.62a1.65,1.65,0,0,1-.14,2c-.28.25-1.05.67-6.49-1.13-3-1-3.78-1.45-4.77-1.12C72.33,83.57,69.6,84.63,71.48,86.33Z"/></g></g></g></svg>