<svg xmlns="http://www.w3.org/2000/svg" viewBox="0 0 116.09 150.54"><defs><style>.cls-1{fill:#ef6888;stroke:#bc4d22;stroke-miterlimit:10;stroke-width:0.5px;}</style></defs><title>Golgi</title><g id="Layer_2" data-name="Layer 2"><g id="Golg"><g id="Layer_11" data-name="Layer 11"><path class="cls-1" d="M107.86,66.73c-1.71-1.65-4.06-3.85-5.63-5.64a84.6,84.6,0,0,1-5.46-7.28,89,89,0,0,1-6.49-11.27c-1.23-2.59-2.09-4.88-3.81-9.45-1.8-4.78-2.7-7.17-3-9-.44-2.31-1.24-4.55-1.54-6.88a6,6,0,0,0-1.55-3.7,2.45,2.45,0,0,0-1.68-.87c-1.44.09-2.53,2.72-2.87,4.51-.62,3.26.88,5.7,3.53,11,0,0,1.44,3.11,5.09,11.84,2.64,6.31,2,4.9,5.23,11.89a105.72,105.72,0,0,0,8.8,14.82A19.16,19.16,0,0,0,102.75,71c1.73,1.25,3.93,2.84,5.43,2,1.14-.63,1.54-2.47,1.23-3.82A4.73,4.73,0,0,0,107.86,66.73Z"/><path class="cls-1" d="M108.4,76.25a4.27,4.27,0,0,0-1.12-2,5.62,5.62,0,0,0-2.75-1.34,31.53,31.53,0,0,0-3.57-.71c-2.16-.47-3.54-2.3-5-4.39a116.53,116.53,0,0,1-9.06-15.92c-1-2.35-2.63-5.9-4.46-10.67s-2.84-7.93-4.94-12.61C76.36,26,75.77,24.64,75.45,24c-1.83-3.69-2.28-3.83-2.41-5.2A18.92,18.92,0,0,1,73.89,13a4.06,4.06,0,0,0,.17-2.58,2.93,2.93,0,0,0-2.51-2,3.35,3.35,0,0,0-2.49,1.62c-1.25,1.68-1.76,4.31-.6,9A36.24,36.24,0,0,0,73,29.21c2.58,4.49,4.14,8.33,7.26,16,3.71,9.11,5.87,16.06,5.87,16.06A47.87,47.87,0,0,0,90.32,72c2,3.49,4,5.79,6.68,7.38A11.94,11.94,0,0,0,102.57,81a6,6,0,0,0,5.12-1.62A3.05,3.05,0,0,0,108.4,76.25Z"/><path class="cls-1" d="M104.05,90.24a12.77,12.77,0,0,0-2-2.53,15.59,15.59,0,0,0-4.42-2.94c-2.15-1.17-3.32-2.69-5.68-5.71-2.58-3.32-3.57-6-5.68-11.32,0,0-2.19-5.48-6.26-14.9C76.85,45.43,75.34,41.66,73.57,39a59.69,59.69,0,0,1-4.91-8.45,24.44,24.44,0,0,1-2.53-9.29c-.24-2.61,0-4.26-.66-8-.47-2.6-1-3.83-2-4.81S60.37,6.32,59,7c-.78.4-1.51,1.4-1.68,4.74a28.1,28.1,0,0,0,2.1,11.92c3.08,6.93,5.35,9.94,8.4,15.42,3.15,5.66,1.9,4.56,9.74,21.29,2.24,4.78.47.87,6,12.35A80.09,80.09,0,0,0,90.68,85.4a21.66,21.66,0,0,0,6.93,6.76c.49.29,5.35,3.06,6.7,1.62C105,93,104.54,91.42,104.05,90.24Z"/><path class="cls-1" d="M115.44,100.77a8.54,8.54,0,0,0-3.52-4.21,4,4,0,0,0-2.58-.74A4.25,4.25,0,0,0,106.16,99c-.75,2.74,1.51,5.75,4,6.87.67.3,2.74,1.25,4.29.15C115.77,105.06,116.26,102.91,115.44,100.77Z"/><path class="cls-1" d="M88.09,87.83A105.7,105.7,0,0,1,76.79,66,118.6,118.6,0,0,0,71.7,54c-.57-1.17-1.23-2.4-2.11-3.87C67.13,45.91,66.17,45.19,64,41c-2.8-5.53-2.14-6.24-5.26-13.22C55.3,20,54,19.83,53.84,16.29s1-4.95.15-9.18c-.44-2.2-1-4.85-3.27-6.12C49.24.16,47-.13,45.51,1,43.43,2.5,43.9,6.12,44.26,8.69,45,14.1,47,16.53,50,22.86,52.4,28,51.36,27,55.24,36.08a116.85,116.85,0,0,0,6.1,13c3.27,5.77,4.06,5.51,7.16,10.62,2.15,3.54,2.56,5,9,21.12,2.79,7,3.87,9.58,5.52,13.17a54.81,54.81,0,0,0,9.07,14.62c4.24,4.73,6.73,5.53,8.66,5.28.47-.06,2.29-.29,3-1.56,1.26-2.33-2.29-6.2-6.88-12.13C96.88,100.21,92.48,94.5,88.09,87.83Z"/><path class="cls-1" d="M92.14,126.44c.49-3.27.73-4.9.47-6.69-.41-2.88-1.76-4-3.9-7.51-.7-1.14-1.95-3.89-4.46-9.38C81,95.68,79.61,92.32,77.66,87.92A259.33,259.33,0,0,0,65.81,64.08c-4.82-8.47-5.65-8.58-8-14-3.33-7.63-2.09-8.37-5.6-15.71-3.41-7.14-5.51-8.35-6.71-14-.56-2.6-1.3-5.15-1.92-7.74A16.45,16.45,0,0,0,41.2,6.58c-.86-1.25-1.74-2.5-3.37-2.89-1.4-.33-3.31,0-4.14,1.17-1.2,1.69.3,4.53,1.52,7,2.25,4.6,3.4,9.71,5.87,14.2,5,9.08,3.57,10.07,12.68,30,6.43,14.07,9.65,21.1,14.76,29.52a111.58,111.58,0,0,1,8.33,15.33,76.25,76.25,0,0,1,5.24,16.55c.9,4.86,1.35,7.28,1.15,9.19s-.67,3.51.22,5.15c.82,1.49,2.67,2.89,4.39,2.53,1.52-.32,2.3-1.87,3.05-3.34A13.89,13.89,0,0,0,92.14,126.44Z"/><path class="cls-1" d="M77.52,134c.66-1.88,1.07-4.3.49-9a46,46,0,0,0-1.94-8.79c-4.53-13-7.5-18.85-7.5-18.85-6.18-12.06-12.3-26-16.39-36.69C50.94,57.45,47.4,48,43,37.08c-2.72-6.75-4.27-8.77-6.37-13.16a40.15,40.15,0,0,0-4.94-7.65c-3-3.68-4.32-4-5.14-4a5.39,5.39,0,0,0-4.79,4,6.18,6.18,0,0,0,.48,3.81,13.59,13.59,0,0,0,3.36,5.12c1.43,1.37,4.53,5.91,10.73,15,3.09,4.54,4.81,8.14,8.24,15.32,4.26,8.9,4.67,11.24,9.88,24,1.41,3.45,8,19.51,12.76,32.43,1,2.8,3.66,10.13,2.82,15.1a25.91,25.91,0,0,0-.31,4.84c0,3.46.41,4.47,1,5.17.11.13,1.5,1.91,3.2,1.72C75.94,138.53,77,135.44,77.52,134Z"/><path class="cls-1" d="M19.93,11.11C20.19,9.77,19.29,8.6,18,7a12.06,12.06,0,0,0-5-3.91c-1.49-.58-3-1.17-4.09-.46-1.66,1.08-1.13,4.29-1,4.83.44,2.71,2.5,6.73,6.15,7.07C16.52,14.72,19.54,13.22,19.93,11.11Z"/><path class="cls-1" d="M13.56,23.79a4.91,4.91,0,0,0-3-2.34,8.07,8.07,0,0,0-4.55-.68A6.73,6.73,0,0,0,1.32,23.4c-1.33,2-1.55,5.17.1,6.69,1.39,1.28,3.47.77,6.5,0,2.28-.55,4.61-1.12,5.54-3.1A4.23,4.23,0,0,0,13.56,23.79Z"/><path class="cls-1" d="M49.53,79C45.7,70.35,44,67.9,40.93,59.6c-.27-.73-1.75-4.83-3.87-10.28A74,74,0,0,0,32,38c-4.4-7.59-7.08-8-7.81-8.11-1.39-.14-3.49.2-4.27,1.56-1.3,2.23,1.73,5.88,4.94,10.74,3.09,4.69,5.26,9.94,8.07,14.81A190.92,190.92,0,0,1,48.51,91.76c3.27,9.91,4.9,14.87,5.16,19.63C54,117,55.58,122.52,56,128.14c.11,1.26.31,4,2.35,5.68,1.49,1.18,3.92,1.75,5.35.78,1.76-1.19,1.57-4.4.79-9.09a97.84,97.84,0,0,0-4.69-18.28C52.66,89.19,55,91.4,49.53,79Z"/><path class="cls-1" d="M50.36,118.69c1.7-4.13-.23-7.86-3.55-16.42-2-5.11-5-13.29-7.36-20.25-1.76-5.18-2.72-8.35-5.48-12.19-1.74-2.42-2.53-2.78-3.87-5.22-1.66-3-1.41-4.26-3.34-10.53a38.53,38.53,0,0,0-3.25-8.16c-1.65-2.94-2.89-5.07-4.92-5.28s-4.45,1.62-5.3,3.78c-1.36,3.5,1.53,7.23,5.85,13.79C20.4,60.12,25.56,68,28.91,74.3c4.66,8.82,8.22,15.57,8,24.32a81.12,81.12,0,0,0,0,12.21c.59,6.25,1.72,8.72,3.61,10.32.65.55,3.15,2.48,5.8,1.74S50,119.45,50.36,118.69Z"/><path class="cls-1" d="M59.8,146a7.38,7.38,0,0,0-.45-5.26c-.63-1.63-2.47-5.09-4.48-4.9s-3.55,4.4-3.52,7.59c0,2,.62,6.27,3.09,6.84C56.52,150.7,59,148.33,59.8,146Z"/><path class="cls-1" d="M46.12,139.21c2.15-2.26,1.47-5.86-.18-7.92-1.29-1.61-3.71-3-5.8-2.3-3.34,1.06-5.11,7.07-2.37,10C39.7,141.1,43.84,141.61,46.12,139.21Z"/></g></g></g></svg>