<svg xmlns="http://www.w3.org/2000/svg" xmlns:xlink="http://www.w3.org/1999/xlink" viewBox="0 0 53.41 39"><defs><style>.cls-1{fill:url(#linear-gradient);}.cls-2{fill:#717f96;opacity:0.5;}</style><linearGradient id="linear-gradient" x1="225.4" y1="292.97" x2="270.61" y2="292.97" gradientTransform="matrix(-0.8, 0.6, -0.6, -0.8, 401.54, 106.67)" gradientUnits="userSpaceOnUse"><stop offset="0"/><stop offset="0" stop-color="#dd9246"/><stop offset="0" stop-color="#da9045"/><stop offset="0" stop-color="#b6763c"/><stop offset="0" stop-color="#b6773e"/><stop offset="0" stop-color="#b57945"/><stop offset="0" stop-color="#b47e50"/><stop offset="0" stop-color="#b28561"/><stop offset="0" stop-color="#b08d77"/><stop offset="0" stop-color="#ad9893"/><stop offset="0" stop-color="#a9a4b3"/><stop offset="0" stop-color="#a5b3d7"/><stop offset="0" stop-color="#a1c2ff"/><stop offset="0.65" stop-color="#7dbcb9"/><stop offset="1" stop-color="#7dbcb9"/></linearGradient></defs><title>Lysos_1</title><g id="Layer_2" data-name="Layer 2"><g id="Lisos"><path class="cls-1" d="M51.91,19.55A32.53,32.53,0,0,0,45.42,10a34.46,34.46,0,0,0-7.21-6.28A23.66,23.66,0,0,0,27.27.15,24.16,24.16,0,0,0,14.11,2.44,28.78,28.78,0,0,0,4,10C.88,13.52.41,15.81.25,16.84a14.6,14.6,0,0,0,1.56,9.8c3.14,5.65,9.1,8,10.43,8.49a14.93,14.93,0,0,0,2.89.82c11.94,2.25,17.92,3.38,23.3,3,6.89-.52,10.33-.78,12.61-3.83C53.59,31.66,54.38,25.64,51.91,19.55Z"/><path class="cls-2" d="M46.84,30.73a6.61,6.61,0,0,1-4.26,1.12,8.92,8.92,0,0,0,2.93-2.22,7,7,0,0,0,1.9-3.7,9.93,9.93,0,0,0,.08-2.44A17.88,17.88,0,0,0,46.21,18a12.51,12.51,0,0,1,1.25,1.43,13.2,13.2,0,0,1,1.38,2.44A8.4,8.4,0,0,1,49.22,27,6.38,6.38,0,0,1,46.84,30.73Z"/><path class="cls-2" d="M13.83,30.77a20,20,0,0,1-2.15-1.38,22.06,22.06,0,0,1-1.89-1.54c-.6-.54-1.51-1.42-1.7-1.6-.79-.77-.94-.93-1.24-1.06-.6-.27-1.41-.25-1.54.3-.18.73.94,1.86,1,2a4,4,0,0,0,1.17.8C8.68,28.76,10.92,29.68,13.83,30.77Z"/></g></g></svg>