<svg xmlns="http://www.w3.org/2000/svg" viewBox="0 0 53.66 71.44"><defs><style>.cls-1{fill:#f9e5aa;stroke-width:3px;}.cls-1,.cls-2{stroke:#bc4d22;stroke-miterlimit:10;}.cls-2{fill:#ff6888;}</style></defs><title>Mitoh</title><g id="Layer_2" data-name="Layer 2"><g id="Mit"><g id="Layer_3" data-name="Layer 3"><path class="cls-1" d="M15.06,69.9c2.25-.22,3.87-1.19,6-2.47a24.58,24.58,0,0,0,4.48-3.52,27.27,27.27,0,0,0,4.86-6.59,39.58,39.58,0,0,0,2.35-6.08c1.54-4.58,1.63-5.21,2.34-7.4a45.15,45.15,0,0,1,5-10.17A62.67,62.67,0,0,1,47,24.14a22.43,22.43,0,0,0,3.5-4.39,12.19,12.19,0,0,0,1.61-6.9,12.87,12.87,0,0,0-3.08-7C47.65,4.05,46.84,3,44.94,2.3a15.53,15.53,0,0,0-7.51-.59A22.51,22.51,0,0,0,32,3.38,27.3,27.3,0,0,0,25.21,7a35.85,35.85,0,0,0-2.76,2.7c-2.93,2.72-4.49,3.26-7.6,5.88A38.51,38.51,0,0,0,11,19.3a28.55,28.55,0,0,0-5.51,9.25,39,39,0,0,0-2.07,7.9C3,38.57,2.69,41,2.19,45.61a76.75,76.75,0,0,0-.67,11.11c.07,2.9.3,4,.8,5.2a11.79,11.79,0,0,0,5.55,6A12.09,12.09,0,0,0,15.06,69.9Z"/><path class="cls-2" d="M29.6,18.59c-.52-.07-.39-.09-.83-.14-2.27-.24-3.33.73-6.55,1a35.28,35.28,0,0,1-5.9,0c-3.71-.21-3.93-.64-4-.76-.17-.49.87-1.26,2-1.51s1.65.22,3.6.41c1.52.15,1.55-.12,5.65-.36,2.25-.12,2.9-.08,3.08-.35.32-.46-1.06-1.52-2.74-2-1.51-.41-2.45-.12-3.85-.76-.57-.26-1.39-.75-1.2-1s1.87-.16,2.78,0a16.4,16.4,0,0,1,4.59,1.51,32.88,32.88,0,0,0,4.21,1.64c4.15,1.12,6.18-1.13,10.7-.46,4.1.61,5.35,2.88,7.89,2.26.9-.22,1.78-.78,1.88-1.36.21-1.24-3.33-2.21-4.57-2.55a33.07,33.07,0,0,0-7.77-.94c-4-.18-4.34.1-7.81-.18l-5.29-.64c-3.48-.42-4.65-.58-4.64-.84S22,11.06,22.79,11a11,11,0,0,1,3.14.23c1.49.21,1.78.08,3.69.19,4.81.29,5.64,1.3,7.52.73,1.47-.44,2.69-1.57,2.46-2.37S38,8.69,35.11,8.08c-3.3-.71-5.31-.75-6.18-1.82-.09-.12-.45-.56-.18-.8s1.4-.16,2.34,0a23.49,23.49,0,0,1,6.65,2.15c3.33,1.84,3,2.89,6,3.91.75.25,1.56.44,3.19.82,2.45.58,3.68.86,4.17.59.9-.49.55-2.38-1-3.55s-2.77-.63-5.85-1.84c-2.58-1-2-1.47-4.32-2.21a23.49,23.49,0,0,0-6.21-1c-1.5,0-2.17.16-2.35-.09-.45-.61,2.92-3,4.89-2.66,1,.18.72.85,1.95,1.9S41,4.94,44.15,5.85c2.72.8,3,.65,4.34,1.25A8.48,8.48,0,0,1,52,9.6c.46.66,1,1.79.11,5a26.31,26.31,0,0,1-3,6.5c-4.07,7.06-5.4,7.22-5.81,7.2-1,0-.82-1.19-2.72-1.83-1.65-.55-2.4.11-4.49-.34-1.63-.35-1.5-.82-4.28-1.84a7.15,7.15,0,0,0-3-.7c-2,.19-3.8,1.88-3.35,2.48.61.82,4.82-1.13,8.26.2,1.34.51,1.67,1.1,3.72,1.74,1.56.49,1.94.28,2.63.73,1.46.94,1.28,2.9.51,3.14-.45.14-.82-.39-2.35-1-2.1-.88-2.82-.48-4.31-1.18-2.1-1-1.78-2.32-3.11-2.39S28,28.24,28.09,29c0,.51.65.46,1.8,1.54s1.27,1.49,2.52,1.93a27.88,27.88,0,0,0,5.35,1.29,2.88,2.88,0,0,1,1.48.39c1,.81-.08,3.06-2.22,3.76a6.64,6.64,0,0,1-3.57-.05c-2.73-.64-2.71-2-5.48-2.7-.28-.07-2.86-.72-3.79,0s.2,2,.31,2.2c.65.88,1.69,1.34,3.77,2.26a13.09,13.09,0,0,0,3.11,1.13c.95.17,1.58.15,3.16.46s1.86.52,1.95.64c.4.54-.35,1.22-.93,2.08-.73,1.1-.52,1.5-1,3.66-.77,3.45-2.12,6.09-2.34,6.07s.35-.91-.28-1.83a3.37,3.37,0,0,0-2.12-1.3c-1.37-.28-1.88.33-3.11.06s-1.2-1.11-2.7-1.46a3.44,3.44,0,0,0-2.43.14c-.6.52.14,1.87,1.55,2.39s2.16-.15,4,.3a5.64,5.64,0,0,1,2.57,1.33c.84.73,1.72,2,1.11,2.42s-1.63,0-2.46-.15a10.69,10.69,0,0,1-2.42-.89c-3.94-2-4.29-2.14-4.77-2.32a15.51,15.51,0,0,0-3.43-1c-2-.31-4.23-.26-4.34,0s1.64.22,3.33,1.11c1.53.8,1.2,1.36,2.59,2.31,1.11.77,2.48,1.12,5.24,1.8,3.07.77,4.21.76,4.58,1.45s-.46,1.91-1.37,2c-1.08.16-1.67-.95-4-2.09a18.43,18.43,0,0,0-5.31-1.55A31.58,31.58,0,0,0,11,56.27c-2.75.14-6.13.31-6.39,1s3,1.75,4.91,2.17a18.07,18.07,0,0,0,5.8.47c2.25-.22,3.23-.74,5-.45a7.48,7.48,0,0,1,2.19.84c1.31.65,1.46,1.05,2.57,1.33s1.49.09,1.7.36-.36.74-1.16,1.89-.5,1.11-1.07,1.8a8.38,8.38,0,0,1-2.28,1.84,11.07,11.07,0,0,1-4.08,1.7c-.47.08-1.1.15-5-.36C9,68.36,8.26,68.1,7.87,68c-1.77-.7-3.44-1.94-3-2.48a2.27,2.27,0,0,1,1.76-.3c1.11.21,1,1.08,1.91,1.85,1.62,1.41,5.13,1.27,6.91,1.2a13.26,13.26,0,0,0,4.63-.89c.88-.37,2.1-.88,2.29-1.72a1.61,1.61,0,0,0-1.27-1.74c-1.44-.43-2.5.69-5.48,1a19.56,19.56,0,0,1-5.6-.39c-2.3-.37-2.49-.68-4.53-.85s-3.23,0-3.37-.29,1.2-1.07,2.55-1.42c5-1.28,9.63,3,12.56,1.67.93-.42,1.51-1.32,1.19-1.79-.74-1.09-6,.6-10.84-.88a10.78,10.78,0,0,1-3-1.44,6.29,6.29,0,0,1-1.84-1.91c-.59-1-1.1-2.55-.37-2.86.37-.15.71.17,2,.41a13.92,13.92,0,0,0,3.24.16c1.75-.14,1.8-.58,3.28-.74,2.63-.3,4.19.9,4.82.45.4-.28-.08-1.07-.69-1.57-1-.79-2.36-.91-5-1.16a18,18,0,0,0-5.08,0c-1.56.26-2.06.62-2.72.42C.85,52.22.8,49.79,2,49.34s3,.84,3.17.68S2.35,48.26,2.69,47.9s4,1,9.7,1.51c5,.5,5.89-.15,6.14-.37a1.59,1.59,0,0,0-.32-2.35c-1.51-1.3-4.16-.15-6.72-1.39C9.28,44.24,9.75,42.68,8,42.49c-2-.23-4,1.8-4.88,1.4S3,41.76,3,41.76a36.9,36.9,0,0,1,5.71-1,16,16,0,0,1,5.16.43c2.38.65,2.21,1.51,5.57,3.8,1.4.95.52.18,6.55,3.41,1.55.84,2.62,1.43,3.89,1.21s2.22-1,2.08-1.6-1.48-.68-3.22-1.19a19.07,19.07,0,0,1-5.25-2.64c-3.53-2.2-2.64-2.81-5-3.85a15.76,15.76,0,0,0-7.35-1.27c-6.31.47-6.64.52-6.64.52a2.64,2.64,0,0,1-1.56-.08c-.78-.42-.65-1.74.34-2.4.78-.54,1.52-.26,3.26-.82,1.5-.48,1.46-1,2.35-1.1,1.33-.19,2.18.66,4,1.59,2.42,1.19,3.17.84,5.46,1.8s2,1.56,5.17,3.82c1.93,1.38,5.93,4.24,8.9,3.65C32.75,46,34.87,45.59,35,45a.22.22,0,0,0,0-.06c0-.68-3.23-1.54-4.41-1.92-2.35-.74-3.67-1.8-5.77-3.48a27.49,27.49,0,0,1-3.17-3.06c-2.43-2.62-2.5-2.63-3.17-3-.18-.11-4.38-2.69-7.11-1.74-1.38.47-2.12,1.75-4.76,2.29h0c-1,.16-1.4.23-1.77.08-1.73-.69-.35-5,1.85-5.43,1-.2,1.54.64,3.63.78,1.67.12,2.33-.38,3.63-.47,2.58-.18,3.46,1.47,6.86,3.08,4.08,1.94,5.21.71,9.81,2.76,3.17,1.42,4.55,2.86,5.9,2.44.9-.28,1.46-1.28,1.06-1.8s-1.33-.46-2.16-.55L35,34.77a14,14,0,0,1-4.89-2.28c-3.44-2.83-5.15-4.25-6-4.56-2.07-.77-4.41-.72-9.07-.61-5,.12-7.34.73-8.26-.15a1.58,1.58,0,0,1,.79-2.44c1-.38,1.8.49,4.18.73,1.9.2,2.06-.28,5.41-.48s4.58.19,5.64-.51c.67-.45,1.13-1.24.74-1.63-.74-.73-3.55.92-7,.26-1.9-.36-2.57-1.16-4.54-1-1,.08-1.64.36-2.11.12-.71-.37-.51-1.67.37-2s1.61.25,3.4.66c1.6.36,3.37.31,6.92.19s4.23-.49,6.22-.19a23.49,23.49,0,0,1,3.23.89c3.42,1.07,3.41,1.35,5.48,1.89a28.32,28.32,0,0,0,5.87.81,7.26,7.26,0,0,0,3.1-.21,3.08,3.08,0,0,0,2.16-2c.18-1.18-1.36-2-2.42-2.56-.57-.3-4.74-2.5-9.16-1.63A15.42,15.42,0,0,1,29.6,18.59Z"/></g></g></g></svg>