<svg xmlns="http://www.w3.org/2000/svg" viewBox="0 0 75.61 80.58"><defs><style>.cls-1{fill:#a6a6e2;stroke:#5252b5;stroke-miterlimit:10;stroke-width:0.19px;}.cls-2{fill:#bbbbef;}</style></defs><title>Nulc</title><g id="Layer_2" data-name="Layer 2"><g id="Layer_18" data-name="Layer 18"><g id="Nucl"><path class="cls-1" d="M75.51,40.27c0,22-13.63,43-37.7,39.92-15.27-1.93-28.05-10.3-34.05-23A44,44,0,0,1,1.81,52.1a32.57,32.57,0,0,1-1-4.67,33.11,33.11,0,0,1-.66-7v-.2a45.52,45.52,0,0,1,7.32-24.5C13.63,7.45,23.78,2,37.81.35,58.46-2.14,75.51,13.68,75.51,40.27Z"/><path class="cls-2" d="M59.35,10.83a2.33,2.33,0,0,0-1.53,2.42c.18.59.78.56,2.47,1.44,1.92,1,2.46,1.73,2.94,1.45s.49-1.57.23-2.41C62.92,12,60.92,10.26,59.35,10.83Z"/><path class="cls-2" d="M64.42,20.34c.38.73.71,1.38,1.3,1.44a1.4,1.4,0,0,0,1.41-1.2c0-1.06-2.67-1.95-3.06-1.45C63.91,19.33,64.13,19.76,64.42,20.34Z"/></g></g></g></svg>