<svg xmlns="http://www.w3.org/2000/svg" viewBox="0 0 13.15 12.71"><defs><style>.cls-1{fill:#efe6a3;}.cls-2{fill:#f7f4e8;}.cls-3{fill:#f7f4d2;}</style></defs><title>Rybos</title><g id="Layer_2" data-name="Layer 2"><g id="Nucl"><g id="Layer_15" data-name="Layer 15"><path class="cls-1" d="M.15,4.9a6.68,6.68,0,0,0,1.07,5.31,6.74,6.74,0,0,0,6.65,2.37,6.79,6.79,0,0,0,4.93-4,6.57,6.57,0,0,0-.74-5.64A6.8,6.8,0,0,0,8,.15c-.21,0-3.86-.82-6.24,1.64A6.16,6.16,0,0,0,.15,4.9Z"/><path class="cls-2" d="M4,1.08c-.11-.13-1.22.4-2,1.41S.61,5.08,1.14,5.59a.7.7,0,0,0,.66.16c.21,0,.47-.24,1.07-2.11a11.35,11.35,0,0,1,.37-1.15C3.65,1.56,4.12,1.17,4,1.08Z"/><path class="cls-2" d="M6.11.55c0,.2-1.46.64-1.55.47s.29-.41.68-.53S6.1.45,6.11.55Z"/><path class="cls-3" d="M7.29,11.89a2.2,2.2,0,0,0,1.55-.07A4.56,4.56,0,0,0,10.59,11a3.46,3.46,0,0,0,1.16-1.39c.25-.59.37-1.36.16-1.46s-.43.41-1.29,1a9.64,9.64,0,0,1-1.12.68,14.54,14.54,0,0,1-1.67.89c-.71.31-1.07.37-1.09.59S7.25,11.87,7.29,11.89Z"/></g></g></g></svg>