<svg xmlns="http://www.w3.org/2000/svg" viewBox="0 0 119.72 107.38"><defs><style>.cls-1{fill:#c2d2fa;stroke:#d0e5e7;stroke-miterlimit:10;stroke-width:4px;}.cls-2{fill:#dae4fc;}</style></defs><title>Vakuol</title><g id="Layer_2" data-name="Layer 2"><g id="Vakuol"><g id="Layer_9" data-name="Layer 9"><path class="cls-1" d="M31.48,101.56c11.44-7.81,11.28-8.1,11.28-8.1C56.15,83.32,64.45,77.35,75.19,69.11c9.6-7.37,21-16.16,33.9-26.15a26.15,26.15,0,0,0,8-13.85,27.19,27.19,0,0,0,.47-8.45c-.16-1.54-.88-7.89-4.8-12.68C105.89-.42,94.45,2.44,94,2.58L48.3,10.33a56.32,56.32,0,0,0-15.52,7.16C29.54,19.63,17.42,28.1,9.3,45.73,5.37,54.26.43,65,2.48,78.79A46.67,46.67,0,0,0,12.7,101.52a14.07,14.07,0,0,0,7.76,3.83,12.51,12.51,0,0,0,4.47-.64A23.41,23.41,0,0,0,31.48,101.56Z"/><path class="cls-2" d="M13.4,60c-1.58,0-4.11,10.36-2.21,19.88.57,2.85,2,10,6.61,12.13a5.8,5.8,0,0,0,5.41,0c1.13-.66,3-2.31,2.9-4.2-.11-2.83-4.43-2.47-7.92-7-2.09-2.72-5-8.7-4.17-14.31.26-1.68,1.13-5-.13-6.22A.75.75,0,0,0,13.4,60Z"/><path class="cls-2" d="M33.1,83.34a3.67,3.67,0,0,0,1.58,3c1.59,1.19,4.24,1,5.15-.93A4.23,4.23,0,0,0,39,81C37.16,79.21,33.38,81.13,33.1,83.34Z"/><path class="cls-2" d="M45.77,76.11c-.47.4-1,1.24-.79,1.86s1.4.88,2.18.47,1.48-1.69,1.19-2.33S46.62,75.38,45.77,76.11Z"/><path class="cls-2" d="M95.28,10.78c.43-1.75,6.33-2.22,10.5.7a9.48,9.48,0,0,1,4,5.6c.21,1,.44,2,0,2.57-1.36,1.79-7.49-2.43-8.72-3.27C98.14,14.4,94.93,12.19,95.28,10.78Z"/></g></g></g></svg>