<svg id="Слой_1" data-name="Слой 1" xmlns="http://www.w3.org/2000/svg" viewBox="0 0 600 785"><defs><style>.cls-1{fill:#c7fffc;}.cls-2{fill:#d2fdff;}.cls-3{fill:#d7f7ff;}.cls-4{fill:#90ba9e;}.cls-5{fill:#80aa95;}.cls-6{fill:#95c2f9;}.cls-7{fill:#7bb5ef;}.cls-8{fill:#6998d1;}.cls-9{fill:#5d81c1;}.cls-10{fill:#cbe6fb;}.cls-11{fill:#78b1da;}.cls-12{fill:#73aac9;}.cls-13{fill:#b3cde3;}.cls-14{fill:#d4e5fd;}.cls-15{fill:#d3e6fb;}.cls-16{fill:#b0cee6;}.cls-17{fill:#c6e7fd;}.cls-18{fill:#a2d7fb;}.cls-19{fill:#ceecfc;}.cls-20{fill:#a4d8fc;}.cls-21{fill:#95c6a8;}.cls-22{fill:#7ab1da;}.cls-23{fill:#fff;}.cls-24{fill:#689687;}.cls-25{fill:#abd8c0;}.cls-26{fill:#707070;}</style></defs><title>cold_ocean</title><path class="cls-1" d="M384.85,106.75c1.79,1.83,3.63,3.74,5.48,5.71,2.64,2.8,5.36,5.73,8.11,8.79s5.78,6.44,8.72,9.85c7.92,9.11,16.1,19.05,24.29,29.59l.87,1.12h0c1.43,1.86,2.88,3.74,4.32,5.63,1.05,1.38,2.1,2.79,3.14,4.2q2.15,2.88,4.29,5.81l.09,0c4-.75,8.79,1.69,13.47,6.55l.49.17c9.51,2.92,19.17-5.88,49-31.2,13.62-11.54,15.18-13,17.55-17,4.58-7.71,7-17.95,6.08-33.16-.6-9.89.56-21.41,7.89-27.28,10-8,19.11-18.41,27.77-29.6a2.79,2.79,0,0,1,.46-.45c0-.08,0-.15,0-.22.94,0,2.64-7.85,3.58-7.83,12.92,4.9,20.24,23.47,26.53,38.1,1,2.35,2,4.69,3,7V0H246.14l5.44,3.53C292.81,30.46,341.41,62.21,384.85,106.75Z"/><path class="cls-1" d="M594.4,344.46c-.38-.25-.76-.5-1.14-.77l-.49-.44A6.52,6.52,0,0,0,594.4,344.46Z"/><path class="cls-1" d="M539.84,202.32l.09-.07-.07-.06S539.85,202.27,539.84,202.32Z"/><path class="cls-2" d="M65.24,202.61c.46-1,1-1.93,1.5-2.85a5.24,5.24,0,0,0,.68-1.85l4.26-27.33a5,5,0,0,1,.41-1.3c-2.53-3.94-1-9.62.34-15.19,2.94-12.33,9.94-22,8.65-37.22-.54-6.3,2.54-10.42,6.63-11.08,6.08-1,11.94,5.23,13.09,11.82,3.2,18.18,7.72,35.35,12.08,52.71,2.54,12.34,4.54,24.9,6.41,37.51a43.88,43.88,0,0,1,4.07,5.55,23.39,23.39,0,0,1-.12,3,6.65,6.65,0,0,1,.92.52c6.14,7.1,3.85,14.32,1.64,21.63q5.58,3.55,11.21,7.23l1.86,1.22a66,66,0,0,1,9.87-4.83c8.22-2.8,13.93-8.28,14.18-23.61.14-8.24,2.54-16.72,7.63-18.59,9.59-3.54,10.68-15.07,12.12-27.22,1-8.44,1.3-2.51,4-10,2.61-7.36,3.4-22.6,9.87-18.72,5.39,3.22,4.39,13.85,5.45,7.15,1-6.47,0-1,.68,1.36.74-27,19.24-29.26,19.55-56.92l.14,0q-.18-14.34-.37-28.67l1.14-.09c0-.27,0-.54,0-.82,5.5-7,11-3.33,16.49,3.42,12,14.59,21,23.48,40.71,37.09l8.51,41.62c5.86,16.57,16.08,29.27,18.81,48.7a.35.35,0,0,1,.25-.1c3.25,4.09,5.7,15.07,8,20.37,1.88-3.43,3.14-8.48,5.34-11.31,1.39-3,3-4.86,5.08-5.15,4.89-.69,6.81,8.48,21.95,22.47,6.86,6.33,11.44,10.48,18.9,13.27,3.65,1.38,5.1,1.34,22.46,4.09,3.52.56,6.37,1,8.7,1.44a154.11,154.11,0,0,0,26.24-45.35A43.14,43.14,0,0,1,434,184.07c2.69-2.45,6.46-5.89,10.12-6.61q-2.15-2.93-4.29-5.81c-1-1.41-2.09-2.82-3.14-4.2-1.44-1.89-2.89-3.77-4.32-5.63h0l-.87-1.12c-8.19-10.54-16.37-20.48-24.29-29.59q-4.41-5.11-8.72-9.85c-2.75-3.06-5.47-6-8.11-8.79-1.85-2-3.69-3.88-5.48-5.71-43.44-44.54-92-76.29-133.27-103.23L246.14,0H0v169.3c16.58,7.8,34.61,16.77,53.77,27.07Q59.44,199.4,65.24,202.61Z"/><path class="cls-3" d="M31,282.27c9-43.88,9.75-45,23.77-33.93,2.34-10.91,3.5-22.84,6.71-33a50,50,0,0,1,3.72-12.69q-5.79-3.2-11.47-6.25C34.61,186.06,16.58,177.09,0,169.29V281.7C10.56,294.16,20.89,281.27,31,282.27Z"/><path class="cls-3" d="M125.79,251.57c4.69-.23,8.94-2.31,13.08-4.57L137,245.78q-5.64-3.67-11.21-7.23c-.47,1.57-.94,3.15-1.32,4.73C124.9,246,125.34,248.81,125.79,251.57Z"/><path class="cls-4" d="M327.15,398.61l11.41-.14c-.34-.26-.68-.54-1-.83A40.24,40.24,0,0,0,327.15,398.61Z"/><path class="cls-4" d="M265.35,439.41h0l1.8-.41h0c2.36-.54,4.76-1.08,7.22-1.62,0,0,0,0,.05,0l.81-.17h0l3.64-.8c-5.17.92-10.81,1.91-16.14,2.84Z"/><path class="cls-5" d="M189.62,482.8c27.2-5.08,63.39-12.55,106-23.43h0l7.1-1.29c8.71-1.54,25.36-4.37,48.37-7,13-1.48,28-2.89,44.7-4h0a977,977,0,0,1,116.82-.47h.07c15.15.85,30.83,2.08,47,3.8h.09c13.1,1.39,26.53,3.11,40.18,5.17V434.09c-17.69-3.6-33.07-5.94-45.46-7.52q0,5.3,0,10.62c-3.74,2.17-5.58,1.11-5.5-5.92,0-1.79,0-3.58.07-5.37-36.48-4.3-65.2-4.34-105.9-4.38-23.14,0-40.91,0-57.45,1.53,0,0-23.43,2.24-36.63,2.91l-7.21.42c-1.81.11-4.09.26-7.17.51-9,.72-36.73,6.12-36.73,6.12l-.32.05c-.22,0-8.54,1.52-18.74,3.31l-3.64.8h0l-.81.17s0,0-.05,0c-2.46.54-4.86,1.08-7.22,1.62h0l-1.8.41h0l-2.59-.2c-6.86,1.21-13.19,2.31-17.23,3-3.47.59-7.87,1.32-29.87,4.6-16.93,2.52-29.23,4.31-38.68,5.67,0,6.71-.1,13.46-.1,20.25-4,2.35-6,1.2-5.92-6.43,0-4.32.12-8.65.17-13-13.72,2-20.7,2.91-29,4.21-9.86,1.55-16.71,2.86-47.09,9.59,0,8.09-.11,16.21-.11,24.37-5,3.43-7.38,1.76-7.28-9.37,0-1.38,0-2.77,0-4.15,0-.88-.06-1.81,0-2.85,0-2.12,0-4.25.07-6.37l-25.25,5.63c-14,3.14-28.25,5.47-42.13,9.19-7.59,2-14.16,4-20.34,5.59v33.47c24.81-7.17,58-15.87,97.7-23.74C133.2,491.84,150.28,490.14,189.62,482.8Z"/><path class="cls-6" d="M148.71,502.69c84.93-10.53,98-23.95,177.12-37.74,6.09-1.06,16.7-2.85,31.11-4.67A837.52,837.52,0,0,1,600,466V455.63c-13.65-2.06-27.08-3.78-40.18-5.17h-.09c-16.15-1.72-31.83-2.95-47-3.8h-.07a977,977,0,0,0-116.82.47h0c-16.74,1.07-31.74,2.48-44.7,4-23,2.62-39.66,5.45-48.37,7l-7.1,1.29h0c-42.63,10.88-78.82,18.35-106,23.43-39.34,7.34-56.42,9-91.92,16.08C58,506.75,24.81,515.45,0,522.62v18.82c20.33-11.15,40.82-16,58-19.89C107.47,510.34,132.23,504.73,148.71,502.69Z"/><path class="cls-6" d="M0,785H162C90.73,763.34,34.93,732.93,0,701.54Z"/><path class="cls-7" d="M158.31,513.26c80-8.37,92.29-19,166.78-29.95,7.48-1.11,22.16-3.18,42.54-5,50.28-4.55,135.25-7.7,232.36,8.43V466a837.52,837.52,0,0,0-243-5.7c-14.41,1.82-25,3.61-31.11,4.67-79.11,13.79-92.19,27.21-177.12,37.74-16.48,2-41.24,7.65-90.76,18.86C40.82,525.43,20.33,530.29,0,541.44v12.75c24.73-16.49,51.54-21.88,72.83-26C119.47,519.33,142.78,514.88,158.31,513.26Z"/><path class="cls-7" d="M600,735.2c-24.61,5.47-53.79,9.7-89.34,14.73-60.21,8.51-131.67,18.08-231.42,7-90.51-10.07-165.62-32.84-218-59.43C34.65,684,13.93,669.52,0,655.22v46.32c34.93,31.39,90.73,61.8,162,83.46H600Z"/><path class="cls-8" d="M61.23,697.49c52.38,26.59,127.49,49.36,218,59.43,99.75,11.09,171.21,1.52,231.42-7,35.55-5,64.73-9.26,89.34-14.73V692.73c-25.06,5.48-55.64,9.2-94.52,13.76C450.19,713,384.59,720.3,293,711.83,262.9,709,234.63,705,208.55,700h0C114.05,681.82,48.14,651.17,26,623.38c-6.25-7.83-22.14-27.77-13.4-45.75,1.82-3.75,5.19-8.42,15.32-15.25a129.15,129.15,0,0,1,29.86-14.72h0c16.12-5.65,32.14-8.28,45.71-10.45l7.09-1.11.08,0c38.1-6.05,57.88-9.14,71.31-10.3,73.42-6.39,84.73-14.52,153.13-22.87,7.37-.91,22.43-2.66,43.43-4.14a1038,1038,0,0,1,144.08,0h0c24.5,1.72,50.47,4.45,77.31,8.53v-20.6c-97.11-16.13-182.08-13-232.36-8.43-20.38,1.83-35.06,3.9-42.54,5-74.49,10.93-86.81,21.58-166.78,29.95-15.53,1.62-38.84,6.07-85.48,15-21.29,4.08-48.1,9.47-72.83,26v101C13.93,669.52,34.65,684,61.23,697.49Z"/><path class="cls-9" d="M522.63,498.79a1038,1038,0,0,0-144.08,0c-21,1.48-36.06,3.23-43.43,4.14-68.4,8.35-79.71,16.48-153.13,22.87-13.43,1.16-33.21,4.25-71.31,10.3l-.08,0-7.09,1.11c-13.57,2.17-29.59,4.8-45.71,10.45h0a129.15,129.15,0,0,0-29.86,14.72c-10.13,6.83-13.5,11.5-15.32,15.25-8.74,18,7.15,37.92,13.4,45.75,22.14,27.79,88.05,58.44,182.53,76.58h0c26.08,5,54.35,9.08,84.47,11.87,91.57,8.47,157.17,1.16,212.45-5.34,38.88-4.56,69.46-8.28,94.52-13.76V507.33c-26.84-4.08-52.81-6.81-77.31-8.53Z"/><path class="cls-10" d="M326.38,203.9c1.19,2.56,2,12.47,2.22,15.32,1.87,8.51,1.13,8.26,1.77,15.78.69,8,1.86,15.88,6.41,20.07,12.23,11.23,24.47,25,38.47,5.27,2-2.79,5.09-3.84,7-4.86,1.82-1.37,4.09-1.83,5.91-3.19a95.26,95.26,0,0,0,10.15-10.35c-2.33-.42-5.18-.88-8.7-1.44-17.36-2.75-18.81-2.71-22.46-4.09-7.46-2.79-12-6.94-18.9-13.27-15.14-14-17.06-23.16-21.95-22.47-2.05.29-3.69,2.17-5.08,5.15C322.48,204.14,324.11,203.24,326.38,203.9Z"/><path class="cls-11" d="M585.79,231.14c-.39-3.16,1.27-9.42,2.06-14.36A29.52,29.52,0,0,1,584,220.5c-8.68,7.12-15.18,11.65-21.47,13.62.93,3.88,1.91,7.74,2.88,11.61,3.46,17,5,34.78,8.34,51.84v39.48h0c6.92-3.48,13.52-6.45,20.1.93,1.16,2.78-5.61-.58-1.39,4.95l.29.33.49.44c.38.27.76.52,1.14.77a22.18,22.18,0,0,0,5.59,1.85V239.93C592.77,242.07,587,246.09,585.79,231.14Z"/><path class="cls-11" d="M552.21,257.46a28.06,28.06,0,0,0-.59-6.57c0,5.7,0,11.4.08,17.11l.51,0Q552.2,262.71,552.21,257.46Z"/><path class="cls-11" d="M121,219.26c1.15,8,2.3,16,3.53,24,.38-1.58.85-3.16,1.32-4.73,2.21-7.31,4.5-14.53-1.64-21.63a6.65,6.65,0,0,0-.92-.52c0,.31,0,.62-.09.93Z"/><path class="cls-11" d="M42.53,414.63c-.11-4-.21-8-.35-11.93a5,5,0,0,0-.26-1.38c-4.22-13-2-25.93.21-38.35,2.83-16.21,5.21-32.54,6.92-49.17,0-.12,0-.24.05-.35,1.78-8.86.09-18.33,1.09-27.34a5,5,0,0,1,.23-1,167.18,167.18,0,0,0,7.2-37,2.87,2.87,0,0,1,.07-.5c2.15-10.29,2-21.85,3.83-32.33-3.21,10.2-4.37,22.13-6.71,33-14-11.09-14.8-10-23.77,33.93-10.15-1-20.48,11.89-31-.57V426C11.05,421.6,26.08,417.82,42.53,414.63Z"/><path class="cls-11" d="M86.69,375c.41.51.8,1,1.18,1.55l0-1.15A5.21,5.21,0,0,1,86.69,375Z"/><path class="cls-11" d="M96.65,384.73c.32-1.34.67-2.68,1-4a13.81,13.81,0,0,1-2.31-2.13c.2,2.38.42,4.78.68,7.2Z"/><path class="cls-11" d="M128.92,269.09V389.66a17.28,17.28,0,0,1,3.93.08,29.45,29.45,0,0,0,10.85-1,71.73,71.73,0,0,1,1.73-14.46c1.75-9.18,3.27-18.43,4.44-27.87a1.42,1.42,0,0,1,0-.2c1.07-5,.36-10.43,1-15.54a2.86,2.86,0,0,1,.13-.58,102.83,102.83,0,0,0,4.37-20.92c0-.09,0-.18.05-.28,2-8.93,1.23-19.68,5.51-27.09a3.19,3.19,0,0,0,.39-1q1.33-7.74,2.68-15.49a3,3,0,0,1,1-1.8l.2-.17c-.65-2.14.07-4.87.69-7.56,1.65-7,5.56-12.51,4.84-21.19-.3-3.59,1.42-5.94,3.71-6.31,3.4-.56,6.68,3,7.33,6.73,1.79,10.35,4.32,20.13,6.76,30,3.73,18.44,5.42,37.74,9,56.25v47.93c24-9.68,48-19.63,72.4-25.91,13.35-3.43,26.84-15.57,40.45-1.05h0C330.71,349.48,351,357,371.25,364c19.49,6.74,48.69,28,68.84,33.3l18.51-.21c.23-1,.49-1.91.72-2.89.89-.08,16.1-8.53,16.92-8.93q23.75-11.68,47.5-23.36c-.45-5.28.54-10.45,1.5-15.46,1.63-8.46,3-17,4.13-25.69l0-.18c1-4.62.34-9.61,1-14.32a3.49,3.49,0,0,1,.12-.54,94.4,94.4,0,0,0,4.07-19.27,2.34,2.34,0,0,1,0-.26c1.85-8.24,1.15-18.14,5.13-25a3,3,0,0,0,.36-1L542.58,246a2.82,2.82,0,0,1,.94-1.66l.18-.16c-.6-2,.07-4.48.65-7a82.34,82.34,0,0,1,2.78-8.34c-1.75-8.53-3.68-23.81-4.9-24.72-.78-.57-1.54-1.24-2.3-1.9l-.09.07c-.42,2.3-.92,4.57-1.53,6.81a2.3,2.3,0,0,1-.18.5c-4.43,9.21-9,17.13-17.5,11.94-2.48-1.51-4.73,1.15-6.16,4.88a2.83,2.83,0,0,1-.79,1.11c-8.64,7.56-7.94,26-14.62,36.05a2.7,2.7,0,0,1-3.76.75c-6.73-4.5-8.38-17.62-13.7-23.8a2.67,2.67,0,0,0-4.67,1.44.78.78,0,0,1,0,.16,2.65,2.65,0,0,1-5.29-.14c-.21-4.61.5-12.08.47-16.67,0-.29-1.36-1.23-3.09-.48a265.68,265.68,0,0,1-28.49,90.59,6.27,6.27,0,0,1-4.51-.07c-8.23-3.88,2-29.58-8.26-37-3.9-2.83-10.9-3.11-14.41-.28-2.77,2.23-2.79,5.92-6.78,8.19a11.07,11.07,0,0,1-5.25,1.38,77.25,77.25,0,0,1-4.79-8,80.66,80.66,0,0,1-8.39-27.36c-1.82,1.36-4.09,1.82-5.91,3.19-1.87,1-5,2.07-7,4.86-14,19.7-26.24,6-38.47-5.27-4.55-4.19-5.72-12.09-6.41-20.07-.64-7.52.1-7.27-1.77-15.78-.19-2.85-1-12.76-2.22-15.32-2.27-.66-3.9.24-5.2,1.92-2.2,2.83-3.46,7.88-5.34,11.31-2.31-5.3-4.76-16.28-8-20.37a.35.35,0,0,0-.25.1c.18,1.27.33,2.55.44,3.88-.92,8.91-.37,19.3-8.27,21.12-9.86,9-21.66,9.69-31.46,19.95-5.64,5.9-11.11-.56-11.07-12.88,0-15.11-3.79-27.11-8.17-39.64-5.75-16.48-10.76-33-11.3-53.31-.42-15.77-6.39-30-15.4-39.2,0-.39,0-.78,0-1.17l-.14,0c-.31,27.66-18.81,30-19.55,56.92-.65-2.34.34-7.83-.68-1.36-1.06,6.7-.06-3.93-5.45-7.15-6.47-3.88-7.26,11.36-9.87,18.72-2.67,7.53-3,1.6-4,10-1.44,12.15-2.53,23.68-12.12,27.22-5.09,1.87-7.49,10.35-7.63,18.59-.25,15.33-6,20.81-14.18,23.61a66,66,0,0,0-9.87,4.83c-4.14,2.26-8.39,4.34-13.08,4.57C126.76,257.44,127.78,263.29,128.92,269.09Z"/><path class="cls-11" d="M174.44,277.69a30.39,30.39,0,0,0-.64-7.13c0,6.18,0,12.37.08,18.56l.56,0C174.43,285.29,174.42,281.49,174.44,277.69Z"/><path class="cls-12" d="M470.9,205.65c-.43,6.55-1.08,12.94-1.9,19.22,1.73-.75,3.08.19,3.09.48,0,4.59-.68,12.06-.47,16.67a2.65,2.65,0,0,0,5.29.14.78.78,0,0,0,0-.16,2.67,2.67,0,0,1,4.67-1.44c5.32,6.18,7,19.3,13.7,23.8a2.7,2.7,0,0,0,3.76-.75c6.68-10,6-28.49,14.62-36.05a2.83,2.83,0,0,0,.79-1.11c1.43-3.73,3.68-6.39,6.16-4.88,8.48,5.19,13.07-2.73,17.5-11.94a2.3,2.3,0,0,0,.18-.5c.61-2.24,1.11-4.51,1.53-6.81,0,0,0-.09,0-.13a14.79,14.79,0,0,0-3.52-2.48,3.29,3.29,0,0,1-2-3.57c1.66-9.9,1.45-20.17,2.2-30.27.84-11.33.81-23.46,4.16-34a3.29,3.29,0,0,1,6.41.88c0,.08,0,.15,0,.22a3.28,3.28,0,0,0,6.15,1.38c4.63-8.41,10.58-15.14,8.69-27a76.74,76.74,0,0,1,2.74-36.23,3.21,3.21,0,0,1,3.13-2.31q-.36-2.72-.76-5.4c-.65-7,.24-10.14-.2-17.9a2.79,2.79,0,0,0-.46.45c-8.66,11.19-17.76,21.59-27.77,29.6-7.33,5.87-8.49,17.39-7.89,27.28.93,15.21-1.5,25.45-6.08,33.16-2.37,4-3.93,5.44-17.55,17-29.86,25.32-39.52,34.12-49,31.2l-.49-.17C462.41,189,467.11,196.45,470.9,205.65Z"/><path class="cls-13" d="M589,107.5c-2.31-16.46-7.75-35.66-14.59-49.69-2.92-6-3.88-13.23-3.94-20.37-.94,0-2.64,7.84-3.58,7.83,0,.07,0,.14,0,.22.44,7.76-.45,10.85.2,17.9q.4,2.69.76,5.4A3.22,3.22,0,0,1,571,71.15c5.23,17.93,9.74,36.25,10.87,56.4.25,4.62,1.62,9,4.22,10.24,13.33,6.43,13,21.68,11.43,38a3.28,3.28,0,0,1-4.2,2.84c-3.2-1-.15,17.4-2.34,23.9-1.49,4.06,2.33,7.79-3.15,14.28-.79,4.94-2.45,11.2-2.06,14.36,1.22,15,7,10.93,14.2,8.79V127.06a15.41,15.41,0,0,0-4.74-2.26C588.59,122.87,590.42,117.57,589,107.5Z"/><path class="cls-14" d="M570.47,37.44c.06,7.14,1,14.38,3.94,20.37,6.84,14,12.28,33.23,14.59,49.69,1.42,10.07-.41,15.37,6.25,17.3a15.41,15.41,0,0,1,4.74,2.26V82.57c-1-2.34-2-4.68-3-7C590.71,60.91,583.39,42.34,570.47,37.44Z"/><path class="cls-12" d="M388.12,252.29a80.66,80.66,0,0,0,8.39,27.36,77.25,77.25,0,0,0,4.79,8,11.07,11.07,0,0,0,5.25-1.38c4-2.27,4-6,6.78-8.19,3.51-2.83,10.51-2.55,14.41.28,10.23,7.43,0,33.13,8.26,37a6.27,6.27,0,0,0,4.51.07A265.68,265.68,0,0,0,469,224.87c.82-6.28,1.47-12.67,1.9-19.22-3.79-9.2-8.49-16.69-13.26-21.66s-9.43-7.3-13.47-6.55l-.09,0c-3.66.72-7.43,4.16-10.12,6.61a43.14,43.14,0,0,0-9.45,12.52,154.11,154.11,0,0,1-26.24,45.35A95.26,95.26,0,0,1,388.12,252.29Z"/><path class="cls-15" d="M232.53,90.79c1.28,6.34,1.67,12.26,6.35,14.52,10.84,5.24,13.72,18,12.83,34.84-.36,6.88-1.4,15.65,3.43,19.3,10.33,7.81,12.34,24.12,14.61,38.54,2,13,5.92,16.49,12.94,15.07,6.65-1.34,12.11,2.19,17.06,8.8,7.9-1.82,7.35-12.21,8.27-21.12-.11-1.33-.26-2.61-.44-3.88-2.73-19.43-12.95-32.13-18.81-48.7l-8.51-41.62C260.51,92.93,251.51,84,239.55,69.45c-5.52-6.75-11-10.39-16.49-3.42,0,.28,0,.55,0,.82l1.84-.14C227.55,74.69,230.83,82.33,232.53,90.79Z"/><path class="cls-16" d="M237.75,136c.54,20.29,5.55,36.83,11.3,53.31,4.38,12.53,8.22,24.53,8.17,39.64,0,12.32,5.43,18.78,11.07,12.88,9.8-10.26,21.6-10.91,31.46-19.95-4.95-6.61-10.41-10.14-17.06-8.8-7,1.42-10.9-2-12.94-15.07-2.27-14.42-4.28-30.73-14.61-38.54-4.83-3.65-3.79-12.42-3.43-19.3.89-16.8-2-29.6-12.83-34.84-4.68-2.26-5.07-8.18-6.35-14.52-1.7-8.46-5-16.1-7.59-24.08l-1.84.14-1.14.09q.19,14.34.37,28.67c0,.39,0,.78,0,1.17C231.36,105.93,237.33,120.21,237.75,136Z"/><path class="cls-17" d="M121,219.26l2.2-1.93c0-.31.06-.62.09-.93a23.39,23.39,0,0,0,.12-3,43.88,43.88,0,0,0-4.07-5.55Q120.13,213.54,121,219.26Z"/><path class="cls-18" d="M144.66,396.08a30.81,30.81,0,0,1-1-7.37,29.45,29.45,0,0,1-10.85,1,17.28,17.28,0,0,0-3.93-.08V403c6-.55,11.3-1,15.83-1.36,0-1.57,0-3.15,0-4.72A3,3,0,0,0,144.66,396.08Z"/><path class="cls-18" d="M180.11,384.78a9.1,9.1,0,0,1-3.26-5.19,118.74,118.74,0,0,0,.43,21.11h.2A78.81,78.81,0,0,1,180.11,384.78Z"/><path class="cls-18" d="M337.54,397.64c-3.13-2.72-6-6.66-8.42-12.3-.1-4.81-2-6.47-4.41-9-8.62-9-17.52-17.77-23.8-31.76,3.38-3.59,6.57-1.65,9.54-2.39h0c-13.61-14.52-27.1-2.38-40.45,1.05-24.45,6.28-48.4,16.23-72.4,25.91v32.17a171,171,0,0,0,24.33-1.49l105.22-1.21A40.24,40.24,0,0,1,337.54,397.64ZM279.48,397l2.62-.21C281.08,397.4,280.37,397,279.48,397Z"/><path class="cls-18" d="M168.27,381.87a25.41,25.41,0,0,1,3.16,6.62c0-2.35,0-4.63,0-6.83A2.93,2.93,0,0,1,168.27,381.87Z"/><path class="cls-19" d="M371.25,364c-20.3-7-40.54-14.52-60.8-21.81h0c-3,.74-6.16-1.2-9.54,2.39,6.28,14,15.18,22.78,23.8,31.76,2.43,2.53,4.31,4.19,4.41,9,2.46,5.64,5.29,9.58,8.42,12.3.34.29.68.57,1,.83l101.53-1.17C419.94,392,390.74,370.74,371.25,364Z"/><path class="cls-20" d="M554.47,351.4A109.44,109.44,0,0,0,555,372a69.89,69.89,0,0,1,2.49-15.87A8.32,8.32,0,0,1,554.47,351.4Z"/><path class="cls-20" d="M592.77,343.25l-.29-.33c-4.22-5.53,2.55-2.17,1.39-4.95-6.58-7.38-13.18-4.41-20.1-.93h0v55.41c-4.8-.88-9.66,3-14.42-.52-.23-4.78,2-7.19,3.66-10.09-1.75,1.75-2.54,5.57-5.85,6.58-.44-1.44-.81-2.87-1.11-4.31A43,43,0,0,0,554.36,396l7.08-.08L600,402.67V346.31a22.18,22.18,0,0,1-5.59-1.85A6.52,6.52,0,0,1,592.77,343.25Z"/><path class="cls-20" d="M543.68,382.34c-.72-1.5-1.59-3.46-2.73-6A13.1,13.1,0,0,0,543.68,382.34Z"/><path class="cls-20" d="M545.68,385.74a11,11,0,0,1,.85,3.91,2.78,2.78,0,0,1-2.23,2.86c-5.12,1-10.22-1.3-15.35-.82-3.39.32-4-4.6-4.23-9.16-.21-5.06-.09-10.16-.1-15.24a2.62,2.62,0,0,0-.1-.73,27.21,27.21,0,0,1-.78-4.65q-23.75,11.7-47.5,23.36c-.82.4-16,8.85-16.92,8.93-.23,1-.49,1.93-.72,2.89l90.19-1a53.49,53.49,0,0,0-1.49-9.4A2.32,2.32,0,0,1,545.68,385.74Z"/><path class="cls-20" d="M546.48,353.47a23.25,23.25,0,0,1,2.94,6.1c0-2.17,0-4.26,0-6.29A2.74,2.74,0,0,1,546.48,353.47Z"/><path class="cls-21" d="M165.26,413.2c-.77-1.63-1.71-3.76-2.93-6.55A14.21,14.21,0,0,0,165.26,413.2Z"/><path class="cls-21" d="M548.84,396.71c0-.22,0-.44-.05-.66l-90.19,1-18.51.21-101.53,1.17-11.41.14-105.22,1.21a171,171,0,0,1-24.33,1.49v22.87c-5.16-1-10.39,3.27-15.51-.57-.25-5.18,2.13-7.8,3.93-10.94-1.87,1.9-2.72,6.05-6.29,7.14-.47-1.56-.86-3.12-1.19-4.67A52.69,52.69,0,0,0,176.77,432c.22,6.79.24,13.61.21,20.45,9.45-1.36,21.75-3.15,38.68-5.67,22-3.28,26.4-4,29.87-4.6,4-.68,10.37-1.78,17.23-3,5.33-.93,11-1.92,16.14-2.84,10.2-1.79,18.52-3.27,18.74-3.31L298,433s27.7-5.4,36.73-6.12c3.08-.25,5.36-.4,7.17-.51l7.21-.42c13.2-.67,36.63-2.91,36.63-2.91,16.54-1.57,34.31-1.55,57.45-1.53,40.7,0,69.42.08,105.9,4.38C549.19,416.15,549.33,406.38,548.84,396.71Z"/><path class="cls-21" d="M62.47,474.37l25.25-5.63c.08-6.81.16-13.62.19-20.42v-.77a5.71,5.71,0,0,1-3.26,1.94c-10.56,2.15-21.31-1.84-31.93-.59-7,.82-8.67-8.52-9.36-17.19-.45-5.67-.66-11.37-.83-17.08C26.08,417.82,11.05,421.6,0,426v63.15c6.18-1.58,12.75-3.55,20.34-5.59C34.22,479.84,48.44,477.51,62.47,474.37Z"/><path class="cls-21" d="M170.81,428.79a58.73,58.73,0,0,0-1.66-10.91,2.52,2.52,0,0,1-1.74-1,12.13,12.13,0,0,1,.92,4.25,3,3,0,0,1-2.4,3.11c-5.5,1-11-1.42-16.51-.89-3.64.35-4.34-5-4.55-10-.16-3.92-.14-7.86-.12-11.81-4.53.36-9.88.81-15.83,1.36v46.93c-9.22-1.68-18.56,5.73-27.71-1-.44-9.1,3.8-13.7,7-19.22C104.89,433,103.37,440.29,97,442.2c-.63-2-1.17-4.09-1.65-6.13a4.47,4.47,0,0,1-.34.4c.06,5.33.07,10.67.06,16q0,7.31,0,14.62c30.38-6.73,37.23-8,47.09-9.59,8.3-1.3,15.28-2.25,29-4.21C171.22,445.11,171.22,436.92,170.81,428.79Z"/><path class="cls-21" d="M87.78,438.09c0-.33,0-.65,0-1-.22-.18-.45-.38-.68-.6C87.33,437,87.57,437.54,87.78,438.09Z"/><path class="cls-21" d="M82.7,430.14c-1.6-2.81-3.53-6.5-6-11.3C77.52,423.74,80.1,426.91,82.7,430.14Z"/><path class="cls-21" d="M177.28,400.7l.15,1.35c0-.45,0-.89,0-1.34Z"/><path class="cls-21" d="M554.36,396c0,1.2,0,2.43,0,3.71.29,8.91.21,17.86.15,26.88,12.39,1.58,27.77,3.92,45.46,7.52V402.67l-38.55-6.77Z"/><path class="cls-21" d="M282.1,396.81l-2.62.21C280.37,397,281.08,397.4,282.1,396.81Z"/><path class="cls-22" d="M564.74,71.1A76.74,76.74,0,0,0,562,107.33c1.89,11.85-4.06,18.58-8.69,27a3.28,3.28,0,0,1-6.15-1.38c0-.07,0-.14,0-.22a3.29,3.29,0,0,0-6.41-.88c-3.35,10.57-3.32,22.7-4.16,34-.75,10.1-.54,20.37-2.2,30.27a3.29,3.29,0,0,0,2,3.57,14.79,14.79,0,0,1,3.52,2.48l.07.06c.76.66,1.52,1.33,2.3,1.9,1.22.91,3.15,16.19,4.9,24.72a25.82,25.82,0,0,0,1.72-11.19c-.28-3.31,1.32-5.47,3.45-5.82,3.16-.51,6.21,2.75,6.82,6.21,1,5.48,2.14,10.79,3.41,16.05,6.29-2,12.79-6.5,21.47-13.62a29.52,29.52,0,0,0,3.85-3.72c5.48-6.49,1.66-10.22,3.15-14.28,2.19-6.5-.86-24.87,2.34-23.9a3.28,3.28,0,0,0,4.2-2.84c1.54-16.29,1.9-31.54-11.43-38-2.6-1.26-4-5.62-4.22-10.24-1.13-20.15-5.64-38.47-10.87-56.4a3.28,3.28,0,0,0-6.28-.05Z"/><path class="cls-23" d="M87.87,376.57l.18.26c0-.46,0-.92,0-1.38a1.08,1.08,0,0,1-.19,0Z"/><path class="cls-23" d="M96.05,385.78c-.26-2.42-.48-4.82-.68-7.2-.18-.21-.35-.44-.52-.66.19,3.63.47,7.33.82,11.09.31-1.42.63-2.85,1-4.28Z"/><path class="cls-23" d="M87.91,448.32c0,6.8-.11,13.61-.19,20.42,0,2.12,0,4.25-.07,6.37,0,1,0,2,0,2.85C87.81,468.09,88,458.19,87.91,448.32Z"/><path class="cls-23" d="M95.07,452.49c0-5.35,0-10.69-.06-16a1.09,1.09,0,0,0-.11.1Q95.07,444.52,95.07,452.49Z"/><path class="cls-24" d="M197.6,369.14V321.21c-3.56-18.51-5.25-37.81-9-56.25-2.44-9.89-5-19.67-6.76-30-.65-3.75-3.93-7.29-7.33-6.73-2.29.37-4,2.72-3.71,6.31.72,8.68-3.19,14.17-4.84,21.19-.62,2.69-1.34,5.42-.69,7.56l2.33-2a2.8,2.8,0,0,1,4.11.44,11.83,11.83,0,0,1,2.07,7.23v1.62a30.39,30.39,0,0,1,.64,7.13c0,3.8,0,7.6,0,11.39h.07c.81,23,1.61,46,2.46,70.48,3.73-5,6.77-9.12,9.8-13.21l1.79,1.62c-7.25,8.72-10.74,19.4-11.71,31.62a9.1,9.1,0,0,0,3.26,5.19,78.81,78.81,0,0,0-2.63,15.93c0,.45,0,.89,0,1.34.11,1,.22,2,.35,3,4.63-6.84,9.16-13.53,13.7-20.22l1.11,1.94c-3.45,6.79-6.61,14.12-10.41,20.23a33.37,33.37,0,0,0-3.64,8.11c.33,1.55.72,3.11,1.19,4.67,3.57-1.09,4.42-5.24,6.29-7.14-1.8,3.14-4.18,5.76-3.93,10.94,5.12,3.84,10.35-.39,15.51.57v-55Z"/><path class="cls-25" d="M173.8,268.94a11.83,11.83,0,0,0-2.07-7.23,2.8,2.8,0,0,0-4.11-.44l-2.33,2-.2.17a3,3,0,0,0-1,1.8q-1.35,7.74-2.68,15.49a3.19,3.19,0,0,1-.39,1c-4.28,7.41-3.53,18.16-5.51,27.09,0,.1,0,.19-.05.28a102.83,102.83,0,0,1-4.37,20.92,2.86,2.86,0,0,0-.13.58c-.68,5.11,0,10.53-1,15.54a1.42,1.42,0,0,0,0,.2c-1.17,9.44-2.69,18.69-4.44,27.87a71.73,71.73,0,0,0-1.73,14.46,30.81,30.81,0,0,0,1,7.37,3,3,0,0,1,.11.79c0,1.57,0,3.15,0,4.72,0,4,0,7.89.12,11.81.21,5,.91,10.3,4.55,10,5.51-.53,11,1.93,16.51.89a3,3,0,0,0,2.4-3.11,12.13,12.13,0,0,0-.92-4.25,2.52,2.52,0,0,0,1.74,1,56.23,56.23,0,0,0-2.36-7.45c-3.26-8.18-7.46-15.25-11.26-22.78.28-.61.55-1.22.83-1.82,4.42,6.6,8.84,13.2,14.62,21.85,0-6.95.35-13.32.45-19.19a25.41,25.41,0,0,0-3.16-6.62,2.93,2.93,0,0,0,3.13-.21,62.17,62.17,0,0,0-.79-8.28c-1.6-9.16-6.33-16.68-9.37-25.71l9.41,12.93c.85-24.88,1.65-48.16,2.45-71.43l.78-.05c0-6.19-.08-12.38-.08-18.56ZM165.26,413.2a14.21,14.21,0,0,1-2.93-6.55C163.55,409.44,164.49,411.57,165.26,413.2Z"/><path class="cls-26" d="M176.77,432a52.69,52.69,0,0,1,1.77-16.88,33.37,33.37,0,0,1,3.64-8.11c3.8-6.11,7-13.44,10.41-20.23l-1.11-1.94c-4.54,6.69-9.07,13.38-13.7,20.22-.13-1-.24-2-.35-3l-.15-1.35a118.74,118.74,0,0,1-.43-21.11c1-12.22,4.46-22.9,11.71-31.62l-1.79-1.62c-3,4.09-6.07,8.17-9.8,13.21-.85-24.44-1.65-47.46-2.46-70.48h-.07l-.56,0-.78.05c-.8,23.27-1.6,46.55-2.45,71.43l-9.41-12.93c3,9,7.77,16.55,9.37,25.71a62.17,62.17,0,0,1,.79,8.28c.08,2.2.08,4.48,0,6.83-.1,5.87-.45,12.24-.45,19.19-5.78-8.65-10.2-15.25-14.62-21.85-.28.6-.55,1.21-.83,1.82,3.8,7.53,8,14.6,11.26,22.78a56.23,56.23,0,0,1,2.36,7.45,58.73,58.73,0,0,1,1.66,10.91c.41,8.13.41,16.32.32,24.52,0,4.33-.12,8.66-.17,13-.08,7.63,1.89,8.78,5.92,6.43,0-6.79.07-13.54.1-20.25S177,438.81,176.77,432Z"/><path class="cls-24" d="M73.53,167.35l4.75-3.94a5.77,5.77,0,0,1,8,.53c2.63,3.08,4.25,7.09,4.42,12.57,1,32.2,3,64.38,2.82,96.59q.47,15.67.94,31.7c.13,1.48.26,3,.43,4.43a4.88,4.88,0,0,1,0,1c-.08.78-.15,1.57-.22,2.35q.21,6.84.41,13.78l12.07-19.28,2.21,2.37c-8.43,12-12.72,26.54-14.19,43.1.13,6.3.74,12.8-.44,18.75a3.18,3.18,0,0,1-.09.33q.08,3.11.24,6.28c.17.22.34.45.52.66a13.81,13.81,0,0,0,2.31,2.13c-.36,1.34-.71,2.68-1,4s-.67,2.86-1,4.28c.12,1.25.24,2.51.38,3.77l16.86-29.5c.46,1,.92,1.89,1.37,2.84-4.24,9.91-8.13,20.6-12.81,29.52a53.06,53.06,0,0,0-4.15,10.56,153.15,153.15,0,0,1-.79,27.11,5.24,5.24,0,0,1-1.18,2.76c.48,2,1,4.09,1.65,6.13,6.37-1.91,7.89-9.19,11.24-12.54-3.23,5.52-7.47,10.12-7,19.22,9.15,6.73,18.49-.68,27.71,1V269.09c-1.14-5.8-2.16-11.65-3.13-17.52-.45-2.76-.89-5.53-1.31-8.29-1.23-8-2.38-16-3.53-24q-.83-5.72-1.66-11.43c-1.87-12.61-3.87-25.17-6.41-37.51C108.52,153,104,135.79,100.8,117.61c-1.15-6.59-7-12.79-13.09-11.82-4.09.66-7.17,4.78-6.63,11.08,1.29,15.26-5.71,24.89-8.65,37.22-1.31,5.57-2.87,11.25-.34,15.19A5.21,5.21,0,0,1,73.53,167.35Z"/><path class="cls-25" d="M87.78,438.09c-.21-.55-.45-1.07-.7-1.57.23.22.46.42.68.6-.07-3.25-.15-6.5-.29-9.73a101.63,101.63,0,0,0-5-26.8c-4-11.94-9.19-22.24-13.87-33.24l1-2.65,18,31.88c0-7,.2-13.54.37-19.75l-.18-.26c-.38-.52-.77-1-1.18-1.55a5.21,5.21,0,0,0,1.21.4,1.08,1.08,0,0,0,.19,0c.28-10.64.4-20.22-.88-28.92-2-13.37-7.78-24.33-11.53-37.51,3.48,5.68,7,11.35,11.58,18.86,1-36.29,2-70.26,3-104.22l1.74-.13c.48,16.44,1,32.89,1.45,49.57.19-32.21-1.8-64.39-2.82-96.59-.17-5.48-1.79-9.49-4.42-12.57a5.77,5.77,0,0,0-8-.53l-4.75,3.94a5.21,5.21,0,0,0-1.44,1.93,5,5,0,0,0-.41,1.3l-4.26,27.33a5.24,5.24,0,0,1-.68,1.85c-.55.92-1,1.88-1.5,2.85a50,50,0,0,0-3.72,12.69c-1.81,10.48-1.68,22-3.83,32.33a2.87,2.87,0,0,0-.07.5,167.18,167.18,0,0,1-7.2,37,5,5,0,0,0-.23,1c-1,9,.69,18.48-1.09,27.34,0,.11,0,.23-.05.35-1.71,16.63-4.09,33-6.92,49.17-2.17,12.42-4.43,25.34-.21,38.35a5,5,0,0,1,.26,1.38c.14,4,.24,7.95.35,11.93.17,5.71.38,11.41.83,17.08.69,8.67,2.35,18,9.36,17.19,10.62-1.25,21.37,2.74,31.93.59a5.71,5.71,0,0,0,3.26-1.94Q87.88,442.81,87.78,438.09ZM76.65,418.84c2.52,4.8,4.45,8.49,6,11.3C80.1,426.91,77.52,423.74,76.65,418.84Z"/><path class="cls-25" d="M94.86,310.24a4.88,4.88,0,0,0,0-1c-.17-1.47-.3-3-.43-4.43.07,2.59.15,5.18.22,7.79C94.71,311.81,94.78,311,94.86,310.24Z"/><path class="cls-25" d="M97.32,406.2c-2.1,7.58-2.78,16-2.51,25.9l.09,4.47a1.09,1.09,0,0,1,.11-.1,4.47,4.47,0,0,0,.34-.4,5.24,5.24,0,0,0,1.18-2.76A153.15,153.15,0,0,0,97.32,406.2Z"/><path class="cls-25" d="M95.14,352.56a167.77,167.77,0,0,0-.53,19.08,3.18,3.18,0,0,0,.09-.33C95.88,365.36,95.27,358.86,95.14,352.56Z"/><path class="cls-26" d="M95.07,452.49q0-8-.17-15.92l-.09-4.47c-.27-9.87.41-18.32,2.51-25.9a53.06,53.06,0,0,1,4.15-10.56c4.68-8.92,8.57-19.61,12.81-29.52-.45-.95-.91-1.89-1.37-2.84l-16.86,29.5c-.14-1.26-.26-2.52-.38-3.77-.35-3.76-.63-7.46-.82-11.09q-.16-3.18-.24-6.28a167.77,167.77,0,0,1,.53-19.08c1.47-16.56,5.76-31.1,14.19-43.1l-2.21-2.37L95.05,326.37q-.21-6.94-.41-13.78c-.07-2.61-.15-5.2-.22-7.79q-.48-16.05-.94-31.7C93,256.42,92.51,240,92,223.53l-1.74.13c-1,34-2,67.93-3,104.22-4.61-7.51-8.1-13.18-11.58-18.86,3.75,13.18,9.57,24.14,11.53,37.51,1.28,8.7,1.16,18.28.88,28.92,0,.46,0,.92,0,1.38-.17,6.21-.37,12.77-.37,19.75l-18-31.88-1,2.65c4.68,11,9.84,21.3,13.87,33.24a101.63,101.63,0,0,1,5,26.8c.14,3.23.22,6.48.29,9.73,0,.32,0,.64,0,1q.1,4.73.13,9.46v.77c0,9.87-.1,19.77-.21,29.64,0,1.38,0,2.77,0,4.15-.1,11.13,2.33,12.8,7.28,9.37,0-8.16.07-16.28.11-24.37Q95.08,459.79,95.07,452.49Z"/><path class="cls-24" d="M552.3,211.86c-2.13.35-3.73,2.51-3.45,5.82a25.82,25.82,0,0,1-1.72,11.19,82.34,82.34,0,0,0-2.78,8.34c-.58,2.48-1.25,5-.65,7l2.17-1.84a2.62,2.62,0,0,1,3.82.41,10.83,10.83,0,0,1,1.93,6.66v1.49a28.06,28.06,0,0,1,.59,6.57q0,5.25,0,10.5h.07c.75,21.21,1.5,42.43,2.29,65l9.11-12.18,1.67,1.5c-6.75,8-10,17.9-10.88,29.17a8.32,8.32,0,0,0,3,4.75A69.89,69.89,0,0,0,555,372c.1.94.2,1.88.32,2.84l12.74-18.64,1,1.79c-3.2,6.26-6.14,13-9.68,18.65a30.56,30.56,0,0,0-3.38,7.46c.3,1.44.67,2.87,1.11,4.31,3.31-1,4.1-4.83,5.85-6.58-1.68,2.9-3.89,5.31-3.66,10.09,4.76,3.53,9.62-.36,14.42.52V297.57c-3.31-17.06-4.88-34.85-8.34-51.84-1-3.87-1.95-7.73-2.88-11.61-1.27-5.26-2.46-10.57-3.41-16.05C558.51,214.61,555.46,211.35,552.3,211.86Z"/><path class="cls-25" d="M551.62,249.4a10.83,10.83,0,0,0-1.93-6.66,2.62,2.62,0,0,0-3.82-.41l-2.17,1.84-.18.16a2.82,2.82,0,0,0-.94,1.66l-2.49,14.27a3,3,0,0,1-.36,1c-4,6.83-3.28,16.73-5.13,25a2.34,2.34,0,0,0,0,.26,94.4,94.4,0,0,1-4.07,19.27,3.49,3.49,0,0,0-.12.54c-.63,4.71,0,9.7-1,14.32l0,.18c-1.09,8.7-2.5,17.23-4.13,25.69-1,5-2,10.18-1.5,15.46a27.21,27.21,0,0,0,.78,4.65,2.62,2.62,0,0,1,.1.73c0,5.08-.11,10.18.1,15.24.19,4.56.84,9.48,4.23,9.16,5.13-.48,10.23,1.78,15.35.82a2.78,2.78,0,0,0,2.23-2.86,11,11,0,0,0-.85-3.91,2.32,2.32,0,0,0,1.62.91,53.17,53.17,0,0,0-2.19-6.86c-3-7.54-6.94-14.05-10.48-21l.77-1.67L549,377.25c0-6.4.33-12.27.42-17.68a23.25,23.25,0,0,0-2.94-6.1,2.74,2.74,0,0,0,2.91-.19,56.21,56.21,0,0,0-.74-7.64c-1.48-8.44-5.88-15.36-8.71-23.69l8.75,11.92c.79-22.93,1.54-44.38,2.28-65.83l.73,0c0-5.71-.08-11.41-.08-17.11Zm-7.94,132.94a13.1,13.1,0,0,1-2.73-6C542.09,378.88,543,380.84,543.68,382.34Z"/><path class="cls-26" d="M554.38,399.69c0-1.28,0-2.51,0-3.71A43,43,0,0,1,556,384.12a30.56,30.56,0,0,1,3.38-7.46c3.54-5.63,6.48-12.39,9.68-18.65l-1-1.79-12.74,18.64c-.12-1-.22-1.9-.32-2.84a109.44,109.44,0,0,1-.53-20.62c.9-11.27,4.13-21.13,10.88-29.17l-1.67-1.5-9.11,12.18c-.79-22.52-1.54-43.74-2.29-65h-.07l-.51,0-.73,0c-.74,21.45-1.49,42.9-2.28,65.83L539.94,322c2.83,8.33,7.23,15.25,8.71,23.69a56.21,56.21,0,0,1,.74,7.64c.07,2,.07,4.12,0,6.29-.09,5.41-.42,11.28-.42,17.68l-13.6-20.13-.77,1.67c3.54,6.95,7.44,13.46,10.48,21a55.12,55.12,0,0,1,3.68,16.26c0,.22,0,.44.05.66.49,9.67.35,19.44.21,29.19,0,1.79,0,3.58-.07,5.37-.08,7,1.76,8.09,5.5,5.92q0-5.32,0-10.62C554.59,417.55,554.67,408.6,554.38,399.69Z"/></svg>