<svg xmlns="http://www.w3.org/2000/svg" viewBox="0 0 600 800"><defs><style>.cls-1{fill:none;}.cls-2{fill:#fbf3c2;}.cls-3{fill:#fefad6;}.cls-4{fill:#66a39b;}.cls-5{fill:#7dbbaf;}.cls-6{fill:#8abbb2;}.cls-7{fill:#bbb494;}.cls-8{fill:#d0cab1;}.cls-9{fill:#71b2a7;}.cls-10{fill:#f1eaae;}.cls-11{fill:#b2c389;}.cls-12{fill:#96a477;}.cls-13{fill:#a2b17f;}.cls-14{fill:#b6cb83;}.cls-15{fill:#a09270;}.cls-16{fill:#bab16a;}.cls-17{fill:#a79a74;}.cls-18{fill:#cef19d;}.cls-19{fill:#a89a74;}.cls-20{fill:#9eaf7d;}.cls-21{fill:#bed795;}.cls-22{fill:#bab16b;}.cls-23{fill:#9faf7e;}.cls-24{fill:#bbb26d;}.cls-25{fill:#a0b17f;}.cls-26{fill:#bcb36f;}.cls-27{fill:#a0b07e;}.cls-28{fill:#d1cbb1;}.cls-29{fill:#d2d4a3;}.cls-30{fill:#c8cc9b;}.cls-31{fill:#aebb8b;}.cls-32{fill:#9eae7d;}.cls-33{fill:#bbd78f;}.cls-34{fill:#a1ad7b;}.cls-35{fill:#bfd993;}.cls-36{fill:#619281;}.cls-37{fill:#70b1a6;}.cls-38{fill:#71b1a6;}.cls-39{fill:#c1d298;}.cls-40{fill:#bdd794;}.cls-41{fill:#bdd795;}.cls-42{fill:#b7d074;}.cls-43{fill:#b8b06c;}.cls-44{fill:#d0cab0;}.cls-45{fill:#b9b16d;}.cls-46{fill:#578376;}.cls-47{fill:#cec9af;}.cls-48{fill:#c1c892;}.cls-49{fill:#c0b876;}.cls-50{fill:#c5cf9c;}.cls-51{fill:#dcdfb4;}.cls-52{fill:#f8f1c0;}.cls-53{fill:#f9f1bf;}.cls-54{fill:#bab26c;}.cls-55{fill:#bcb695;}.cls-56{fill:#e2e1a2;}.cls-57{fill:#d5d594;}.cls-58{fill:#91866b;}.cls-59{fill:#9b8f70;}.cls-60{fill:#b6c492;}.cls-61{fill:#faf3c2;}.cls-62{fill:#d2cfb1;}.cls-63{fill:#c6cb91;}.cls-64{fill:#f7f1bf;}.cls-65{fill:#a0b07f;}.cls-66{fill:#cfc9af;}.cls-67{fill:#f9f6d1;}.cls-68{fill:#e8e8c1;}.cls-69{fill:#b9b574;}.cls-70{fill:#cecaae;}.cls-71{fill:#bebb92;}.cls-72{fill:#93876f;}</style></defs><title>swamp</title><g id="Layer_2" data-name="Layer 2"><path class="cls-1" d="M294.66,389.1h0c0,.15,0,.3,0,.45a1.72,1.72,0,0,0,.39,0A1.31,1.31,0,0,0,294.66,389.1Z"/><path class="cls-1" d="M306,377q0,.31.06.63h0l.58-.32A4.79,4.79,0,0,0,306,377Z"/><path class="cls-1" d="M320.64,302.47h0a1.62,1.62,0,0,0,.1-.18l-.09-.05a1.85,1.85,0,0,1,0,.23Z"/><path class="cls-1" d="M458.92,396.5h0v.11l0,0A.36.36,0,0,0,458.92,396.5Z"/><path class="cls-1" d="M304,368.09l.08-.09-.16-.13a2,2,0,0,0,.08.22Z"/><path class="cls-1" d="M462.79,354.6l0,0,0,.07h0Z"/><path class="cls-1" d="M.46,734.53V0H0V800H.45C.5,778.18.46,756.35.46,734.53Z"/><path class="cls-2" d="M53.12,204.29c18.81,9.81,37.19,20.44,55.19,31.69,16.36,10.21,32.87,20.21,48.17,32h0a47,47,0,0,0,7.79-15.25c2.84-8.91,8.82-14.74,16.65-19.19,6.56-3.74,13.64-6.12,20.82-8.24,6.18-1.82,11.45.51,15.69,4.78,27.9,28,51.25,58.65,58.23,99.09,2.89,16.8,6.13,33.5,6.44,50.6h1.84c-.1-9.81,2.4-19.6.28-29.43h0c-3.29-16.49-6.86-32.94-9.82-49.49-4.2-23.41-14-44.63-24.45-65.68-5.47-11.06-10.85-22.16-16.27-33.24h0c-4.87-1.18-8.23-4.3-10.76-8.46q-9.63-15.8-19.26-31.61a6.58,6.58,0,0,1-1.1-2.34c-.45-3.6-1.5-7.79,2.65-9.71,3.71-1.71,7,.72,8.89,3.7q11.73,18.16,23,36.67c2,3.24,1.73,7,.14,10.55,11.13,17.75,18.86,37.2,28,55.92,10.9,22.24,13.66,46.54,18.8,70.26.41,1.85.79,3.71,1.19,5.57,2.08-6.22,1.2-12.76,1.6-19.09,1.45-22.73,3.88-45.54,2.26-68.31a232.67,232.67,0,0,0-16.42-70.84c-3.51-8.69-11-14.23-18.93-18.82-5.55-3.23-11.09-6.57-17.16-8.86a6.93,6.93,0,0,1-4.37-3.3c10-.25,19.24.71,28.13,4.33,13.54,5.5,20.42,16.51,25.42,29.51,6.49,16.9,13,33.74,15.5,51.84a201,201,0,0,1,.88,45.27c-1.2,13.5-2.2,27-3.33,40.52q-1.73,20.52-3.51,41a2.1,2.1,0,0,0,.43,1.58c-.15-.53-.29-1.06-.43-1.58,3.42,3.64,7.14,7.07,8.65,12.07l.16.13c1.29-1.05.63-2.64,1-3.94h0c-1.68-16.92,3.16-32.59,9.18-48h0c.2-23.17,3.82-46,7.07-68.83,1.54-10.83,2.94-21.7,2.47-32.7-3.74-2.92-4-7.23-4.06-11.34-.19-12.69-.07-25.38-.07-38.07a13.56,13.56,0,0,1,.06-1.56c.49-4.07,4.4-9,7.23-8.44,4.57.85,5.88,4.77,6.05,8.63.34,8.15.14,16.33.2,24.5,0,5-.06,10.09.29,15.11.35,5.18-.81,9.62-4.73,13.18h0c.11,16.2-2.2,32.18-4.48,48.15a358.75,358.75,0,0,0-3.68,37.59l.09.05c4.67-7.91,7.34-16.69,10.82-25.11,2.59-6.27,4.84-12.68,7.15-19.06C343,246.42,349.15,242,361,245.06c17.24,4.42,33.09,11.89,44.56,26.38.9,1.14,2.92,2.37,1.5,3.88-1.22,1.3-2.93-.23-4.15-1-7.34-4.65-14.22-10-22.15-13.77a44.78,44.78,0,0,0-23.31-4.29c-6.66.52-10.05,4.93-12.52,10.42-3.65,8.13-5.41,16.88-8.12,25.32A198,198,0,0,1,322,326.5a26.63,26.63,0,0,0-3.32,10.31h0q-.39,23.61-2.31,47.13c.48,1.66-.62,3.67,1.12,5.05h0c2.24-6.74,4.33-13.54,6.77-20.2,3.41-9.31,14.79-14.23,25.25-10.69-2.15.71-3.89,1.16-5.53,1.85-6.41,2.67-11.67,6.32-14,13.53-2.42,7.62-4.83,15.2-6.22,23.07a39.32,39.32,0,0,0,13.73-2.16h0c-.75-4.51-1.19-9.14-5.17-12.5,7,1.13,10.35,6.19,13.44,11.52l9.45,0h0a21.91,21.91,0,0,0,5.24-27.16c-2.39-4.47-2.25-9-1.11-13.61h0c-7-5.9-15.94-9.6-20-18.61-2.39-5.25-4.39-10.45-1.4-16.2a2.14,2.14,0,0,1,1.33,2.34c-.05,11.32,6.77,18.17,15.45,23.81,2,1.32,4.27,2.37,5.87,4.29,2.11-2.16,3.56-5,7.12-6.71l-4.11,9.83h0c7.32,6.35,10.54,14.68,11.47,24.05.52,5.3.77,10.63,1.14,15.95h0c6.34-1.18,6.5-7,8.11-11.42,2.05-5.57,1.29-11.63,1.22-17.5a14.62,14.62,0,0,1,2.31-9.14c3.29,13.2,2.36,25.07-1.19,36.9,8.8-1.26,17.66-1,26.5-1.05a3.62,3.62,0,0,0,2.84-1.05h0a40.45,40.45,0,0,1,0-18.6h0c0-.87-.09-2,.88-2.21,1.4-.33,1.07,1,1.08,1.67,0,3.62,0,7.25-.08,10.87h0a17,17,0,0,0,3.1,8.47h0l8.47-.11c-3.69-10.8-2.38-20.74,5-29.69a12.4,12.4,0,0,0,1.32-2.74h0c-5.47-3.29-7-8.76-7.82-14.51-1.21-8.19-4.45-16.08-3.65-24.56.22-2.33-.35-5.22,2.95-5.86s4.63,2,5.41,4.49c4,12.4,7,25,6,38.2l.18,3.24h0l7.41,31.38,12.5,0c-.28-7,.79-14.08-.82-21h0c-3.75-2.45-7.52-4.77-10.66-8.12-4.8-5.11-2.72-11.34-3.33-17.23,4.27,6.91,5.44,15.77,12.92,20.6,2.14-.88,1.81-2.75,1.57-4.4-1.12-7.69-.42-15.41-.53-23.11h0c.92-1.51-3.63-2.65-.29-4.32h0L458,296c-5.87-6.69-5.64-14.89-5.68-23,0-2.07,0-4.13,0-6.2-11.73-21.32-23.71-42.49-37.61-62.52a615.07,615.07,0,0,0-42.22-54.81c-7.21-8.24-14.4-16.48-22.19-24.18-22.16-21.91-46.3-41.41-71.62-59.5C251,46,222.84,26.78,193.52,9.4c-5.43-3.22-10.93-6.33-16.45-9.4H.46V178.88C18.5,186.33,35.84,195.28,53.12,204.29Z"/><path class="cls-3" d="M125.76,441c24.81-4.12,49.68-7.77,74.06-14.08,7.07-1.82,14.1-3.76,21.11-5.76,1.6-.46,3.55-.53,4.37-2.47h0l-30.21-9.82h0c-4.62,1.59-2.6,7.15-5.84,9.68-2-3.27-1.2-6.94-1.6-10.42a56.85,56.85,0,0,0-24.89,4.52,29.2,29.2,0,0,0-16,15.08c-2.51-1.94-1.15-4-.87-5.84,1.44-9.21,6.41-15.79,15.33-18.66,8.58-2.76,17.29-5.21,26.37-5.85h0c-.17-10.66,5.48-18.56,12.72-25.34,7.07-6.61,16.33-4.54,20.73,4.22,6.3,12.52,14.84,23.51,23.43,34.46.87,1.12,2.4,4.55,4.25.47h0c-2-11.09-3.63-22.2-3.41-33.51h0c-2.61-12.78-7.46-24.63-15.84-34.67a161.42,161.42,0,0,0-35.84-31.73c-13.27-8.66-35.8-2.82-47,11.1q-13.53,16.75-8.14,37.67c.21.8.34,1.63.77,3.75-7.86-7.58-10.82-16-8.51-24.9,5.17-19.9,17.74-34.56,37-41.54,12-4.33,24.74-2.67,34.64,6.87,10.77,10.37,22.31,19.93,32.53,30.88,3.72,4,6.11,8.83,9.35,13.12h0l-.09-12.38h0a723,723,0,0,0-79.33-62.38c-1.43-1-3-1.8-4.45-2.7-2.35.54-5.95,2.82-3.84-2.78-15.3-11.82-31.81-21.82-48.17-32-18-11.25-36.38-21.88-55.19-31.69-17.28-9-34.62-18-52.66-25.41v290.9c12.14-2.93,24.28-5.84,36.41-8.81C66.38,453.76,95.8,446,125.76,441Z"/><path class="cls-4" d="M447.28,450.94h0c-3.48-.44-7.16,1.05-10.48-1H410.69c-3,2-6.31.59-9.44,1l-16.73,0h0c-1.5,1.59-3.47.84-5.25,1-16.47.58-32.75,2.83-49.07,5a548.32,548.32,0,0,0-61.68,12.27c-19.69,5-39.16,10.9-58.85,15.93-17.47,4.46-35.39,6.7-53.19,9.46C131.4,498.57,107,505.26,82.28,511c-13.9,3.24-27.62,6.93-40.6,13A114.33,114.33,0,0,0,5.84,549.64c-1.65,1.77-3.58,3.28-5.38,4.91V632c5.39,9.11,10.59,18.29,17.43,26.5a201.66,201.66,0,0,0,36,33.13c30.69,22.56,64.67,38.72,100.41,51.48a554.84,554.84,0,0,0,81.89,22.32c18,3.47,36.23,6,54.5,8,26.35,3,52.74,3.51,79.15,2.77,15-.42,30.06-2,45.07-3.64,27.78-3,55.21-8.14,82.66-13.07,31.45-5.65,63-11.34,92.63-23.94,3.35-1.43,6.58-3.14,9.85-4.76V682.61c-8.53,3.92-16.52,8.89-25.39,12.2-17,6.36-34.63,10.39-52.44,13.46-26.12,4.51-52.29,9-78.58,12.34-18.54,2.39-37.09,5-55.87,5.73-15.09.59-30.19,2.23-45.28,1.75-21-.66-41.94-1.59-62.86-3.82a672.84,672.84,0,0,1-95.22-16.84c-31.44-8-62.05-18.52-91.14-33-22.68-11.26-44.34-24.26-61.57-43.29C18.67,616.84,9.17,600.45,7,580.94c-1.15-10.36,2.54-19.86,9.87-27.66,17-18.08,38.62-27.57,62.23-33,28.57-6.62,57.27-13.3,86.36-16.5,37.09-4.08,73.08-12.92,109.33-20.87a557.41,557.41,0,0,1,55.94-9.06c17.25-2,34.52-3.19,51.84-4.27a605.14,605.14,0,0,1,62.15-.53c36,1.44,71.93,4.92,107.41,12,15.17,3,30.3,6.05,45.17,10.34a14.05,14.05,0,0,0,2.69.36v-18c-50-13.5-100.85-21.6-152.72-22.81Z"/><path class="cls-5" d="M497.52,759.49c-27.45,4.93-54.88,10-82.66,13.07-15,1.64-30,3.22-45.07,3.64-26.41.74-52.8.2-79.15-2.77-18.27-2.07-36.46-4.55-54.5-8a554.84,554.84,0,0,1-81.89-22.32c-35.74-12.76-69.72-28.92-100.41-51.48a201.66,201.66,0,0,1-35.95-33.13c-6.84-8.21-12-17.39-17.43-26.5V734.53c21.21,15.05,44,27.33,67.6,38.11a525,525,0,0,0,55.8,21.94q8.67,2.82,17.4,5.42H549.18q25.47-6,50.82-12.91v-56.3c-3.27,1.62-6.5,3.33-9.85,4.76C560.48,748.15,529,753.84,497.52,759.49Z"/><path class="cls-6" d="M600,800V787.09Q574.65,794,549.18,800Z"/><path class="cls-6" d="M68.06,772.64C44.42,761.86,21.67,749.58.46,734.53c0,21.82,0,43.65,0,65.47H141.26q-8.73-2.6-17.4-5.42A525,525,0,0,1,68.06,772.64Z"/><path class="cls-7" d="M580.19,434.19h0c-.65,1.94,2.45,5-.87,5.77-2.81.62-6.22-.11-7.59-3.7-4.05.57-5.5-1.44-5.2-5.2h0c-14.95-2.31-29.78-5.49-44.94-6.31h0c-2,2.65-.8,5.72-1,8.59s-1.44,3.2-3.76,2.11c-5.58-2.61-6.23-7.38-5.69-12.71h0c-1.45-.13-3.07.36-4.17-1.09-2.4,3.58-4.63,7.28-7.23,10.72-2,2.68-4.52,4.72-7.46.82h0c-2.37,1-4.73,2.06-7.37,2-1.69,0-3.64.37-4.61-1.48-1.07-2,.38-3.61,1.48-5.09,2.05-2.77,5.79-3.76,7.43-7-3.38-1.22-6.91-1.08-10.43-1.11h0c-1.42,3.51-2.9,7-4.24,10.54a4.39,4.39,0,0,1-5.23,3.11h0c-1.37,2.28-3.11,2.83-4.84.57-1.26-1.66-2.87-1.61-4.57-1.67h0c-2.44,1.09-3.73,4.86-7.37,3.19-7.8,2.59-10.45.83-10.38-7.16,0-3.93-.3-7.62-3.1-10.66-2.29,2.19-4.58-.23-6.93,0-19.7,1.85-39.56.31-59.23,2.77-1.66.21-2.74.14-3.06-1.7-1.35,5.68-5.1,7.32-10.48,6.24-1.86-.37-3.76-.67-4.06-3.1a36,36,0,0,0-3.49,3c-7.63,8.33-7.62,8.35-18.7,10.13-.11-3.54,4.09-4.57,4.38-7.69h0c-.05-1.14-.1-2.28-.16-3.43h0c-4.57.59-9.2.92-13.71,1.84-3.58.73-5.34,0-5.07-3.88-2.2,2.8.07,6-.87,9-.67,2.14.77,5.06-2.37,6.2s-5.36-.09-7.15-2.59h0l-2-2.12c-1.27,4.79-4.23,6.08-9.51,4.15h0c-2.77,2.21-5.57-.07-8.35.06h0c-2.35,1-4.59,2.82-7.33,1a7.2,7.2,0,0,1-4.17,1h0c-3.15,1.88-6.3,1.35-9.45,0h0L262,438.36h0l-26.14,6.34c-.22.47-.4.95-.66,1.4-.78,1.35.3,3.92-2.19,4.07-2,.12-2.63-1.89-3.42-3.4h0c-29.1,8.76-58.32,17-88.54,21.07-34.27,4.61-67.83,12.7-101.31,21.11C26.64,492.24,13.56,495.7.46,499.08V520c19.07-4.66,38.13-9.41,57.23-14,18.75-4.46,37.43-9.52,56.56-12A572.38,572.38,0,0,0,187.88,480c22.35-5.92,44.35-13.19,66.87-18.52a653.9,653.9,0,0,1,77.38-13.78c16.92-1.9,33.86-3.17,50.85-4.25,24-1.51,48.09-1.17,72.09-.56,19.23.48,38.45,2.29,57.61,4.49a803.14,803.14,0,0,1,87.18,15.14H600V438.15c-6.52-1.75-13-3.61-19.81-4Z"/><path class="cls-8" d="M141.08,467.84c30.22-4.06,59.44-12.31,88.54-21.07h0c1.22-6.32,5.18-11.09,9.08-15.87,1.41-1.73,3-3.32,4.48-5l-17.88-7.22h0c-.82,1.94-2.77,2-4.37,2.47-7,2-14,3.94-21.11,5.76-24.38,6.31-49.25,10-74.06,14.08-30,5-59.38,12.74-88.89,20-12.13,3-24.27,5.88-36.41,8.81v29.3c13.1-3.38,26.18-6.84,39.31-10.13C73.25,480.54,106.81,472.45,141.08,467.84Z"/><path class="cls-9" d="M512.68,447.34c-19.16-2.2-38.38-4-57.61-4.49-24-.61-48-1-72.09.56-17,1.08-33.93,2.35-50.85,4.25a653.9,653.9,0,0,0-77.38,13.78c-22.52,5.33-44.52,12.6-66.87,18.52a572.38,572.38,0,0,1-73.63,14.12c-19.13,2.45-37.81,7.51-56.56,12-19.1,4.55-38.16,9.3-57.23,14v34.54c1.8-1.63,3.73-3.14,5.38-4.91A114.33,114.33,0,0,1,41.68,524c13-6.07,26.7-9.76,40.6-13,24.67-5.75,49.12-12.44,74.2-16.32,17.8-2.76,35.72-5,53.19-9.46,19.69-5,39.16-10.92,58.85-15.93A548.32,548.32,0,0,1,330.2,457c16.32-2.21,32.6-4.46,49.07-5,1.5-1.63,3.47-.85,5.25-1h0l16.73,0c3-2,6.3-.64,9.44-1H436.8c3.48.43,7.16-1.07,10.48,1h0c51.87,1.21,102.7,9.31,152.72,22.81V462.49h-.14A803.14,803.14,0,0,0,512.68,447.34Z"/><path class="cls-10" d="M278.68,65.8c25.32,18.09,49.46,37.59,71.62,59.5,7.79,7.7,15,15.94,22.19,24.18a615.07,615.07,0,0,1,42.22,54.81c13.9,20,25.88,41.2,37.61,62.52.45-3.45.89-6.89,1.33-10.34a11.06,11.06,0,0,1,4.09-7.06c3.12-2.66,5.22-2.08,6.48,1.87,1.51,4.77,1,9.69.5,14.51-.59,6.26-1.09,12.47.08,18.7a14.69,14.69,0,0,1-1.6,9.6h0c5.6,11.45,8.73,23.7,11.18,36.09,1.1,5.58,3.6,11.26,1.17,17.16h0a6.06,6.06,0,0,0,3,3h0l5.61-34.4c-1.82-3.8-1.75-7.9-1.09-11.81,1.45-8.58,4.17-16.87,7.05-25.09a6.9,6.9,0,0,1,3.67-4.19c4.41-2.08,7.63-.21,7.82,4.67a24.09,24.09,0,0,1-.69,7.77c-2.31,8-4.32,16.12-6.73,24.11-1,3.34-2.63,6.58-6.95,6.79h0q-2.76,17.7-5.51,35.38h0c7.5,11.89,5.46,23.77,0,35.65h0c8.76.81,17.48,2.84,26.34,1h0c-5.57-8.72-10.85-17.56-11.57-28.27h0c-1.18-2-1.27-4.06-.55-7.22.64,3.07,1.08,5.18,1.53,7.29,2.47,9.77,9.39,17.11,14.07,25.68,1.24,2.26,2.6,4.45,3.91,6.68,21.53-24.64,22.29-48.91-1.87-72.91,7.57,1.67,12.15,6.63,16.09,11.95,11.14,15,11.79,36.72,2,52.65-1.45,2.37-2.68,4.85-4,7.28l5.44,1.09h0c11.64-5.06,14.82-15.19,15.64-26.55.43-5.83,1.6-11.58,1-17.95,9.22,8.65,6.39,30.52-5.16,44.48,6.19,3.57,13.33,2.63,20,4.21h0c2-8.19,5.06-15.87,11.64-21.59a28.45,28.45,0,0,1,5.55-3.8c-5.53,8.4-9.12,17.38-9.84,27.37h0l4.17.12h0c4.56-5.81,8.17-12.09,9.27-19.53,1.36-9.12-1.62-17-7.65-23.85,12.88,6.76,16.42,22.88,8.24,35.87-1.57,2.5-3.12,5-4.68,7.51,5.86,3.14,12.62,2.89,18.79,4.86V0H177.07c5.52,3.07,11,6.18,16.45,9.4C222.84,26.78,251,46,278.68,65.8Z"/><path class="cls-11" d="M294.23,378.89c0,.29,0,.59,0,.89A8.7,8.7,0,0,0,294.23,378.89Z"/><path class="cls-11" d="M283.94,385h0c0,1.75.05,3.51.07,5.26-.33,3.12.94,6.39-.93,9.36Q282,419,280.9,438.39h0c2.74,1.8,5,0,7.33-1h0c-4.23-9.73-.74-19.38.54-29,.53-4,2.39-7.9,3.65-11.85h0c-.15-6,0-11.89,1.81-17.64q.15-7.89.29-15.79c0-1.39,0-2.84,1.94-3-.25-.91-.49-1.83-.74-2.74a2.1,2.1,0,0,1-.43-1.58q1.75-20.52,3.51-41c1.13-13.5,2.13-27,3.33-40.52a201,201,0,0,0-.88-45.27c-2.47-18.1-9-34.94-15.5-51.84-5-13-11.88-24-25.42-29.51-8.89-3.62-18.11-4.58-28.13-4.33a6.93,6.93,0,0,0,4.37,3.3c6.07,2.29,11.61,5.63,17.16,8.86,7.91,4.59,15.42,10.13,18.93,18.82a232.67,232.67,0,0,1,16.42,70.84c1.62,22.77-.81,45.58-2.26,68.31-.4,6.33.48,12.87-1.6,19.09-.7,5.93.95,12-1,17.86h0c2.12,9.83-.38,19.62-.28,29.43h0Z"/><path class="cls-12" d="M160.32,270.79A63.1,63.1,0,0,0,178,253.32c5.12-7.67,12.74-12.39,21.73-14.34,8.47-1.83,16.1-.06,22.56,6.33a208,208,0,0,1,32.37,41.47c7.88,13.2,11.15,28.08,13.55,43.07a214.35,214.35,0,0,1,3.17,34.23h0c1.35,14.23,2.42,28.49,2.06,42.81h0q0,6.83.11,13.66h0c0,4,.19,7.92,0,11.87-.17,3,.53,5.39,3.21,7h0a7.2,7.2,0,0,0,4.17-1h0Q282,419,283.08,399.57h0c.12-5.95-1.85-11.77-1-17.76,0-.67,0-1.34.05-2h0c-.31-17.1-3.55-33.8-6.44-50.6-7-40.44-30.33-71.08-58.23-99.09-4.24-4.27-9.51-6.6-15.69-4.78-7.18,2.12-14.26,4.5-20.82,8.24-7.83,4.45-13.81,10.28-16.65,19.19A47,47,0,0,1,156.48,268h0C154.37,273.61,158,271.33,160.32,270.79Z"/><path class="cls-13" d="M306,377a4.79,4.79,0,0,1,.64.31l4.82-2.61c-.89,3.74-4.25,5.9-4.5,9.41h0c0,5.25,2,10.34,1.21,15.65.32.69.63,1.37.95,2.05a314.43,314.43,0,0,1-1,33.49h0c1.79,2.5,4.1,3.69,7.15,2.59s1.7-4.06,2.37-6.2c.94-3-1.33-6.22.87-9,0-1.4,0-2.8,0-4.19h0c-1.3-1.27-.93-2.91-.95-4.45-.12-6.58.42-13.19-1-19.73-.39-1.8-.69-3.77,1-5.29h0c-1.74-1.38-.64-3.39-1.12-5.05-3.25-15.9-3.08-31.64,2.31-47.13h0A26.63,26.63,0,0,1,322,326.5,198,198,0,0,0,336.78,292c2.71-8.44,4.47-17.19,8.12-25.32,2.47-5.49,5.86-9.9,12.52-10.42a44.78,44.78,0,0,1,23.31,4.29c7.93,3.77,14.81,9.12,22.15,13.77,1.22.77,2.93,2.3,4.15,1,1.42-1.51-.6-2.74-1.5-3.88-11.47-14.49-27.32-22-44.56-26.38-11.82-3-18,1.36-22.26,13.06-2.31,6.38-4.56,12.79-7.15,19.06-3.48,8.42-6.15,17.2-10.82,25.11a1.62,1.62,0,0,1-.1.18h0A35.89,35.89,0,0,1,314.29,316h0c-6,15.45-10.86,31.12-9.18,48h0C307,368.26,305.65,372.68,306,377Z"/><path class="cls-8" d="M374,403.88c-.56,5.45-2.84,10.43-4.23,15.66h0c.32,1.84,1.4,1.91,3.06,1.7,19.67-2.46,39.53-.92,59.23-2.77,2.35-.22,4.64,2.2,6.93,0h0c-3.87-7.1-9.18-13-15-18.51-3.6-3.37-6.82-6.89-8-11.85a3.62,3.62,0,0,1-2.84,1.05c-8.84.1-17.7-.21-26.5,1.05C384.49,396.67,379.05,400.08,374,403.88Z"/><path class="cls-14" d="M462,343.05c0,3.85-1,7.83.74,11.58l0,0V339.69c6,7.75,11.13,14.33,13.93,22.4h0c2.59,2.34,1.8,5.51,2.06,8.42,1.56,1.47.78,3.34.88,5.06h0l-2,4.15c-1.26,3.2-2.45,6.42-3.81,9.58-.73,1.72-1.32,1-1.66-.29a5.11,5.11,0,0,0-.86.2c.52,7.1-3.3,12.42-7.25,17.68-1,1.91-1.76,4-3.92,5.36-1.24-5.28.87-10.65-1.22-15.66l0,0c0,5.46-.08,10.93-.08,16.39,0,2.46-.11,4.84-2.2,6.58h0c-2.11,4.1-1.54,9.52-6.1,12.42h0c.43,1.53,2.09,2.51,2,4.3h0c3.64,1.67,4.93-2.1,7.37-3.19A31.61,31.61,0,0,1,465,422.7h0c.06-1.48.1-3,2.11-3.14,1-4.51,1.91-9,4.4-13,.71-1.14,1.08-2.69,3-1.63,2-4.57,1.78-10.21,6.29-13.65l.91-2h0c5.5-11.88,7.54-23.76,0-35.65h0a7.18,7.18,0,0,1-3.17-3.23h0a6.06,6.06,0,0,1-3-3h0c-5-4.1-8.34-9.8-13.62-13.6l-4.29-3.18h0c-3.34,1.67,1.21,2.81.29,4.32h0C461.18,336.66,462,339.45,462,343.05Z"/><path class="cls-15" d="M328.8,216.5h0c3.92-3.56,5.08-8,4.73-13.18-.35-5-.25-10.07-.29-15.11-.06-8.17.14-16.35-.2-24.5-.17-3.86-1.48-7.78-6.05-8.63-2.83-.52-6.74,4.37-7.23,8.44a13.56,13.56,0,0,0-.06,1.56c0,12.69-.12,25.38.07,38.07.06,4.11.32,8.42,4.06,11.34C325.42,215.33,326.71,216.91,328.8,216.5Zm-4.54-32.23h-1.05V165.09h1.05Z"/><path class="cls-16" d="M285.22,332.52c-.4-1.86-.78-3.72-1.19-5.57-5.14-23.72-7.9-48-18.8-70.26-9.18-18.72-16.91-38.17-28-55.92l-3.5,1.2h0c5.42,11.08,10.8,22.18,16.27,33.24,10.41,21,20.25,42.27,24.45,65.68,3,16.55,6.53,33,9.82,49.49h0C286.17,344.52,284.52,338.45,285.22,332.52Z"/><path class="cls-17" d="M237.19,200.77c1.59-3.54,1.82-7.31-.14-10.55q-11.22-18.5-23-36.67c-1.93-3-5.18-5.41-8.89-3.7-4.15,1.92-3.1,6.11-2.65,9.71a6.58,6.58,0,0,0,1.1,2.34q9.61,15.81,19.26,31.61c2.53,4.16,5.89,7.28,10.76,8.46h0ZM207.06,160a53.12,53.12,0,0,1,11.73,19A42,42,0,0,1,207.06,160Z"/><path class="cls-18" d="M366.61,403.9a108.64,108.64,0,0,0-19.77,14.61h0l-2.1,2.06h0a15.81,15.81,0,0,1-5.26,5.25h0l-2,2.29h0c-.29,3.12-4.49,4.15-4.38,7.69,11.08-1.78,11.07-1.8,18.7-10.13a36,36,0,0,1,3.49-3c6.07-6.45,10.3-14.74,18.77-18.8h0c5-3.8,10.47-7.21,12.63-13.66,3.55-11.83,4.48-23.7,1.19-36.9a14.62,14.62,0,0,0-2.31,9.14c.07,5.87.83,11.93-1.22,17.5-1.61,4.38-1.77,10.24-8.11,11.42h0C375.77,397.67,371.94,401.36,366.61,403.9Z"/><path class="cls-16" d="M320.64,302.47h0a1.85,1.85,0,0,0,0-.23,358.75,358.75,0,0,1,3.68-37.59c2.28-16,4.59-31.95,4.48-48.15h0c-2.09.41-3.38-1.17-5-2,.47,11-.93,21.87-2.47,32.7-3.25,22.85-6.87,45.66-7.07,68.83h0A35.89,35.89,0,0,0,320.64,302.47Z"/><path class="cls-8" d="M318.49,418.46h0c0,1.39,0,2.79,0,4.19-.27,3.86,1.49,4.61,5.07,3.88,4.51-.92,9.14-1.25,13.71-1.84h0c-.55-8.32,1.37-16.51,1.18-24.81,0-1.85.42-3.84-.94-5.49a39.32,39.32,0,0,1-13.73,2.16Q321.15,407.5,318.49,418.46Z"/><path class="cls-19" d="M461.18,296.23h0c.67-.72,1.34-1.43,2-2.14h0a14.69,14.69,0,0,0,1.6-9.6c-1.17-6.23-.67-12.44-.08-18.7.46-4.82,1-9.74-.5-14.51-1.26-3.95-3.36-4.53-6.48-1.87a11.06,11.06,0,0,0-4.09,7.06c-.44,3.45-.88,6.89-1.33,10.34,0,2.07,0,4.13,0,6.2,0,8.13-.19,16.33,5.68,23Zm-3.77-36.91a2.16,2.16,0,0,1,1.19,1.47c.12,2.58,0,5.16.06,7.74,0,2.42.1,4.83,0,7.24a1.91,1.91,0,0,1-1.94,2c-1.25,0-1.76-1-1.93-2-.8-5.21.87-10.23,1.21-15.35A1.12,1.12,0,0,1,457.41,259.32Z"/><path class="cls-18" d="M437.47,399.87c4.61,3,7.6,7.41,9.83,12.36h0a5.62,5.62,0,0,1,2,4.26h0c2,5.05.61,10.35,1.21,15.51h0c4.56-2.9,4-8.32,6.1-12.42h0l-7.28-16.74h0a32,32,0,0,1-6.28-8.33h0a16.9,16.9,0,0,1-7.27-6.3c-5.43-9.24-3.57-18.24.87-27.15.15-1.72.31-3.44,2.19-4.27h0l-.18-3.24c-.85.9-1.32,2.29-2.91,2.24h0a12.4,12.4,0,0,1-1.32,2.74c-7.38,9-8.69,18.89-5,29.69h0C430.91,392.94,433.19,397.05,437.47,399.87Z"/><path class="cls-20" d="M316.52,394.28c1.44,6.54.9,13.15,1,19.73,0,1.54-.35,3.18.95,4.45h0q2.65-11,5.3-21.91c1.39-7.87,3.8-15.45,6.22-23.07,2.29-7.21,7.55-10.86,14-13.53,1.64-.69,3.38-1.14,5.53-1.85-10.46-3.54-21.84,1.38-25.25,10.69-2.44,6.66-4.53,13.46-6.77,20.2h0C315.83,390.51,316.13,392.48,316.52,394.28Z"/><path class="cls-21" d="M346.89,403.82c-5.13,6.44-8.21,13.56-7.41,22a15.81,15.81,0,0,0,5.26-5.25h0a10.09,10.09,0,0,1,2.05-6.23,8.45,8.45,0,0,1,3.38-5.7c6.18-4.13,9.52-10.42,13.44-16.31h0c1.08-4.89,3.2-9.51,3.21-14.68,0-4.93-.25-9.63-2.79-14.1-.86-1.52-2.57-3.61-.51-5.68h0c-1.56-2.18-.32-4.33.07-6.49h0l4.11-9.83c-3.56,1.71-5,4.55-7.12,6.71-.4,1.46-.8,2.91-1.21,4.37h0c-1.14,4.66-1.28,9.14,1.11,13.61a21.91,21.91,0,0,1-5.24,27.16h0A28.37,28.37,0,0,1,346.89,403.82Z"/><path class="cls-20" d="M424,400c5.85,5.47,11.16,11.41,15,18.51h0c2.8,3,3.13,6.73,3.1,10.66-.07,8,2.58,9.75,10.38,7.16h0c.13-1.79-1.53-2.77-2-4.3h0c-.6-5.16.77-10.46-1.21-15.51h0l-.47,0-.46,0c-.21.81-.15,1.95-.67,2.35-1,.73-1.48-.34-1.83-1.08-3.79-8.12-11.29-12.94-17.11-19.25-2.92-3.16-6.24-6-7.79-10.19h0a17,17,0,0,1-3.1-8.47h0c-2.37-3.13.37-7.19-1.88-10.33h0a40.45,40.45,0,0,0,0,18.6h0C417.16,393.08,420.38,396.6,424,400Z"/><path class="cls-19" d="M438.69,353.54c1-13.2-2-25.8-6-38.2-.78-2.44-2-5.16-5.41-4.49s-2.73,3.53-2.95,5.86c-.8,8.48,2.44,16.37,3.65,24.56.86,5.75,2.35,11.22,7.82,14.51h0C437.37,355.83,437.84,354.44,438.69,353.54Zm-6.22-14.06c-4-3.09-6.49-15.64-3.78-20.33C430.45,326.19,432.85,332.37,432.47,339.48Z"/><path class="cls-22" d="M458.92,396.5h0a.36.36,0,0,1,0,.09c2.09,5,0,10.38,1.22,15.66,2.16-1.34,2.9-3.45,3.92-5.36h0q0-8.86-.05-17.72a133.68,133.68,0,0,1-1-18.55h0c0-1.8-.06-3.61-.08-5.41h0c-.07-3.5-.13-7-.2-10.51h0l0-.07c-1.73-3.75-.73-7.73-.74-11.58,0-3.6-.84-6.39-4.09-8.17h0c.11,7.7-.59,15.42.53,23.11.24,1.65.57,3.52-1.57,4.4,1.72,1.27,2.69,2.72,1.07,4.75h0c1.61,7,.54,14,.82,21C458.83,391,458.87,393.73,458.92,396.5Z"/><path class="cls-23" d="M363.52,357.87h0c6.15,10.46,8.52,21.52,5.32,33.47q-1.11,6.29-2.23,12.56h0c5.33-2.54,9.16-6.23,9.59-12.52h0c-.37-5.32-.62-10.65-1.14-15.95-.93-9.37-4.15-17.7-11.47-24.05h0C363.2,353.54,362,355.69,363.52,357.87Z"/><path class="cls-8" d="M449.36,402.84h0l7.28,16.74h0c2.09-1.74,2.19-4.12,2.2-6.58,0-5.46.05-10.93.08-16.39v-.11h0c-.05-2.77-.09-5.55-.14-8.32l-12.5,0Q447.83,395.51,449.36,402.84Z"/><path class="cls-20" d="M338.46,399.88c.19,8.3-1.73,16.49-1.18,24.81h0c.06,1.15.11,2.29.16,3.43h0l2-2.29h0c-.8-8.44,2.28-15.56,7.41-22-.08-3.5.14-7-1.1-10.41h0c-3.09-5.33-6.4-10.39-13.44-11.52,4,3.36,4.42,8,5.17,12.5h0C338.88,396,338.42,398,338.46,399.88Z"/><path class="cls-8" d="M428.78,398.51c5.82,6.31,13.32,11.13,17.11,19.25.35.74.87,1.81,1.83,1.08.52-.4.46-1.54.67-2.35a7.28,7.28,0,0,1-1.09-4.26h0c-2.23-5-5.22-9.33-9.83-12.36-4.28-2.82-6.56-6.93-8-11.66h0l-8.47.11h0C422.54,392.52,425.86,395.35,428.78,398.51Z"/><path class="cls-24" d="M436.68,361.06,442,388.12h0q.54,3.19,1.09,6.39h0a32,32,0,0,0,6.28,8.33h0q-1.55-7.33-3.08-14.68l-7.41-31.38h0C437,357.62,436.83,359.34,436.68,361.06Z"/><path class="cls-25" d="M360.58,348.25c-1.6-1.92-3.83-3-5.87-4.29-8.68-5.64-15.5-12.49-15.45-23.81a2.14,2.14,0,0,0-1.33-2.34c-3,5.75-1,10.95,1.4,16.2,4.1,9,13.08,12.71,20,18.61h0C359.78,351.16,360.18,349.71,360.58,348.25Z"/><path class="cls-26" d="M461.93,333.74c.14-12.51-.05-25-.75-37.51L458,296l-.33,34.53h0Z"/><path class="cls-24" d="M316.36,383.94q1.9-23.52,2.31-47.13h0C313.28,352.3,313.11,368,316.36,383.94Z"/><path class="cls-27" d="M456.89,362.39c-7.48-4.83-8.65-13.69-12.92-20.6.61,5.89-1.47,12.12,3.33,17.23,3.14,3.35,6.91,5.67,10.66,8.12h0C459.58,365.11,458.61,363.66,456.89,362.39Z"/><path class="cls-27" d="M296.46,360.12h0A29.1,29.1,0,0,1,299.7,384c3.64.16,3.34-3.7,5.32-5.23-.26-3.55.53-7.2-1-10.64h0a2,2,0,0,1-.08-.22c-1.51-5-5.23-8.43-8.65-12.07.14.52.28,1.05.43,1.58C296,358.29,296.21,359.21,296.46,360.12Z"/><path class="cls-28" d="M346.89,403.82a28.37,28.37,0,0,0,8.35-10.43h0l-9.45,0h0C347,396.78,346.81,400.32,346.89,403.82Z"/><path class="cls-29" d="M417.89,379.85h0c0-3.62.09-7.25.08-10.87,0-.71.32-2-1.08-1.67-1,.24-.89,1.34-.88,2.21h0C418.26,372.66,415.52,376.72,417.89,379.85Z"/><path class="cls-30" d="M304,368.09c1.53,3.44.74,7.09,1,10.64l1.06-1.12h0q0-.32-.06-.63c-.37-4.3.93-8.72-.91-12.92h0c-.38,1.3.28,2.89-1,3.94l-.08.09Z"/><path class="cls-3" d="M282.05,381.81c1.07.84.87,2.06,1,3.19h0a4.75,4.75,0,0,0,.93-.05h0v-5.14H282.1C282.09,380.47,282.07,381.14,282.05,381.81Z"/><path class="cls-2" d="M241.07,298c-.86-4.94-3.67-8.13-8.86-8.92-3.6-.54-7.17-1.22-10.78-1.84,10.4-5.9,24.41-.18,25.54,11.11,1.33,13.12,3.53,26.18,3.68,39.42,1.49,2,.46,4.34,1,6.47h0c6,4.52,10.42,10.59,15.5,16,1.3,1.38,2.81,2.56,4.23,3.83a214.35,214.35,0,0,0-3.17-34.23c-2.4-15-5.67-29.87-13.55-43.07a208,208,0,0,0-32.37-41.47c-6.46-6.39-14.09-8.16-22.56-6.33-9,2-16.61,6.67-21.73,14.34a63.1,63.1,0,0,1-17.68,17.47c1.48.9,3,1.73,4.45,2.7a723,723,0,0,1,79.33,62.38h0A184.87,184.87,0,0,0,241.07,298Z"/><path class="cls-31" d="M273.51,432.43c.22-3.95,0-7.91,0-11.87-3.79-3.52-5.33-8.52-8.27-12.6a120.83,120.83,0,0,1-11.76-27.09c-3.62-12.17-1.29-24.43-1.86-36.63h0c-.54-2.13.49-4.49-1-6.47v28l-.76.16-5.7-17.67h0c-3.24-4.29-5.63-9.14-9.35-13.12-10.22-10.95-21.76-20.51-32.53-30.88-9.9-9.54-22.69-11.2-34.64-6.87-19.25,7-31.82,21.64-37,41.54-2.31,8.9.65,17.32,8.51,24.9-.43-2.12-.56-2.95-.77-3.75q-5.41-20.9,8.14-37.67c11.23-13.92,33.76-19.76,47-11.1A161.42,161.42,0,0,1,229.43,343c8.38,10,13.23,21.89,15.84,34.67h0c2.88,7.89,4,16.32,7.35,24.06h0a1.91,1.91,0,0,1,1.15,1.8c1.68,1.87,2.43,4.2,3.22,6.52,1,4.84,4.72,8.63,5.13,13.68a28.39,28.39,0,0,0,2.7,2.35c6.7,4.44,7.11,6.57,2.45,13.31,3.15,1.34,6.3,1.87,9.45,0h0C274,437.82,273.34,435.45,273.51,432.43Z"/><path class="cls-32" d="M255.79,423.69l-1.13-2.14c-5.6-1-10.52-3.78-15.63-6.07h0L203.2,400a28.13,28.13,0,0,0-10-2.6l-5.63,0h0c-9.08.64-17.79,3.09-26.37,5.85-8.92,2.87-13.89,9.45-15.33,18.66-.28,1.81-1.64,3.9.87,5.84a29.2,29.2,0,0,1,16-15.08,56.85,56.85,0,0,1,24.89-4.52c2.49.18,5.09-.83,7.44.74h0l30.21,9.82h0l17.88,7.22h0C247.43,425.42,251.34,423.05,255.79,423.69Z"/><path class="cls-33" d="M193.18,397.42c-.38-6.8,4.51-9.72,9.39-12.51,4.36-2.49,7.5.24,10.74,2.77,9.84,7.64,16.95,17.93,25.86,26.46.2.19-.08.88-.14,1.34h0c5.11,2.29,10,5.07,15.63,6.07-2.62-3.08-5.58-6-6-10.34-1.85,4.08-3.38.65-4.25-.47-8.59-10.95-17.13-21.94-23.43-34.46-4.4-8.76-13.66-10.83-20.73-4.22-7.24,6.78-12.89,14.68-12.72,25.34h0Z"/><path class="cls-34" d="M249.89,365.92l.76-.16v-28c-.15-13.24-2.35-26.3-3.68-39.42-1.13-11.29-15.14-17-25.54-11.11,3.61.62,7.18,1.3,10.78,1.84,5.19.79,8,4,8.86,8.92a184.87,184.87,0,0,1,3,37.87h0l.09,12.38h0Z"/><path class="cls-34" d="M254.66,421.55l1.13,2.14,4.18,0c-.75-4.58-5.26-7.55-5.33-12.43h0c-1.08-1.2-.95-2.71-1-4.17h0c-1.31-1.61-.92-3.53-1-5.37h0c-3.38-7.74-4.47-16.17-7.35-24.06h0c-.22,11.31,1.43,22.42,3.41,33.51h0C249.08,415.58,252,418.47,254.66,421.55Z"/><path class="cls-35" d="M187.65,408.15c.4,3.48-.42,7.15,1.6,10.42,3.24-2.53,1.22-8.09,5.84-9.68h0C192.74,407.32,190.14,408.33,187.65,408.15Z"/><path class="cls-36" d="M552.14,481c-35.48-7.08-71.38-10.56-107.41-12a605.14,605.14,0,0,0-62.15.53c-17.32,1.08-34.59,2.29-51.84,4.27a557.41,557.41,0,0,0-55.94,9.06c-36.25,7.95-72.24,16.79-109.33,20.87-29.09,3.2-57.79,9.88-86.36,16.5-23.61,5.47-45.23,15-62.23,33-7.33,7.8-11,17.3-9.87,27.66,2.16,19.51,11.66,35.9,24.64,50.24,17.23,19,38.89,32,61.57,43.29,29.09,14.44,59.7,24.94,91.14,33a672.84,672.84,0,0,0,95.22,16.84c20.92,2.23,41.89,3.16,62.86,3.82,15.09.48,30.19-1.16,45.28-1.75,18.78-.73,37.33-3.34,55.87-5.73,26.29-3.39,52.46-7.83,78.58-12.34,17.81-3.07,35.42-7.1,52.44-13.46,8.87-3.31,16.86-8.28,25.39-12.2v-41.5c-16.21,13-35.24,19.76-55.21,24.31A552.48,552.48,0,0,1,486.32,675c-18.92,2.22-37.76,5.16-56.71,7-10.5,1-21.08,1.78-31.63,2.52-20.49,1.43-41,2.64-61.48,1.71-21.46-1-42.91-2.12-64.31-4.64-19.81-2.34-39.5-5.27-59.08-8.93A535.66,535.66,0,0,1,161,659.91a380,380,0,0,1-59-22.33c-19-9.2-37.14-20-50.07-37.43a64.81,64.81,0,0,1-9-15.83c-6.52-17.39-1-26.17,12-36,16.64-12.61,36.25-18.21,56.42-21.75,24.06-4.23,48.13-8.65,72.37-11.51,21.51-2.54,43.08-4.52,64.35-8.73,20.24-4,40.43-8.42,60.88-11,14.77-1.88,29.6-3.41,44.44-4.78,29.55-2.73,59.13-1.79,88.69-1.86,20.14-.05,40.17,2.06,60.21,4a665,665,0,0,1,80,12.76c5.95,1.31,11.77,3.23,17.64,4.91V491.71a14.05,14.05,0,0,1-2.69-.36C582.44,487.06,567.31,484,552.14,481Z"/><path class="cls-37" d="M447.28,450.94h0c-3.32-2.09-7-.59-10.48-1C440.12,452,443.8,450.5,447.28,450.94Z"/><path class="cls-38" d="M410.69,449.92h0c-3.14.38-6.47-1-9.44,1C404.38,450.51,407.72,452,410.69,449.92Z"/><path class="cls-9" d="M384.52,451h0c-1.78.18-3.75-.6-5.25,1C381.05,451.81,383,452.56,384.52,451Z"/><path class="cls-8" d="M525.74,411.67c-2,4.2-4.44,8.19-4.15,13.08h0c15.16.82,30,4,44.94,6.31h0c-3.26-10.63-1.69-21.57-2-32.38-6.62-1.58-13.76-.64-20-4.21C537.88,399.76,529.69,403.33,525.74,411.67Z"/><path class="cls-8" d="M581.21,400.76c-5.13,11-6.5,22.11-1,33.43h0c6.8.35,13.29,2.21,19.81,4V405.62C593.83,403.65,587.07,403.9,581.21,400.76Z"/><path class="cls-8" d="M480.77,391.28c2.48,10,.34,19.64-2,29.28h0c3.52,0,7.05-.11,10.43,1.11h0c8.14-5,13.54-13,20.86-18.92.06-4.28.85-8.68-2-12.49-8.86,1.82-17.58-.21-26.34-1h0Z"/><path class="cls-39" d="M518.44,410.4a105,105,0,0,0-7.34,12.34h0c-.54,5.33.11,10.1,5.69,12.71,2.32,1.09,3.53.72,3.76-2.11s-1-5.94,1-8.59h0c-.29-4.89,2.16-8.88,4.15-13.08,4-8.34,12.14-11.91,18.82-17.21,11.55-14,14.38-35.83,5.16-44.48.63,6.37-.54,12.12-1,17.95-.82,11.36-4,21.49-15.64,26.55h0C528.78,400.29,522.76,404.51,518.44,410.4Z"/><path class="cls-40" d="M305.92,428.88h0c-4.44-9-5.27-18.43-4-28.2h0c.66-5.85,1.75-11.57,5.11-16.59.25-3.51,3.61-5.67,4.5-9.41l-4.82,2.61-.58.32h0L305,378.73c-2,1.53-1.68,5.39-5.32,5.23h0c-.78,1.86-1.59,3.7-2.34,5.57-1.34,3.38-1.75,1.05-2.37,0a1.72,1.72,0,0,1-.39,0,7.8,7.8,0,0,0,.92,4.86h0c-.4,3.5-1.39,6.94-1.06,10.51h0c.15,5.62.21,11.23-.9,16.78h0c1.7,3,3.05,6,1,9.34h0c.67,2.09,1.35,4.18,2,6.27,5.28,1.93,8.24.64,9.51-4.15h0C306,431.73,306,430.31,305.92,428.88Z"/><path class="cls-40" d="M264.82,426.11a28.39,28.39,0,0,1-2.7-2.35l-2.15,0h0l-4.18,0c-4.45-.64-8.36,1.73-12.61,2.24h0c-1.5,1.65-3.07,3.24-4.48,5-3.9,4.78-7.86,9.55-9.08,15.87h0c.79,1.51,1.38,3.52,3.42,3.4,2.49-.15,1.41-2.72,2.19-4.07.26-.45.44-.93.66-1.4,3.6-10.8,15.48-13.68,26.14-6.34h0l5.24,1.06h0C271.93,432.68,271.52,430.55,264.82,426.11Z"/><path class="cls-20" d="M572.71,415.25c-.7,7-2.73,13.91-1,21h0c1.37,3.59,4.78,4.32,7.59,3.7,3.32-.73.22-3.83.87-5.77h0c-5.48-11.32-4.11-22.43,1-33.43,1.56-2.5,3.11-5,4.68-7.51,8.18-13,4.64-29.11-8.24-35.87,6,6.89,9,14.73,7.65,23.85-1.1,7.44-4.71,13.72-9.27,19.53h0C574.74,405.55,572.78,410.18,572.71,415.25Z"/><path class="cls-20" d="M510,402.75c-1.65,10.24-8.21,17.72-14.35,25.42-1.27,1.6-3.31,2.65-3.44,5h0c2.94,3.9,5.44,1.86,7.46-.82,2.6-3.44,4.83-7.14,7.23-10.72h0c3.09-4.91,7.83-8.76,9.49-14.61h0c-.2-4.21.35-8.49-1-12.62h0c-1.31-2.23-2.67-4.42-3.91-6.68-4.68-8.57-11.6-15.91-14.07-25.68-.33,0-.66-.06-1-.07h0c.72,10.71,6,19.55,11.57,28.27h0C510.88,394.07,510.09,398.47,510,402.75Z"/><path class="cls-41" d="M566.53,431.05h0c-.3,3.76,1.15,5.77,5.2,5.2h0c-1.75-7.1.28-14,1-21a20.91,20.91,0,0,1-.85-14.61h0c.72-10,4.31-19,9.84-27.37a28.45,28.45,0,0,0-5.55,3.8c-6.58,5.72-9.6,13.4-11.64,21.59h0C564.84,409.48,563.27,420.42,566.53,431.05Z"/><path class="cls-42" d="M495.68,428.17c6.14-7.7,12.7-15.18,14.35-25.42-7.32,5.9-12.72,13.92-20.86,18.92h0c-1.64,3.23-5.38,4.22-7.43,7-1.1,1.48-2.55,3-1.48,5.09,1,1.85,2.92,1.47,4.61,1.48,2.64,0,5-1,7.37-2h0C492.37,430.82,494.41,429.77,495.68,428.17Z"/><path class="cls-20" d="M480.77,391.28c-4.51,3.44-4.24,9.08-6.29,13.65V408h0c-1.19,1.56-.5,3.86-2.08,5.27q-1.56,10.45-3.13,20.92h0a4.39,4.39,0,0,0,5.23-3.11c1.34-3.54,2.82-7,4.24-10.54h0C481.11,410.92,483.25,401.26,480.77,391.28Z"/><path class="cls-20" d="M294.56,431h0a9.66,9.66,0,0,1-1.22-5.18c-1.35-7.07-2.2-14.12,1.12-20.94h0c-.33-3.57.66-7,1.06-10.51l-3.1,2.12c-1.26,4-3.12,7.81-3.65,11.85-1.28,9.61-4.77,19.26-.54,29h0c2.78-.13,5.58,2.15,8.35-.06h0C295.91,435.22,295.23,433.13,294.56,431Z"/><path class="cls-20" d="M374,403.88h0c-8.47,4.06-12.7,12.35-18.77,18.8.3,2.43,2.2,2.73,4.06,3.1,5.38,1.08,9.13-.56,10.48-6.24h0C371.18,414.31,373.46,409.33,374,403.88Z"/><path class="cls-43" d="M472.4,413.29c.36-1.89-1.09-4.49,2.08-5.27h0v-3.09c-1.87-1.06-2.24.49-3,1.63-2.49,4-3.44,8.49-4.4,13-.4,2.32-1.46,4.52-.8,7.6-1.92-1.67-.93-3.21-1.31-4.45h0a31.61,31.61,0,0,0-5.16,10.41h0c1.7.06,3.31,0,4.57,1.67,1.73,2.26,3.47,1.71,4.84-.57h0Q470.83,423.76,472.4,413.29Z"/><path class="cls-8" d="M235.89,444.7,262,438.36h0C251.37,431,239.49,433.9,235.89,444.7Z"/><path class="cls-44" d="M516.42,407h0c-1.66,5.85-6.4,9.7-9.49,14.61h0c1.1,1.45,2.72,1,4.17,1.09h0a105,105,0,0,1,7.34-12.34c4.32-5.89,10.34-10.11,14.67-15.92h0l-5.44-1.09C523.06,397.23,521.3,403.43,516.42,407Z"/><path class="cls-45" d="M309.14,401.79a105.32,105.32,0,0,0-3.22,27.09h0c.05,1.43.11,2.85.17,4.28h0l2,2.12h0A314.43,314.43,0,0,0,309.14,401.79Z"/><path class="cls-46" d="M582.36,505.43a665,665,0,0,0-80-12.76c-20-1.92-40.07-4-60.21-4-29.56.07-59.14-.87-88.69,1.86-14.84,1.37-29.67,2.9-44.44,4.78-20.45,2.59-40.64,7-60.88,11-21.27,4.21-42.84,6.19-64.35,8.73-24.24,2.86-48.31,7.28-72.37,11.51C91.21,530.12,71.6,535.72,55,548.33c-13,9.82-18.51,18.6-12,36a64.81,64.81,0,0,0,9,15.83C64.86,617.6,83,628.38,102,637.58a380,380,0,0,0,59,22.33,535.66,535.66,0,0,0,52.12,12.74c19.58,3.66,39.27,6.59,59.08,8.93,21.4,2.52,42.85,3.66,64.31,4.64,20.48.93,41-.28,61.48-1.71,10.55-.74,21.13-1.49,31.63-2.52,18.95-1.87,37.79-4.81,56.71-7a552.48,552.48,0,0,0,58.47-9.54c20-4.55,39-11.29,55.21-24.31V510.34C594.13,508.66,588.31,506.74,582.36,505.43Z"/><path class="cls-42" d="M516.42,407h0c4.88-3.61,6.64-9.81,11.25-13.65,1.33-2.43,2.56-4.91,4-7.28,9.75-15.93,9.1-37.62-2-52.65-3.94-5.32-8.52-10.28-16.09-11.95,24.16,24,23.4,48.27,1.87,72.91h0C516.77,398.55,516.22,402.83,516.42,407Z"/><path class="cls-15" d="M487.24,318.21h0c4.32-.21,5.94-3.45,6.95-6.79,2.41-8,4.42-16.1,6.73-24.11a24.09,24.09,0,0,0,.69-7.77c-.19-4.88-3.41-6.75-7.82-4.67a6.9,6.9,0,0,0-3.67,4.19c-2.88,8.22-5.6,16.51-7.05,25.09-.66,3.91-.73,8,1.09,11.81Zm-.08-19.91c1.66-6.43,3.44-12.84,5.18-19.25l2,.36c-.31,6.94-2.63,13.51-4.52,20.16a1.15,1.15,0,0,1-1.59.87A1.83,1.83,0,0,1,487.16,298.3Z"/><path class="cls-2" d="M461.18,296.23h0c.7,12.49.89,25,.75,37.51,5.28,3.8,8.65,9.5,13.62,13.6h0c2.43-5.9-.07-11.58-1.17-17.16-2.45-12.39-5.58-24.64-11.18-36.09h0C462.52,294.8,461.85,295.51,461.18,296.23Z"/><path class="cls-24" d="M481.72,353.59h0q2.75-17.68,5.51-35.38h0L484.16,316l-5.61,34.4h0A7.18,7.18,0,0,0,481.72,353.59Z"/><path class="cls-47" d="M572.71,415.25c.07-5.07,2-9.7,3.32-14.49h0l-4.17-.12h0A20.91,20.91,0,0,0,572.71,415.25Z"/><path class="cls-48" d="M497.44,362.06c-.45-2.11-.89-4.22-1.53-7.29-.72,3.16-.63,5.24.55,7.22h0C496.78,362,497.11,362,497.44,362.06Z"/><path class="cls-2" d="M294.27,379.78c.13,3.11.26,6.21.38,9.32h0a1.31,1.31,0,0,1,.33.41c.62,1.07,1,3.4,2.37,0,.75-1.87,1.56-3.71,2.34-5.57h0a29.1,29.1,0,0,0-3.24-23.84h0c-2,.14-1.91,1.59-1.94,3q-.15,7.9-.29,15.79A8.7,8.7,0,0,1,294.27,379.78Z"/><path class="cls-49" d="M295.52,394.41h0a7.8,7.8,0,0,1-.92-4.86c0-.15,0-.3,0-.45h0c-.12-3.11-.25-6.21-.38-9.32,0-.3,0-.6,0-.89-1.83,5.75-2,11.68-1.81,17.64h0Z"/><path class="cls-50" d="M284,390.21c-1.57-1.5-.83-3.44-1-5.21h0c-.09-1.13.11-2.35-1-3.19-.82,6,1.15,11.81,1,17.76h0C285,396.6,283.68,393.33,284,390.21Z"/><path class="cls-51" d="M284,390.21c0-1.75,0-3.51-.07-5.26h0a4.75,4.75,0,0,1-.93.05h0C283.18,386.77,282.44,388.71,284,390.21Z"/><path class="cls-3" d="M267.15,360.25c-5.08-5.42-9.49-11.49-15.5-16h0c.57,12.2-1.76,24.46,1.86,36.63A120.83,120.83,0,0,0,265.27,408c2.85.62,5.44-.76,8.17-1.06h0c.36-14.32-.71-28.58-2.06-42.81h0C270,362.81,268.45,361.63,267.15,360.25Z"/><path class="cls-8" d="M265.27,408c2.94,4.08,4.48,9.08,8.27,12.6h0q-.06-6.82-.11-13.66h0C270.71,407.2,268.12,408.58,265.27,408Z"/><path class="cls-8" d="M301.87,400.68c-1.23,9.77-.4,19.24,4,28.2h0a105.32,105.32,0,0,1,3.22-27.09c-.32-.68-.63-1.36-.95-2.05Z"/><path class="cls-52" d="M301.87,400.68h0l6.32-.94c.81-5.31-1.22-10.4-1.21-15.65h0C303.62,389.11,302.53,394.83,301.87,400.68Z"/><path class="cls-2" d="M474.46,374.49h0q1.13-6.19,2.26-12.4h0c-2.8-8.07-7.88-14.65-13.93-22.4v15h0c.07,3.5.13,7,.2,10.51Z"/><path class="cls-53" d="M471.35,389.21a5.11,5.11,0,0,1,.86-.2l.45-7.24h0a25.4,25.4,0,0,0-9.59-11.15h0a133.68,133.68,0,0,0,1,18.55Z"/><path class="cls-54" d="M474.46,374.49h0a20,20,0,0,1-1.8,7.28h0l-.45,7.24c.34,1.33.93,2,1.66.29,1.36-3.16,2.55-6.38,3.81-9.58h0c0-1.45-.37-3,1-4.12,0-1.69.07-3.39.1-5.09h0c-.26-2.91.53-6.08-2.06-8.42h0Q475.58,368.29,474.46,374.49Z"/><path class="cls-8" d="M471.35,389.21l-7.3,0q0,8.85.05,17.72h0C468.05,401.63,471.87,396.31,471.35,389.21Z"/><path class="cls-55" d="M466.33,427.16c-.66-3.08.4-5.28.8-7.6-2,.17-2.05,1.66-2.11,3.14h0C465.4,424,464.41,425.49,466.33,427.16Z"/><path class="cls-56" d="M478.68,375.6c.33,0,.65,0,1,0h0c-.1-1.72.68-3.59-.88-5.06h0C478.75,372.21,478.72,373.91,478.68,375.6Z"/><path class="cls-57" d="M478.68,375.6c-1.37,1.12-1,2.67-1,4.12h0l2-4.15h0C479.33,375.58,479,375.6,478.68,375.6Z"/><path class="cls-58" d="M323.21,184.28h1.05V165.08h-1.05Z"/><path class="cls-59" d="M218.79,178.92a53.12,53.12,0,0,0-11.73-19A42,42,0,0,0,218.79,178.92Z"/><path class="cls-8" d="M346.84,418.51h0a108.64,108.64,0,0,1,19.77-14.61h0q1.13-6.27,2.23-12.56l-5.23,1c-3.92,5.89-7.26,12.18-13.44,16.31a8.45,8.45,0,0,0-3.38,5.7C346.81,415.73,346.83,417.12,346.84,418.51Z"/><path class="cls-60" d="M346.84,418.51h0c0-1.39,0-2.78,0-4.17a10.09,10.09,0,0,0-2.05,6.23h0Z"/><path class="cls-59" d="M454.75,275.72c.17,1.06.68,2,1.93,2a1.91,1.91,0,0,0,1.94-2c.14-2.41.05-4.82,0-7.24,0-2.58.06-5.16-.06-7.74a2.16,2.16,0,0,0-1.19-1.47,1.12,1.12,0,0,0-1.45,1.05C455.62,265.49,454,270.51,454.75,275.72Z"/><path class="cls-61" d="M442,388.12h0l-5.31-27.06c-4.44,8.91-6.3,17.91-.87,27.15Z"/><path class="cls-62" d="M442,388.12h0l-6.18.09a16.9,16.9,0,0,0,7.27,6.3h0Q442.53,391.32,442,388.12Z"/><path class="cls-63" d="M447.3,412.23h0a7.28,7.28,0,0,0,1.09,4.26l.46,0,.47,0h0A5.62,5.62,0,0,0,447.3,412.23Z"/><path class="cls-64" d="M368.84,391.34c3.2-11.95.83-23-5.32-33.47h0c-2.06,2.07-.35,4.16.51,5.68,2.54,4.47,2.8,9.17,2.79,14.1,0,5.17-2.13,9.79-3.21,14.68h0Z"/><path class="cls-59" d="M432.47,339.48c.38-7.11-2-13.29-3.78-20.33C426,323.84,428.51,336.39,432.47,339.48Z"/><path class="cls-65" d="M472.66,381.77h0a20,20,0,0,0,1.8-7.28h0L463,365.21h0c0,1.8.05,3.61.08,5.41h0A25.4,25.4,0,0,1,472.66,381.77Z"/><path class="cls-66" d="M254.64,411.3h0c.07,4.88,4.58,7.85,5.33,12.43h0l2.15,0c-.41-5.05-4.17-8.84-5.13-13.68A2.83,2.83,0,0,1,254.64,411.3Z"/><path class="cls-67" d="M253.61,407.13h0c.08,1.46-.05,3,1,4.17h0a2.83,2.83,0,0,0,2.35-1.22c-.79-2.32-1.54-4.65-3.22-6.52C253.72,404.75,253.66,405.94,253.61,407.13Z"/><path class="cls-68" d="M253.61,407.13h0c0-1.19.11-2.38.16-3.57a1.91,1.91,0,0,0-1.15-1.8h0C252.69,403.6,252.3,405.52,253.61,407.13Z"/><path class="cls-3" d="M239.17,414.14c-8.91-8.53-16-18.82-25.86-26.46-3.24-2.53-6.38-5.26-10.74-2.77-4.88,2.79-9.77,5.71-9.39,12.51a28.13,28.13,0,0,1,10,2.6L239,415.48h0C239.09,415,239.37,414.33,239.17,414.14Z"/><path class="cls-69" d="M293.34,425.86c.07-1.39.14-2.77.22-4.16h0c1.11-5.55,1.05-11.16.9-16.78h0C291.14,411.74,292,418.79,293.34,425.86Z"/><path class="cls-70" d="M293.34,425.86a9.66,9.66,0,0,0,1.22,5.18h0c2.05-3.37.7-6.37-1-9.34h0C293.48,423.09,293.41,424.47,293.34,425.86Z"/><path class="cls-71" d="M472.4,413.29c1.58-1.41.89-3.71,2.08-5.27h0C471.31,408.8,472.76,411.4,472.4,413.29Z"/><path class="cls-72" d="M488.25,300.44a1.15,1.15,0,0,0,1.59-.87c1.89-6.65,4.21-13.22,4.52-20.16l-2-.36c-1.74,6.41-3.52,12.82-5.18,19.25A1.83,1.83,0,0,0,488.25,300.44Z"/></g></svg>