<svg xmlns="http://www.w3.org/2000/svg" viewBox="0 0 156.42 153.22"><defs><style>.cls-1{fill:#e9daf2;stroke:#a09dd1;stroke-miterlimit:10;stroke-width:0.75px;}.cls-1,.cls-2,.cls-3{opacity:0.84;}.cls-2{fill:#d6d6f2;}.cls-3{fill:#f9f5fc;}</style></defs><title>CarbDio</title><g id="Layer_2" data-name="Layer 2"><g id="Bubble"><ellipse class="cls-1" cx="78.21" cy="76.61" rx="77.83" ry="76.24"/><path class="cls-2" d="M14.83,92.84c-3.8,3.33,3.22,17,7.61,23.58a65.47,65.47,0,0,0,22,20A70,70,0,0,0,63,143.63c6.81,1.6,25.76,6.06,45.68-3.63,14.42-7,21.72-17.92,25.93-24.18,6.48-9.66,7.86-16.72,8.21-18.71,1.1-6.23,2.72-15.4-1.74-19.65-6.65-6.32-24,.91-53.09,13.31-25.21,10.76-28.64,14.6-38.95,14C30.09,103.52,19,89.17,14.83,92.84Z"/><ellipse class="cls-3" cx="129.34" cy="53.61" rx="7.94" ry="7.77"/><ellipse class="cls-3" cx="19.89" cy="46.1" rx="4.7" ry="4.6"/><path class="cls-3" d="M25.31,36.65c-.55-.54,4.51-6.83,11.11-12.69A75.74,75.74,0,0,1,53.7,12.47c9.13-4.67,13-4.77,15.85-4.23.59.11,5.84,1.16,6.17,3.62.26,1.93-2.6,3.74-3.7,4.44-3.75,2.37-7.38,2.5-10.29,2.82,0,0-3.58.12-14.2,3.63C33.44,27.41,26,37.33,25.31,36.65Z"/></g></g></svg>