<svg xmlns="http://www.w3.org/2000/svg" viewBox="0 0 206.29 202.08"><defs><style>.cls-1{fill:#ded72a;}.cls-2{fill:#fffdf5;fill-opacity:0.34;stroke:#cec69d;stroke-miterlimit:10;stroke-width:0.99px;}.cls-2,.cls-3,.cls-4{opacity:0.84;}.cls-3{fill:#f7f3df;fill-opacity:0.61;}.cls-4{fill:#f7f4e7;}</style></defs><title>Energy</title><g id="Layer_2" data-name="Layer 2"><g id="Bubble"><path class="cls-1" d="M113.91,35.8H91a2.22,2.22,0,0,0-2.16,1.7l-15,66.57a2.46,2.46,0,0,0,2.4,3H98.59a3.1,3.1,0,0,1,3.08,3.53l-8.34,61.19a.8.8,0,0,0,1.54.41l35.64-86.11a1.16,1.16,0,0,0-1.07-1.59H110.09A3.15,3.15,0,0,1,107,80.72l9.07-42.24A2.21,2.21,0,0,0,113.91,35.8Z"/><ellipse class="cls-2" cx="103.15" cy="101.04" rx="102.65" ry="100.55"/><path class="cls-3" d="M19.55,122.44c-5,4.4,4.26,22.44,10,31.1a86.51,86.51,0,0,0,29,26.32,92.35,92.35,0,0,0,24.43,9.57c9,2.11,34,8,60.25-4.79,19-9.24,28.65-23.64,34.19-31.89,8.56-12.74,10.37-22.06,10.83-24.67,1.46-8.22,3.6-20.32-2.29-25.92-8.77-8.34-31.7,1.2-70,17.56C82.77,133.91,78.25,139,64.65,138.11,39.69,136.53,25.07,117.6,19.55,122.44Z"/><ellipse class="cls-4" cx="170.59" cy="70.71" rx="10.47" ry="10.25"/><ellipse class="cls-4" cx="26.23" cy="60.8" rx="6.2" ry="6.07"/><path class="cls-4" d="M33.38,48.34c-.72-.72,5.94-9,14.65-16.74a100,100,0,0,1,22.8-15.16c12-6.15,17.16-6.29,20.9-5.58.77.15,7.7,1.53,8.14,4.79.34,2.53-3.44,4.92-4.89,5.84C90,24.63,85.26,24.8,81.41,25.22c0,0-4.72.15-18.72,4.78C44.1,36.15,34.26,49.23,33.38,48.34Z"/></g></g></svg>