<svg xmlns="http://www.w3.org/2000/svg" viewBox="0 0 156.42 153.22"><defs><style>.cls-1{fill:#d8d8d8;}.cls-2{fill:#a3a3a3;}.cls-3{fill:#c9c9c9;}.cls-4{fill:#a8a8a8;}.cls-5{fill:#bababa;}.cls-6{fill:#e5e5e5;}.cls-7{fill:#b7b7b7;}.cls-8{fill:#c4c4c4;}.cls-9{fill:#fff;}.cls-10{fill:#f4f4f4;}.cls-11{fill:#f7f7f7;}.cls-12{fill:#f3f5ff;fill-opacity:0.34;stroke:#a09dd1;stroke-miterlimit:10;stroke-width:0.75px;}.cls-12,.cls-13,.cls-14{opacity:0.84;}.cls-13{fill:#dee4f9;fill-opacity:0.61;}.cls-14{fill:#e5eaf9;}</style></defs><title>Iron</title><g id="Layer_2" data-name="Layer 2"><g id="Bubble"><polygon class="cls-1" points="22.36 62.27 71.83 35.29 92.74 45.86 45.81 78.46 22.36 62.27"/><polygon class="cls-2" points="46.74 92.88 45.81 78.46 93.84 47.5 99.17 56.92 46.74 92.88"/><polygon class="cls-3" points="22.36 62.27 17.3 72.12 46.74 92.88 45.81 78.46 22.36 62.27"/><polygon class="cls-1" points="52.97 85.04 104.19 55.59 132.25 68.18 79.55 101.33 52.97 85.04"/><polygon class="cls-4" points="81.13 114.96 79.55 101.33 132.25 68.18 139.12 77.41 81.13 114.96"/><polygon class="cls-5" points="52.97 85.04 47.74 94.31 81.13 114.96 79.55 101.33 52.97 85.04"/><polygon class="cls-6" points="45.83 64.6 92.16 36.82 118.6 48.85 69.46 79.41 45.83 64.6"/><polygon class="cls-7" points="69.75 91.41 69.46 79.41 118.6 48.85 123.94 58.27 69.75 91.41"/><polygon class="cls-8" points="45.83 64.6 41.37 72.05 69.75 91.41 69.46 79.41 45.83 64.6"/><path class="cls-9" d="M53.51,63.42c-.44-.2,9.48-6.48,12.55-8.4,4.6-2.87,8.1-4.86,9.39-5.59,1.66-.94,4-2.2,8.75-4.71,1.62-.85,4-2.11,7.4-3.55a17.16,17.16,0,0,1,3-1.16C95.43,40.45,54.38,63.81,53.51,63.42Z"/><path class="cls-10" d="M25.68,62.09q6.54-3.59,12.51-7h0c6.23-3.57,7.27-3.76,12.51-6.63a48.61,48.61,0,0,1,5.69-2.71c1.21-.47,2-.81,2.14-.69.29.32-4.89,3.75-10.15,6.69-5.91,3.31-11,5.69-11,5.69C31.83,60,30,60.49,29.53,62c-.89,3.08,5.49,6.45,5.4,6.52S32.75,67.09,25.68,62.09Z"/><path class="cls-9" d="M62.11,70.39c1.81.91,2.94,1.62,5.54,2.87a12.55,12.55,0,0,0,1.78.79c2.62.57,5.47-1.46,8.58-3.49a109.81,109.81,0,0,1,10.06-6s-.71.62-10.07,7.23c-2.14,1.52-5,2.42-6.91,4.09a2.48,2.48,0,0,1-1.41.65C68.42,76.57,67.4,75.38,67,75c-3.15-3.5-9.62-6.18-9.32-6.48S61.11,69.89,62.11,70.39Z"/><path class="cls-11" d="M109,77.78s-2.67,1.53-6.69,4.24c-6.79,4.57-10.19,6.86-11.82,8.56A21.78,21.78,0,0,1,84.14,95l-.45.18a12.55,12.55,0,0,1-3.15.94C80,95.6,109,77.75,109,77.78Z"/><ellipse class="cls-12" cx="78.21" cy="76.61" rx="77.83" ry="76.24"/><path class="cls-13" d="M14.83,92.84c-3.8,3.33,3.22,17,7.61,23.58a65.47,65.47,0,0,0,22,20A70,70,0,0,0,63,143.63c6.81,1.6,25.76,6.06,45.68-3.63,14.42-7,21.72-17.92,25.93-24.18,6.48-9.66,7.86-16.72,8.21-18.71,1.1-6.23,2.72-15.4-1.74-19.65-6.65-6.32-24,.91-53.09,13.31-25.21,10.76-28.64,14.6-38.95,14C30.09,103.52,19,89.17,14.83,92.84Z"/><ellipse class="cls-14" cx="129.34" cy="53.61" rx="7.94" ry="7.77"/><ellipse class="cls-14" cx="19.89" cy="46.1" rx="4.7" ry="4.6"/><path class="cls-14" d="M25.31,36.65c-.55-.54,4.51-6.83,11.11-12.69A75.74,75.74,0,0,1,53.7,12.47c9.13-4.67,13-4.77,15.85-4.23.59.11,5.84,1.16,6.17,3.62.26,1.93-2.6,3.74-3.7,4.44-3.75,2.37-7.38,2.5-10.29,2.82,0,0-3.58.12-14.2,3.63C33.44,27.41,26,37.33,25.31,36.65Z"/></g></g></svg>