<svg xmlns="http://www.w3.org/2000/svg" viewBox="0 0 160.41 152.75"><defs><style>.cls-1{fill:#e6fab5;stroke:#a5af7b;stroke-miterlimit:10;stroke-width:0.75px;}.cls-1,.cls-2,.cls-3{opacity:0.84;}.cls-2{fill:#dcf2ad;}.cls-3{fill:#fbfcf5;}</style></defs><title>Nitro</title><g id="Layer_2" data-name="Layer 2"><g id="Bubble"><ellipse class="cls-1" cx="80.21" cy="76.37" rx="79.83" ry="76"/><path class="cls-2" d="M15.2,92.55c-3.9,3.32,3.31,17,7.81,23.51A66.4,66.4,0,0,0,45.59,136a73.06,73.06,0,0,0,19,7.23c7,1.6,26.43,6,46.86-3.61,14.79-7,22.28-17.87,26.59-24.11,6.65-9.63,8.07-16.67,8.43-18.65,1.13-6.21,2.79-15.36-1.79-19.59-6.82-6.31-24.65.91-54.46,13.27C64.36,101.22,60.84,105,50.27,104.39,30.86,103.2,19.48,88.89,15.2,92.55Z"/><ellipse class="cls-3" cx="132.65" cy="53.45" rx="8.14" ry="7.75"/><ellipse class="cls-3" cx="20.39" cy="45.95" rx="4.82" ry="4.59"/><path class="cls-3" d="M26,36.54c-.56-.54,4.62-6.81,11.39-12.66A78,78,0,0,1,55.07,12.43c9.36-4.65,13.35-4.76,16.25-4.22.61.11,6,1.16,6.34,3.62.26,1.91-2.67,3.72-3.8,4.42-3.85,2.37-7.57,2.5-10.56,2.81,0,0-3.67.12-14.56,3.62C34.29,27.32,26.64,37.21,26,36.54Z"/></g></g></svg>