<svg xmlns="http://www.w3.org/2000/svg" viewBox="0 0 156.53 150.1"><defs><style>.cls-1{fill:#d4f0ff;stroke:#82bfbc;stroke-miterlimit:10;stroke-width:0.75px;}.cls-1,.cls-2,.cls-3{opacity:0.84;}.cls-2{fill:#c7f1ff;}.cls-3{fill:#f3fbff;}</style></defs><title>Oxy</title><g id="Layer_2" data-name="Layer 2"><g id="Bubble"><ellipse class="cls-1" cx="78.26" cy="75.05" rx="77.89" ry="74.68"/><path class="cls-2" d="M14.84,91C11,94.21,18.07,107.61,22.45,114a65.17,65.17,0,0,0,22,19.55A71.5,71.5,0,0,0,63,140.7c6.82,1.57,25.78,5.93,45.72-3.56,14.43-6.86,21.73-17.56,25.94-23.69,6.49-9.46,7.87-16.38,8.22-18.32C144,89,145.63,80,141.16,75.88c-6.66-6.19-24.06.89-53.13,13-25.23,10.54-28.66,14.3-39,13.66C30.12,101.41,19,87.35,14.84,91Z"/><ellipse class="cls-3" cx="129.43" cy="52.52" rx="7.94" ry="7.61"/><ellipse class="cls-3" cx="19.9" cy="45.16" rx="4.7" ry="4.51"/><path class="cls-3" d="M25.32,35.91c-.54-.53,4.52-6.7,11.12-12.44a76.22,76.22,0,0,1,17.3-11.25c9.13-4.57,13-4.67,15.86-4.15.58.11,5.84,1.14,6.18,3.56.25,1.88-2.61,3.66-3.71,4.34-3.75,2.33-7.38,2.46-10.3,2.77,0,0-3.58.11-14.21,3.55C33.46,26.85,26,36.57,25.32,35.91Z"/></g></g></svg>