<svg xmlns="http://www.w3.org/2000/svg" viewBox="0 0 248.64 245.18"><defs><style>.cls-1{fill:#ff6a6a;}.cls-2{fill:#d4f0ff;stroke:#82bfbc;stroke-miterlimit:10;stroke-width:0.75px;}.cls-2,.cls-3{opacity:0.29;}.cls-3{fill:#c7f1ff;}.cls-4{fill:#e5e3fc;opacity:0.84;}</style></defs><title>Exit</title><g id="Layer_2" data-name="Layer 2"><g id="sett"><g id="exit"><path class="cls-1" d="M123.07,74.61a8.11,8.11,0,0,0-3.1,2.93,7.11,7.11,0,0,0-.86,3.06,86.39,86.39,0,0,0-.26,9.63c.06,1.6.06,3.72.06,8,0,5-.09,5.23-.06,9.76,0,4.1.07,4.08.06,6.5,0,1.21,0,2.43,0,3.64a12.89,12.89,0,0,0,.41,3.57,5.61,5.61,0,0,0,.18.57,11.79,11.79,0,0,0,2.92,3.64,5.43,5.43,0,0,0,2.43,1.4,8.51,8.51,0,0,0,3.1.51,9.47,9.47,0,0,0,5-1.4,8.81,8.81,0,0,0,2.51-2.43,9.11,9.11,0,0,0,1.39-3.25,11.29,11.29,0,0,0,.33-2.68c.07-3.09.1-4.63,0-6.69,0-.26,0,.28-.07-8.55,0-5.53-.06-5.67-.06-7.65,0-4.43,0-6.65.06-8s.09-2,.09-3.19a19.61,19.61,0,0,0-.15-3.13,8.68,8.68,0,0,0-.6-2.42,7.88,7.88,0,0,0-1.85-2.55,9.64,9.64,0,0,0-3.56-2.1,8.93,8.93,0,0,0-3.37-.64A8.83,8.83,0,0,0,123.07,74.61Z"/><path class="cls-1" d="M91.29,87.84c-1.36,1-2.36,2.22-4.32,4.72A55.81,55.81,0,0,0,83.14,98a51.45,51.45,0,0,0-6.32,15.7,45.43,45.43,0,0,0-1.19,9.76,47.36,47.36,0,0,0,2.23,14.49,43,43,0,0,0,13.22,21.52,54.3,54.3,0,0,0,17,10.76,56.34,56.34,0,0,0,18.42,3.73,51.71,51.71,0,0,0,17.69-2.15A52.3,52.3,0,0,0,171.19,152a50.65,50.65,0,0,0,7.28-15.21,48,48,0,0,0,1.78-14.49,49.23,49.23,0,0,0-2.08-12.34,52.8,52.8,0,0,0-4.44-10.44,44.58,44.58,0,0,0-7.45-9.94c-2.56-2.55-4-3.37-5.63-3.77a10.43,10.43,0,0,0-11.89,5.86,9.79,9.79,0,0,0-.13,6.83c.89,2.38,2.21,2.71,5,6.15a35.77,35.77,0,0,1,4,6,26.73,26.73,0,0,1,2.73,10.84,30,30,0,0,1-1.79,13.07,31.67,31.67,0,0,1-7.82,11.57,32.25,32.25,0,0,1-8.57,5.84,33.42,33.42,0,0,1-6.69,2.15,37,37,0,0,1-11,.58,32.88,32.88,0,0,1-9.21-2.06,31.27,31.27,0,0,1-15.46-13,30.83,30.83,0,0,1-3.86-9.9,29.66,29.66,0,0,1,3.86-21.52,23.08,23.08,0,0,1,3-4.26,40.32,40.32,0,0,0,3.87-4.3,6.72,6.72,0,0,0,1-3.07,9.7,9.7,0,0,0-1-6.6c-2.53-4.23-8-4.48-8.32-4.49A11.57,11.57,0,0,0,91.29,87.84Z"/></g></g><g id="Bubble"><ellipse class="cls-2" cx="124.32" cy="122.59" rx="123.95" ry="122.22"/><path class="cls-3" d="M23.39,148.6c-6.05,5.35,5.14,27.28,12.12,37.81,2.46,3.7,13.42,19.65,35.06,32A111.82,111.82,0,0,0,100.07,230c10.85,2.57,41,9.71,72.74-5.82,23-11.23,34.6-28.74,41.29-38.77,10.33-15.48,12.52-26.81,13.08-30,1.76-10,4.34-24.7-2.77-31.51-10.59-10.14-38.28,1.46-84.55,21.34-40.14,17.25-45.6,23.4-62,22.36C47.7,165.73,30,142.72,23.39,148.6Z"/><ellipse class="cls-4" cx="208.89" cy="84.2" rx="12.63" ry="12"/><ellipse class="cls-4" cx="30.74" cy="76.6" rx="7.48" ry="7.11"/><path class="cls-4" d="M39.37,62c-.87-.85,7.17-10.56,17.68-19.6A120.87,120.87,0,0,1,84.55,24.7c14.51-7.2,20.69-7.37,25.21-6.53.93.17,9.29,1.79,9.82,5.6.41,3-4.15,5.76-5.9,6.84-6,3.67-11.73,3.87-16.36,4.35,0,0-5.7.19-22.59,5.6C52.3,47.75,40.44,63.07,39.37,62Z"/></g></g></svg>