<svg xmlns="http://www.w3.org/2000/svg" viewBox="0 0 252 252"><defs><style>.cls-1{fill:#dbd742;}</style></defs><title>Light</title><g id="Layer_2" data-name="Layer 2"><g id="Bubble"><circle class="cls-1" cx="126" cy="126" r="49.5"/><path class="cls-1" d="M126,0a13.49,13.49,0,0,0-13.5,13.5v45h27v-45A13.49,13.49,0,0,0,126,0Z"/><path class="cls-1" d="M126,252a13.49,13.49,0,0,0,13.5-13.5v-45h-27v45A13.49,13.49,0,0,0,126,252Z"/><path class="cls-1" d="M252,126a13.49,13.49,0,0,0-13.5-13.5h-45v27h45A13.49,13.49,0,0,0,252,126Z"/><path class="cls-1" d="M0,126a13.49,13.49,0,0,0,13.5,13.5h45v-27h-45A13.49,13.49,0,0,0,0,126Z"/><path class="cls-1" d="M34.59,34.59a13.5,13.5,0,0,0,0,19.09L66.41,85.5,85.5,66.41,53.68,34.59A13.5,13.5,0,0,0,34.59,34.59Z"/><path class="cls-1" d="M217.41,35.45a13.5,13.5,0,0,0-19.09,0L166.5,67.27l19.09,19.1,31.82-31.82A13.51,13.51,0,0,0,217.41,35.45Z"/><path class="cls-1" d="M34.59,216.55a13.5,13.5,0,0,0,19.09,0L85.5,184.73l-19.09-19.1L34.59,197.45A13.51,13.51,0,0,0,34.59,216.55Z"/><path class="cls-1" d="M216.55,216.55a13.51,13.51,0,0,0,0-19.1l-31.82-31.82-19.1,19.1,31.82,31.82A13.51,13.51,0,0,0,216.55,216.55Z"/></g></g></svg>