<svg id="Layer_1" data-name="Layer 1" xmlns="http://www.w3.org/2000/svg" viewBox="0 0 800 600"><defs><style>.cls-1{fill:#fff;}</style></defs><title>Lock</title><path class="cls-1" d="M412,41c11.74,2.93,24,4.63,35.12,9,39.38,15.46,65.43,43.88,76.74,84.7,3.38,12.19,4.6,25.24,4.92,37.94.7,28.47.22,57,.22,85.47v6.67c12.21.72,23.46,3.27,33.5,9.72,19.38,12.43,30,30.23,30.33,53.17.52,37.65.18,75.31.19,113q0,23.23,0,46.48c-.1,37.93-27.66,65.81-65.49,65.86q-126.47.16-252.92,0c-31.7,0-57-19.81-63.88-50a77.2,77.2,0,0,1-1.63-16.84Q208.89,409,209,331.76c0-37.33,24.26-63.56,61.6-66.72.64-.05,1.26-.21,2.4-.4v-6.95q0-43,0-86c0-39.51,14.39-72.72,44-99C336.54,55.29,359.65,45.34,385.61,42c1.81-.24,3.59-.64,5.39-1Zm52.38,223.9a6.28,6.28,0,0,0,.57-1.75c0-33,1-66-.44-98.93C462.83,125,424.11,97.54,386,106.9c-29,7.12-48.72,32.18-48.9,62.71s-.06,61.3,0,91.95a26.74,26.74,0,0,0,.42,3.34ZM385,448.16c0,7.66,0,15.32,0,23,.06,10.55,6.65,17.85,16,17.82S417,481.64,417,471.06c0-15.31.14-30.63-.08-45.94a8.92,8.92,0,0,1,4.08-8.24,30.16,30.16,0,0,0,8.79-37.6c-5.95-11.88-18.28-19.14-30.81-18.15a31.88,31.88,0,0,0-28.31,22.41c-4.08,13.5-.16,24.89,11.47,34.45a8.7,8.7,0,0,1,2.74,5.71C385.17,431.85,385,440,385,448.16Z"/></svg>