<svg xmlns="http://www.w3.org/2000/svg" viewBox="0 0 410.71 398.57"><defs><style>.cls-1{fill:#ff4a73;}.cls-2{fill:#ff8094;}.cls-3{fill:#f3f5ff;fill-opacity:0.34;stroke:#a09dd1;stroke-miterlimit:10;stroke-width:0.75px;opacity:0.46;}.cls-4{fill:#dee4f9;fill-opacity:0.61;}.cls-4,.cls-5{opacity:0.84;}.cls-5{fill:#e5eaf9;}</style></defs><title>Play</title><g id="Layer_2" data-name="Layer 2"><g id="sett"><g id="play"><path class="cls-1" d="M115.42,80.07a34.48,34.48,0,0,0-3.5,6.49,42.54,42.54,0,0,0-3.35,14.73c-2.89,56.52-2,94.76-2,94.76,0,37.93-2.3,62.56.49,86.37A64.91,64.91,0,0,0,113,302.66a36.38,36.38,0,0,0,4.89,7.9,33.46,33.46,0,0,0,13.22,9.37,40.16,40.16,0,0,0,14.19,3A60.37,60.37,0,0,0,161,321.41C179.34,316.9,225.79,286,252,271.32c0,0,55.65-31.14,73.4-45.65a41.37,41.37,0,0,0,8.82-9.87,39.21,39.21,0,0,0,3.92-34.55,41.55,41.55,0,0,0-7.35-13.33,39.82,39.82,0,0,0-11.75-9.38c-26.16-14.28-51.2-30.59-77.34-44.91C210.34,96.45,194.65,87.86,187.87,83c-2.75-2-6.64-4-14.19-8.39A131.38,131.38,0,0,0,161.24,68c-4.49-2.06-9.33-3.92-15.47-3.71l-.43,0a40.18,40.18,0,0,0-10.79,2.24C130.65,67.94,121.58,71.21,115.42,80.07Z"/><path class="cls-2" d="M128.13,94.91a30.78,30.78,0,0,0-3.06,5.65,36.93,36.93,0,0,0-2.93,12.82c-2.53,49.19-1.71,82.47-1.71,82.47,0,33-2,54.44.43,75.17A56.2,56.2,0,0,0,126,288.63a31.48,31.48,0,0,0,4.28,6.87,29.27,29.27,0,0,0,11.56,8.16,35.59,35.59,0,0,0,12.42,2.58A53.12,53.12,0,0,0,168,305c16.08-3.93,56.7-30.82,79.65-43.6,0,0,48.67-27.1,64.18-39.72a35.94,35.94,0,0,0,7.72-8.6A33.93,33.93,0,0,0,322.93,183a36.21,36.21,0,0,0-6.43-11.59,34.48,34.48,0,0,0-10.27-8.16c-22.88-12.43-44.78-26.63-67.64-39.09-27.45-15-41.17-22.43-47.1-26.63-2.4-1.71-5.8-3.47-12.41-7.3a113.92,113.92,0,0,0-10.88-5.8C164.28,82.6,160,81,154.68,81.17h-.38a36.15,36.15,0,0,0-9.44,1.95C141.45,84.36,133.52,87.2,128.13,94.91Z"/></g></g><g id="Bubble"><ellipse class="cls-3" cx="205.36" cy="199.29" rx="204.98" ry="198.91"/><path class="cls-4" d="M38.43,236.79c-10,8.7,8.5,44.4,20,61.53,4.06,6,22.2,32,58,52.06a186.1,186.1,0,0,0,48.77,18.93c17.95,4.18,67.85,15.8,120.31-9.47,38-18.29,57.21-46.77,68.28-63.1,17.08-25.19,20.71-43.63,21.63-48.8,2.9-16.25,7.17-40.19-4.59-51.27-17.51-16.51-63.3,2.37-139.82,34.73-66.38,28.07-75.42,38.08-102.57,36.38C78.64,264.66,49.44,227.21,38.43,236.79Z"/><ellipse class="cls-5" cx="340.02" cy="134.44" rx="20.9" ry="20.28"/><ellipse class="cls-5" cx="51.76" cy="114.84" rx="12.38" ry="12.01"/><path class="cls-5" d="M66,90.2C64.6,88.78,77.91,72.36,95.3,57.07c18.38-16.16,33.89-24.08,45.52-30,24-12.17,34.26-12.45,41.73-11,1.54.29,15.39,3,16.26,9.47.68,5-6.86,9.75-9.76,11.57-9.87,6.2-19.42,6.53-27.09,7.36,0,0-9.44.31-37.4,9.46C87.45,66.07,67.81,92,66,90.2Z"/></g></g></svg>