<svg xmlns="http://www.w3.org/2000/svg" viewBox="0 0 256.76 249.84"><defs><style>.cls-1{fill:#6c8795;}.cls-2{fill:#d1dade;}.cls-3{fill:#5e7077;}.cls-4{fill:#eac394;}.cls-5{fill:#e9daf2;stroke:#a09dd1;stroke-miterlimit:10;stroke-width:0.75px;opacity:0.21;}.cls-6{fill:#d6d6f2;opacity:0.36;}.cls-7{fill:#f5ebff;opacity:0.84;}</style></defs><title>Settings</title><g id="Layer_2" data-name="Layer 2"><g id="sett"><g id="sett-2" data-name="sett"><path class="cls-1" d="M189.33,141.71h0c.09-.15-3.68-3.16-13.16-10.38q.14-7.79.25-15.57l11.9-10.37A41.1,41.1,0,0,0,184,94.68a43.66,43.66,0,0,0-6.29-8.31c-.61-.63-1.13-1.14-1.51-1.5L163.4,88.44l-2.4.68h0c-6.89-2.7-11.53-4.67-14.66-6.13h0c-1.1-.51-3.25-12.09-3.39-12.8-.43-2.34-1-4.57-1-4.57-4-.55-9.11-1.73-12.15-1.73-7.16.4-13.19,1.64-12.44,1.65.37,0,.39,0,0,0h0c-1.14,6.17-2,11.24-3.18,17.41l-14,6.88c-11.48-2.8-18-4.4-18-4.4a56.2,56.2,0,0,0-5.73,9.91,63.21,63.21,0,0,0-4,11.47c1.76,1.4,3.54,2.82,5.31,4.25q3,2.45,6,4.87c-.11,2.63-.14,5.43-.06,8.37.07,2.33.21,4.56.4,6.69-8.55,6.61-12.63,9.77-12.63,9.78h0a47,47,0,0,0,5.06,11.48,63.3,63.3,0,0,0,6.83,9.51h0c2.54-1.11,5.24-2.22,8.1-3.3,2.7-1,5.32-1.93,7.84-2.75l15.3,6.88c.72,2.77,1.37,5.81,1.9,9.08.5,3.09.83,6,1,8.73a60.05,60.05,0,0,0,24.79.23h0c1.87-9.66,2.79-13.11,3.29-14.39,0-.12.81-3.47.81-3.47,4.72-2.2,8.56-4.45,13.28-6.65,5,1.49,11,3.91,16,5.41,2.44-2.53,6.84-6.12,9.12-9.88a42.24,42.24,0,0,0,4.55-9.93"/><ellipse class="cls-2" cx="129.84" cy="122.63" rx="34.85" ry="32.38"/><ellipse class="cls-3" cx="129.56" cy="122.2" rx="24.69" ry="22.94"/><ellipse class="cls-4" cx="129.71" cy="121.91" rx="16.66" ry="15.47"/></g></g><g id="Bubble"><ellipse class="cls-5" cx="128.38" cy="124.92" rx="128" ry="124.55"/><path class="cls-6" d="M24.14,151.43c-6.24,5.45,5.31,27.8,12.52,38.52,2.54,3.77,13.86,20,36.21,32.6a115.82,115.82,0,0,0,30.46,11.86c11.21,2.61,42.36,9.89,75.13-5.93C202.17,217,214.18,199.19,221.1,189c10.66-15.78,12.93-27.32,13.5-30.56,1.81-10.18,4.48-25.16-2.86-32.1-10.94-10.34-39.53,1.48-87.32,21.74-41.45,17.58-47.09,23.85-64,22.78C49.25,168.88,31,145.43,24.14,151.43Z"/><ellipse class="cls-7" cx="216.47" cy="84.35" rx="13.05" ry="12.7"/><ellipse class="cls-7" cx="32.46" cy="75.07" rx="7.73" ry="7.52"/><path class="cls-7" d="M41.38,59.64c-.9-.89,7.41-11.17,18.27-20.74A124.74,124.74,0,0,1,88.08,20.13c15-7.62,21.39-7.79,26.06-6.91,1,.18,9.61,1.89,10.15,5.92.42,3.14-4.28,6.11-6.09,7.25C112,30.27,106.07,30.48,101.28,31c0,0-5.89.19-23.35,5.92C54.75,44.54,42.48,60.75,41.38,59.64Z"/></g></g></svg>