<svg xmlns="http://www.w3.org/2000/svg" viewBox="0 0 248.64 245.18"><defs><style>.cls-1{fill:#ffc27b;}.cls-2{fill:#ffe4c7;}.cls-3{fill:#e8f9ec;stroke:#82bfbc;stroke-miterlimit:10;stroke-width:0.75px;}.cls-3,.cls-4{opacity:0.39;}.cls-4{fill:#d4efdb;}.cls-5{fill:#e6fffd;opacity:0.84;}</style></defs><title>Stats</title><g id="Layer_2" data-name="Layer 2"><g id="sett"><g id="statist"><path class="cls-1" d="M121.15,64.57c2.27-4,3.41-5.72,3.72-5.83h0a6.48,6.48,0,0,1,6.63.18c1,1.7,1.95,3.4,2.92,5.13q8.15,14.46,14.82,28.56,11.7,2.19,24.09,4.09,6.1.93,12.09,1.73a5.19,5.19,0,0,1,4.22,3.81,4.71,4.71,0,0,1-.79,3.49l-26.78,25.49c3.78,21.64,5.09,29.78,5.39,32.24,0,.11.56,4.55.56,4.55a4.52,4.52,0,0,1-.37,2.37,4.78,4.78,0,0,1-4.09,2.73,4.24,4.24,0,0,1-1.61-.38c-5.09-2.41-28.39-14.56-32.55-16.69l-1.18-.59L99.58,170.93c1.15-.61-4.28,2-4.28,2a5.69,5.69,0,0,1-4.1-.29A5.63,5.63,0,0,1,89,170.38h0a7.94,7.94,0,0,1-.72-2.25,9.13,9.13,0,0,1,0-2.3c.22-1.76,2.72-15.24,6.28-33.7h0c-7.95-7.85-23.28-22.52-25.65-24.32A5.14,5.14,0,0,1,68,107a5.37,5.37,0,0,1-1.07-2.14,6.64,6.64,0,0,1-.17-2.76A5.12,5.12,0,0,1,68,99.89a5.47,5.47,0,0,1,2.92-1.6q16.17-1.61,32.7-4.26l1.67-.28Z"/><path class="cls-2" d="M123.13,81.62c1.64-2.73,2.45-3.93,2.68-4h0a4.77,4.77,0,0,1,2.1-.57,4.94,4.94,0,0,1,2.67.69l2.1,3.52q5.85,10,10.66,19.64,8.41,1.51,17.33,2.81c2.93.43,5.83.82,8.7,1.19a3.66,3.66,0,0,1,3,2.62,3.11,3.11,0,0,1-.56,2.4l-19.27,17.53c2.72,14.87,3.66,20.47,3.88,22.16l.4,3.13a3,3,0,0,1-.27,1.63,3.44,3.44,0,0,1-2.94,1.87,3.11,3.11,0,0,1-1.16-.26c-3.66-1.66-20.42-10-23.41-11.47l-.85-.41-20.61,10.64c.83-.41-3.08,1.38-3.08,1.38a4.29,4.29,0,0,1-3-.2,4.08,4.08,0,0,1-1.59-1.55h0a5.74,5.74,0,0,1-.51-1.55,5.93,5.93,0,0,1,0-1.58c.16-1.21,2-10.48,4.52-23.17h0c-5.72-5.39-16.74-15.48-18.45-16.72a3.83,3.83,0,0,1-.6-.54,3.73,3.73,0,0,1-.77-1.48,4.44,4.44,0,0,1-.12-1.9,3.31,3.31,0,0,1,.86-1.51A4,4,0,0,1,87,104.8q11.63-1.1,23.52-2.93l1.2-.18Q117.42,91.66,123.13,81.62Z"/></g></g><g id="Bubble"><ellipse class="cls-3" cx="124.32" cy="122.59" rx="123.95" ry="122.22"/><path class="cls-4" d="M23.39,148.6c-6.05,5.35,5.14,27.28,12.12,37.81,2.46,3.7,13.42,19.65,35.06,32A111.82,111.82,0,0,0,100.07,230c10.85,2.57,41,9.71,72.74-5.82,23-11.23,34.6-28.74,41.29-38.77,10.33-15.48,12.52-26.81,13.08-30,1.76-10,4.34-24.7-2.77-31.51-10.59-10.14-38.28,1.46-84.55,21.34-40.14,17.25-45.6,23.4-62,22.36C47.7,165.73,30,142.72,23.39,148.6Z"/><ellipse class="cls-5" cx="208.82" cy="81.17" rx="12.63" ry="12"/><ellipse class="cls-5" cx="34.68" cy="71.58" rx="7.48" ry="7.11"/><path class="cls-5" d="M43.3,57c-.86-.84,7.17-10.55,17.68-19.59a120.52,120.52,0,0,1,27.5-17.73c14.52-7.2,20.7-7.37,25.21-6.54.93.18,9.3,1.8,9.82,5.6.41,3-4.14,5.77-5.89,6.85-6,3.67-11.74,3.86-16.37,4.35,0,0-5.7.18-22.59,5.6C56.24,42.73,44.37,58.05,43.3,57Z"/></g></g></svg>