<svg xmlns="http://www.w3.org/2000/svg" viewBox="0 0 100 208"><defs><style>.cls-1{fill:none;stroke:#000;stroke-miterlimit:10;stroke-width:10px;}.cls-2{fill:#d33945;}</style></defs><title>Temp</title><g id="Layer_2" data-name="Layer 2"><g id="Bubble"><path class="cls-1" d="M77,122.91V32a27,27,0,0,0-54,0l.77,92C19.05,127.11,5,136.29,5,158c0,27,20.15,45,45,45s45-18,45-45C95,135.79,81.72,125.77,77,122.91Z"/><path class="cls-2" d="M63.75,131.89V84.76c0-10.52-3.63-18.09-13.54-18.09S36.66,74.24,36.66,84.76l.39,47.87c-9.86,4.7-16.77,12.34-16.77,26.78,0,18,13.4,28.92,29.93,28.92s29.92-11,29.92-28.92C80.13,144.64,73.19,136.5,63.75,131.89Z"/></g></g></svg>